<?xml version="1.0" standalone="no"?>
<!DOCTYPE svg PUBLIC "-//W3C//DTD SVG 1.1//EN" "http://www.w3.org/Graphics/SVG/1.1/DTD/svg11.dtd" >
<svg xmlns="http://www.w3.org/2000/svg" xmlns:xlink="http://www.w3.org/1999/xlink" version="1.1">
<metadata></metadata>
<defs>
<font id="faranvaleregular" horiz-adv-x="970" >
<font-face units-per-em="2048" ascent="1638" descent="-410" />
<missing-glyph horiz-adv-x="614" />
<glyph horiz-adv-x="0" />
<glyph horiz-adv-x="682" />
<glyph unicode=" "  horiz-adv-x="614" />
<glyph unicode="&#x09;" horiz-adv-x="614" />
<glyph unicode="&#xa0;" horiz-adv-x="614" />
<glyph unicode="!" horiz-adv-x="456" d="M55 1440q14 24 84 38t107 -20q-19 -82 -20 -196.5t11.5 -233t27.5 -222.5t31.5 -205.5t20.5 -141.5q1 -6 -1.5 -12t-21 -17.5t-65.5 4.5q-3 10 -19.5 52.5t-30.5 83t-34.5 124t-36 178.5t-30.5 244.5t-23 323.5zM233 104q0 45 29.5 77t71.5 32q40 0 69 -32.5t29 -76.5 q0 -43 -29 -75.5t-69 -32.5q-42 0 -71.5 32.5t-29.5 75.5z" />
<glyph unicode="&#x22;" horiz-adv-x="710" d="M48.5 1274.5q0.5 89.5 10.5 195.5q14 14 86 18.5t103 -18.5q-41 -78 -47.5 -191t7 -244.5t13.5 -147.5l-3 -9q-16 -18 -85 -1q-3 7 -14.5 30.5t-22.5 47t-23 71t-18.5 103.5t-6 145.5zM458.5 1274.5q0.5 89.5 10.5 195.5q14 14 85.5 18.5t102.5 -18.5 q-32 -60 -42.5 -150.5t-5.5 -163.5t13.5 -158t8.5 -111l-3 -9q-16 -18 -83 -2q-1 1 -2 1q-3 7 -14.5 30.5t-22.5 47t-23 71t-18.5 103.5t-6 145.5z" />
<glyph unicode="#" horiz-adv-x="1153" d="M11 1098q2 44 28 63q62 -16 131 -22q0 6 -6 291q7 18 43 35.5t79.5 14.5t63.5 -40q-22 -118 -22 -307q173 0 413 26q-8 188 -8 279q7 18 43.5 35.5t81 14.5t64.5 -40q-22 -123 -25 -270q104 13 158 16h5.5t11.5 -4t12 -12t3 -26t-10 -44q-7 -2 -37 -13.5t-64.5 -23 t-76.5 -22.5q5 -192 31 -480l164 19h5.5t11.5 -4t12.5 -12t4 -27t-9.5 -45q-12 -3 -67.5 -23.5t-108.5 -34.5q26 -267 33 -401q-1 0 0.5 -7.5t-3.5 -16t-12 -15.5t-26 -5.5t-45 13.5q-47 204 -80 404q-193 -33 -434 -41q28 -281 31 -332v-7.5t-4 -14.5t-11.5 -15.5 t-26.5 -4.5t-45 13q-2 10 -17.5 65.5t-31.5 127t-32 162.5q-71 -3 -148 0q-14 6 -27.5 43.5t-11.5 81t27 61.5q99 -18 135 -23q-22 218 -37 443q-61 -3 -127 0q-13 6 -26.5 43.5t-11.5 81.5zM328 979q10 -244 30 -455q152 0 428 29q-25 211 -38 465q-175 -31 -420 -39z" />
<glyph unicode="$" horiz-adv-x="1286" d="M64 732.5q1 37.5 8 78.5q19 109 71 203q110 211 332 327l43 21q-9 119 -10 137q4 19 27 39.5t52 31.5t60.5 -1t48.5 -53q-1 -13 -3.5 -43t-2.5 -52q124 32 281 35q33 -5 66 -29t42 -53q11 -34 -12.5 -60t-89.5 -40q-158 10 -289 -23q2 -144 17 -358l30 10q161 54 246 64 q42 2 81 2.5t77.5 -17t60.5 -53.5q7 -16 10.5 -27.5t6.5 -26t4 -20.5q17 -121 -43 -241q-43 -88 -134 -183q-110 -105 -264 -206q28 -222 35 -299q1 -4 1 -11t-2.5 -22.5t-10 -24t-26.5 -7.5t-46 19q-7 37 -33 111t-45 156q-25 -15 -82 -48t-82 -49q-36 -22 -61 -28 q-20 -3 -33 8q-18 18 -4 61q27 20 62 44l87.5 60t90.5 62q-36 208 -60 459l-14 -6l-149 -64q-56 -25 -127 -51q-80 -29 -121 -18q-37 12 -60 41t-30 68t-6 76.5zM229 826q-40 -120 17 -115q12 1 28 8q20 8 283 117q-26 340 -27 354q-154 -85 -241 -232q-32 -50 -60 -132z M717 743q8 -97 47 -417q22 17 65 55q142 119 203 221q46 77 49 152q2 27 -4 44t-14.5 24.5t-29.5 7.5t-35 -2.5t-44 -8.5q-70 -17 -125 -35q-21 -7 -61 -22t-51 -19z" />
<glyph unicode="%" horiz-adv-x="1155" d="M74 1227q13 84 71 145q68 75 162 86q110 17 197 -47q97 -67 112 -184q-2 -14 -21.5 -28.5t-45.5 -20.5v-35q4 -45 -14 -94q-18 -45 -58 -80q-57 -49 -131 -54q-107 -8 -186 66q-47 41 -72 107t-14 139zM152 38.5q0 9.5 3 15.5l3 7q27 55 135 258.5t199.5 381.5 t187.5 399.5t131 365.5q38 27 76 12.5t66 -45t28 -49.5q-104 -236 -204 -441t-170 -335t-142 -249t-108.5 -172.5t-81.5 -116t-50 -70.5q-29 -1 -46.5 5t-22 15t-4.5 18.5zM223 1143q7 -26 26 -47.5t42 -32.5q45 -21 90 -4q36 13 55 42t23 56q0 8 10 14q14 5 25 6v1 q-30 0 -62 16q14 35 -12 72q-30 42 -86 39q-53 0 -92 -52q-36 -48 -19 -110zM549 324q13 83 72 145q68 75 161 86q110 17 197 -47q98 -68 113 -184q-2 -16 -26 -31.5t-54 -18.5q-6 -3 -7.5 -4.5t0.5 -3t6 -2.5q7 -2 11 -4q4 -15 2.5 -48.5t-14.5 -66.5q-17 -44 -58 -79 q-57 -49 -131 -54q-107 -8 -186 66q-47 41 -72 107t-14 139zM698 240q7 -26 26 -47.5t42 -32.5q45 -21 90 -4q36 13 55 42t23 56q0 8 10 14q25 0 -2 10q-33 12 -35 13q14 34 -12 71q-30 42 -86 39q-54 0 -92 -51q-36 -48 -19 -110z" />
<glyph unicode="&#x26;" horiz-adv-x="1226" d="M63 391q3 92 46 176q58 118 196 256q-74 137 -96 248q-22 107 4 195q15 50 51.5 91.5t83.5 65.5q82 42 191 52q74 7 186 0q64 -6 182 -25q71 -18 101 -37q37 -23 47 -59q11 -35 -6 -78q-7 -17 -17 -31t-25 -30.5t-20 -22.5l-69 -62q-64 -53 -140 -106q-28 -22 -86 -66.5 t-101 -78.5t-81 -66l-10 -8q59 -84 121 -158q137 -164 280 -282q65 69 143 163q39 51 70 80q30 23 43 15q18 -11 10 -76q-92 -133 -108 -154q-28 -38 -74 -94q98 -64 107 -70q33 -28 60.5 -67t31.5 -70q3 -38 -35 -49q-55 -15 -154 29q-80 53 -135 100q-47 -44 -96 -76 q-98 -67 -184 -88q-130 -40 -258 19q-60 25 -117 79q-59 52 -96 117q-46 83 -46 168zM209 340q11 -55 57 -107q42 -52 96 -81q95 -58 216 -19q94 33 194 115q-133 123 -227 235q-94 109 -164 213q-53 -52 -96 -108q-101 -138 -76 -248zM358 1118q10 -73 68 -184 q24 20 207 160q6 5 68 52t94 73q15 11 40 33t35 30l19 21q-22 7 -72 14q-131 17 -229 12q-132 -3 -191 -53q-31 -21 -39 -59q-9 -42 0 -99z" />
<glyph unicode="'" horiz-adv-x="348" d="M81.5 1272q0.5 86 10.5 192q14 14 86 18.5t103 -18.5q-41 -78 -47.5 -181.5t7 -222.5t13.5 -138q0 -4 -2.5 -8t-21.5 -10.5t-64 7.5q-3 9 -14.5 28t-22.5 38.5t-22.5 62t-18.5 94.5t-6.5 138z" />
<glyph unicode="(" horiz-adv-x="636" d="M82 485q-10 226 31 445q56 273 180 522q20 22 64.5 27.5t80 -18.5t27.5 -79q-136 -199 -197 -471q-64 -282 -26 -567q32 -264 139 -514q66 -153 184 -340q1 -2 3 -5t7 -12.5t6 -16.5t0.5 -17.5t-8.5 -15t-22.5 -8.5t-40.5 1q-86 103 -121 152q-105 150 -174 309 q-119 292 -133 608z" />
<glyph unicode=")" horiz-adv-x="641" d="M59.5 -561.5q-1.5 8.5 1 17.5t6 16.5t6.5 12.5l3 5q118 187 184 340q107 250 139 514q38 285 -26 567q-61 272 -197 471q-8 55 27.5 79t80 18.5t64.5 -27.5q124 -249 180 -522q41 -219 31 -445q-14 -316 -133 -608q-69 -159 -174 -309q-35 -49 -121 -152q-25 -3 -40.5 -1 t-22.5 8.5t-8.5 15z" />
<glyph unicode="*" horiz-adv-x="1234" d="M100 1047q4 44 31 61q121 -37 307 -47q-137 143 -209 225q-3 15 15.5 49t52.5 62t65 22q74 -143 254 -323q65 69 171.5 188.5t140.5 153.5q1 2 4 4t11 4.5t16.5 -1t21 -17.5t23.5 -39q-6 -9 -33 -59t-73 -117t-116 -150q68 3 196.5 10.5t170.5 7.5q6 0 12.5 -2.5 t16 -21.5t-12.5 -64q-8 -2 -61 -18.5t-128 -31t-177 -23.5q39 -35 101 -89.5t100.5 -89.5t62.5 -59q2 -2 4 -4.5t4.5 -11t-1 -17t-17.5 -20.5t-39 -23q-10 6 -51.5 28.5t-80 46t-111 78.5t-153.5 128q-119 -125 -294 -281q-15 -4 -50 14.5t-63 52t-21 64.5q112 60 234 170 q-97 2 -293 13q-13 8 -24 45.5t-7 81.5z" />
<glyph unicode="+" horiz-adv-x="1032" d="M51.5 674q3.5 37 26.5 51q122 -38 336 -41q-3 71 -11 198.5t-8 166.5q0 5 2 11t19 14.5t57 -9.5q2 -9 18.5 -60.5t31 -131.5t20.5 -189q98 1 245 9.5t183 8.5q5 1 11 -1.5t15.5 -18t-10.5 -53.5q-10 -2 -51 -14t-81 -21.5t-123.5 -20t-184.5 -14.5q3 -158 -8 -358 q-8 -11 -41 -20t-71.5 -5.5t-53.5 25.5q41 130 41 356q-172 0 -336 10q-11 7 -20.5 38.5t-6 68.5z" />
<glyph unicode="," horiz-adv-x="436" d="M101 207q30 47 93 64q80 20 127 -33q29 -33 37 -91q2 -31 -1.5 -60t-8.5 -52t-16.5 -47t-20 -40t-25 -35t-25.5 -28.5t-27 -24.5t-24 -19.5t-23 -16.5l-17 -12q30 49 42.5 80.5t12.5 68t-26 69.5t-78 70q-57 49 -20 107z" />
<glyph unicode="-" horiz-adv-x="1030" d="M92 590q4 44 33 61q109 -32 235 -42.5t216 -5.5t202.5 13.5t165.5 8.5h5.5t11.5 -4.5t11.5 -12.5t2 -26.5t-11.5 -44.5q-11 -2 -68.5 -18t-115.5 -25t-230 -19.5t-424 -11.5q-14 8 -25.5 45.5t-7.5 81.5z" />
<glyph unicode="." horiz-adv-x="405" d="M76 131q0 56 40 94.5t101 38.5q56 0 95.5 -39t39.5 -94q0 -51 -40 -90t-95 -39q-60 0 -100.5 38.5t-40.5 90.5z" />
<glyph unicode="/" horiz-adv-x="985" d="M109 38.5q0 9.5 3 15.5l3 7q27 55 135 258.5t199.5 381.5t187.5 399.5t131 365.5q38 27 76 12.5t66 -45t28 -49.5q-104 -236 -204 -441t-170 -335t-142 -249t-108.5 -172.5t-81.5 -116t-50 -70.5q-29 -1 -46.5 5t-22 15t-4.5 18.5z" />
<glyph unicode="0" horiz-adv-x="1370" d="M60 663q11 137 63 271q115 287 332 444q138 95 274 103q76 6 150 -15q75 -24 135 -71q101 -77 176 -219q64 -120 92 -252q29 -127 21.5 -263.5t-50.5 -248.5q-47 -116 -129 -201q-73 -76 -176 -125q-149 -68 -334 -72q-38 -2 -69 4q-43 -15 -115 -2q-119 56 -205 142 q-96 100 -137 229q-39 139 -28 276zM224 696q-12 -102 7 -204q22 -104 88 -179q66 -74 179 -120q20 -12 40 -37.5t31 -51.5q149 4 293 68q117 54 189 145q93 115 112 306q20 206 -69 421q-26 58 -59 109t-78 96t-102.5 68t-119.5 16q-133 -12 -262 -135q-128 -121 -199 -305 q-38 -95 -50 -197z" />
<glyph unicode="1" horiz-adv-x="462" d="M43 1194q-3 15 2 59q9 39 14 47q23 0 68 25q45 23 82 55q13 11 42 36.5t50 41.5q16 11 33.5 17t37 2.5t31.5 -19.5q14 -14 19 -35v-16q0 -14 -4.5 -42.5t-5.5 -45.5q-17 -192 -17 -512q1 -144 5 -293.5t9.5 -283.5t6.5 -181q0 -23 -10 -35q-8 -17 -38.5 -15.5t-39.5 17.5 q-3 20 -16.5 78t-26 140.5t-21.5 195.5q-16 203 -16 526q0 197 2 240q-79 -57 -123 -72q-23 -3 -53 17q-25 22 -31 53z" />
<glyph unicode="2" horiz-adv-x="1132" d="M59 1016q99 161 291 297q96 66 195 112q45 18 75 27.5t76.5 17t89.5 3.5q80 -7 134 -58q45 -45 67 -125q25 -107 -6 -246q-51 -194 -207 -417q-82 -121 -270 -353q-18 -21 -56.5 -63.5t-56.5 -63.5q156 22 311 35q181 10 281 -2q49 -4 86 -33q14 -11 19.5 -26t-1.5 -21 q-3 -3 -12.5 -5t-24.5 -5.5t-28 -9.5q-65 10 -116 8t-161 -14q-42 -6 -219 -35l-137 -23l-78 -14l-8 -2q-2 -2 -10 -2h-17h-10q-4 0 -16 4l-19 10q-8 6 -16 21q-7 7 -11.5 20.5t-2.5 20.5v14q0 6 2 10q7 25 16 41q2 8 12 23q32 47 121 153q30 34 135 166q191 244 279 414 q72 144 82 256q7 72 -12 123q-9 20 -23 31q-8 8 -33 14q-49 9 -135 -25q-76 -26 -156 -84q-188 -132 -264 -274q-23 -33 -104 -53q-41 -4 -58 18q-27 39 -4 115z" />
<glyph unicode="3" horiz-adv-x="1212" d="M55 391q3 49 19 82q16 28 32 25q18 -6 44 -54q-4 -69 4 -129q13 -98 57 -147q54 -67 178 -43q120 23 283 119q110 65 164 104q106 90 141 148q27 49 27 77q0 34 -25 62q-27 33 -83.5 54t-115.5 18q-26 0 -104 -11.5t-121 -3.5q-56 9 -96 47q-26 30 -33 68q-5 33 -2 55 q7 36 22 70q9 21 19.5 39.5t24 38.5t21.5 31.5t25 34t23 30.5t33.5 44.5t44.5 57.5q-129 -57 -293 -106q-34 -5 -73 12t-54 43q-42 62 74 125q169 33 383 123q37 17 106 43q1 0 40 14.5t61 16.5q82 0 88 -84q-4 -23 -18 -48t-24.5 -38t-35.5 -43l-78 -92q-54 -58 -156 -185 q-53 -74 -63 -98q-25 -51 -4 -60t68 6q12 2 18 3.5t16.5 3t18.5 2.5q46 8 71 8q154 3 260 -84q69 -52 93 -121q27 -73 0 -151q-38 -108 -158 -213q-85 -71 -193 -135q-125 -67 -196 -99q-114 -45 -211 -53q-60 -3 -115 8q-61 17 -102 53q-73 68 -97 181q-12 64 -8 151z" />
<glyph unicode="4" horiz-adv-x="995" d="M16 410v18q0 29 2 43l13 74q10 54 33 172t37.5 198t23.5 150q16 125 16 207q3 94 -14 137q-6 12 0 18l14 25q19 25 49 23q49 -54 64 -183q16 -138 -8 -342q-7 -63 -39 -256l-27 -149l-6 -33l62 23q75 30 208 77q129 47 244 70q-2 33 -2 102q-8 334 14 662q6 15 33.5 28 t57.5 13q20 -3 25 -4t21.5 -4.5t23 -8t15 -13t13.5 -19.5q-36 -133 -46.5 -314t-8.5 -422q86 7 172 -16q22 -11 33 -43.5t1 -62.5q-12 -35 -32 -50q-25 -21 -52 -24q-43 21 -118 24q2 -72 6.5 -184t6.5 -183t1 -120q0 -3 -1 -8.5t-6 -16.5t-14 -16t-27 -1t-42 22 q-1 11 -21 118t-32 230q-9 65 -15 147q-62 -10 -190 -49q-38 -12 -81.5 -27.5t-99 -35.5t-87.5 -31q-52 -18 -74 -23q-11 -4 -41 -8q-37 -5 -64 6q-13 6 -24.5 19t-14.5 26q0 2 -1 7.5t-1 7.5z" />
<glyph unicode="5" horiz-adv-x="1005" d="M38.5 1277.5q7.5 60.5 49 102t125.5 64.5q44 7 104 14q209 15 424 21q22 -4 46.5 -19.5t39.5 -38t17.5 -46t-21 -45.5t-73.5 -34q-183 13 -365 4q-152 -10 -190 -18q-2 -2 -7 -2v-18q0 -64 2 -95q11 -98 33 -204q4 -36 8 -48l15 5q41 10 51 14q116 40 215 65 q152 33 236 27q72 -4 124 -35q68 -40 89 -110q14 -50 10 -123q-2 -41 -13 -107q-36 -205 -153 -372q-117 -161 -275 -238q-71 -38 -157 -41q-85 -6 -156 35q-13 6 -27 18q-18 15 -34 47q-10 28 4 39q8 3 63 0q38 -35 97 -40.5t137 28.5q82 40 162.5 124.5t138.5 213.5 q35 78 51 153q19 106 16 181q0 39 -12 59q-15 18 -47 23q-80 15 -223 -23q-31 -7 -131 -37q-65 -24 -154 -51q-46 -12 -70 -8q-29 0 -50.5 20t-28 36t-18.5 53q-1 2 -1.5 4t-1.5 4l-18 84q-15 69 -29 172q-10 82 -2.5 142.5z" />
<glyph unicode="6" d="M43 336q-31 167 10 373q75 364 340 739q22 22 59 30.5t68 -1.5q33 -11 42 -43t-13 -93q-260 -303 -340 -651q-7 -27 -14 -67q57 44 127 77q113 57 231 50q78 -3 156 -43q87 -50 143 -111q82 -97 92 -209q8 -66 -16 -134.5t-76 -121.5q-99 -102 -262 -125 q-165 -20 -307 27q-103 31 -166 123q-53 75 -74 180zM182 487q-3 -116 31 -194q38 -98 119 -119q104 -30 198 -24q108 3 179 51q76 48 92 129q14 73 -33 147q-38 61 -115 107q-110 72 -262 22q-107 -34 -203 -108l-6 -6v-5z" />
<glyph unicode="7" horiz-adv-x="835" d="M16.5 1299.5q-13.5 70.5 12.5 103.5q175 -49 409 -2q79 16 196 48.5t144 37.5l11 -1q25 -11 22 -77q11 -11 18 -33q-55 -138 -100 -346t-67 -369.5t-46 -365.5t-32 -258q0 -3 -1 -7.5t-7 -13.5t-15 -13t-27 1t-42 23q0 4 -4.5 112.5t-0.5 210t37.5 359t98.5 594.5 q-179 -67 -574 -86q-19 12 -32.5 82.5z" />
<glyph unicode="8" horiz-adv-x="985" d="M20 1024q14 173 162 307q140 121 320 142q44 0 90 -27q36 -22 49 -51q95 -8 160 -56q48 -41 67 -96q19 -68 -2 -139q-37 -129 -184 -266q-52 -49 -121 -99q121 -9 184 -18q35 -7 57 -12.5t54.5 -21.5t56.5 -40q40 -37 50 -94q7 -40 0 -92q-8 -61 -48 -162 q-33 -85 -84 -145q-55 -68 -135 -108t-168 -46q-171 -12 -319 84q-80 56 -119 125q-48 84 -39 172q8 81 58 158q41 63 100 116l4 4q-31 16 -61 46q-68 61 -103 139q-38 84 -29 180zM197 1063q-43 -109 30 -207q44 -54 88 -72l45 -18l21 14q35 19 53 33q237 149 311 291 q29 52 24.5 91t-27 62.5t-60.5 36.5q0 1 -10.5 4.5l-28.5 9.5t-31 11h-2q-27 -18 -86 -33q-101 -3 -190 -59q-104 -67 -137 -164zM209 428q-43 -97 29 -178q38 -42 101 -71t130 -32q73 -5 140.5 21.5t111.5 83.5q27 34 39 65q24 54 35 86q12 35 20 84q3 37 -6 50 q-6 11 -33 22q-24 9 -90 16q-34 4 -115.5 9t-128.5 10q-35 3 -77 12l-17 -14q-100 -79 -139 -164z" />
<glyph unicode="9" horiz-adv-x="892" d="M25 1122q11 132 131 228q97 81 225 112q146 32 254 -8q62 -22 112.5 -68.5t77.5 -105.5q47 -99 47 -236q0 -182 -77 -413q-94 -286 -250 -561q0 -1 -8.5 -15t-22 -29t-27.5 -23t-27.5 6t-19.5 54q31 64 107 252q46 119 76 209q47 134 82 285q19 107 24 176v31 q-23 -50 -59 -105q-76 -115 -152 -170q-53 -40 -119 -55q-76 -16 -141 8q-120 44 -186 180q-56 116 -47 248zM176 1087q0 -64 29 -133q32 -69 82 -98q48 -26 100 -2q55 27 113 115q51 83 88 182q14 21 45.5 40.5t60.5 22.5q-29 63 -82 89q-78 46 -200 14q-60 -16 -115.5 -50 t-87.5 -79q-19 -22 -25 -47q-8 -21 -8 -54z" />
<glyph unicode=":" horiz-adv-x="444" d="M98 131q0 56 40.5 94.5t101.5 38.5q56 0 95.5 -39t39.5 -94q0 -51 -40 -90t-95 -39q-60 0 -101 38.5t-41 90.5zM98 907q0 56 40.5 94.5t101.5 38.5q56 0 95.5 -39t39.5 -94q0 -51 -40 -90t-95 -39q-60 0 -101 38.5t-41 90.5z" />
<glyph unicode=";" horiz-adv-x="432" d="M78 889q0 56 40 94.5t101 38.5q56 0 95.5 -39t39.5 -94q0 -51 -40 -90t-95 -39q-60 0 -100.5 38.5t-40.5 90.5zM101 207q30 47 93 64q80 20 127 -33q29 -33 37 -91q2 -31 -1.5 -60t-8.5 -52t-16.5 -47t-20 -40t-25 -35t-25.5 -28.5t-27 -24.5t-24 -19.5t-23 -16.5 l-17 -12q30 49 42.5 80.5t12.5 68t-26 69.5t-78 70q-57 49 -20 107z" />
<glyph unicode="&#x3c;" horiz-adv-x="1046" d="M70 625q0 21 7.5 40t16.5 34t28.5 31t32.5 26t39 24t38 19.5t40 18.5t35 16q26 13 170 77q153 71 402 172q22 1 54.5 -27t44.5 -66.5t-22 -78.5q-175 -41 -407 -137q-189 -77 -313 -147q6 -13 38.5 -41.5t81 -65t91 -68t90 -65.5t57.5 -41q38 -27 133 -94t131 -94 q3 -2 7.5 -6t11 -15t6.5 -21t-13.5 -23t-42.5 -23q-20 12 -75 39t-134 71t-172 103q-95 65 -178 125q-50 38 -104 86q-37 29 -62 59q-32 41 -32 72z" />
<glyph unicode="=" horiz-adv-x="1001" d="M35 385q4 44 33 61q109 -32 241.5 -42.5t229.5 -5.5t217 13.5t172 8.5h5.5t11 -4.5t11.5 -12.5t2 -26.5t-12 -44.5q-20 -4 -50.5 -19t-66.5 -27.5t-129.5 -26t-238 -13t-393.5 11.5q-14 8 -25.5 45.5t-7.5 81.5zM35 795q4 44 33 61q109 -32 241.5 -42.5t229.5 -6t217 13 t172 8.5h5.5t11 -4.5t11.5 -12.5t2 -26.5t-12 -44.5q-20 -4 -50.5 -19t-66.5 -27.5t-129.5 -25.5t-238 -12.5t-393.5 11.5q-14 8 -25.5 45.5t-7.5 81.5z" />
<glyph unicode="&#x3e;" horiz-adv-x="987" d="M52.5 1030.5q12.5 38.5 45 66.5t54.5 27q240 -98 401 -172q129 -57 170 -78q37 -17 96 -50t80 -44q100 -94 29 -186q-25 -30 -62 -59q-54 -48 -104 -86q-83 -60 -178 -125q-93 -59 -172 -103t-134 -71t-75 -39q-29 10 -43 22.5t-13 23.5t6 21t12 16l7 5q36 27 131 94 t133 94q16 12 64 46.5t74 54.5t67 51t76 60t67 58q7 4 11 11l-95 51q-63 31 -219 96q-232 96 -407 137q-34 40 -21.5 78.5z" />
<glyph unicode="?" horiz-adv-x="839" d="M39 983q-20 143 57 262q70 110 205 176q143 68 270 60q85 -7 146 -49q33 -23 56.5 -59t31.5 -73q6 -21 6 -38l4 -35q0 -45 -2 -68q-9 -69 -33 -131q-30 -85 -112 -209q-81 -113 -99 -151q-25 -54 -14 -88q4 -13 0 -25q-4 -16 -18 -23q-24 -15 -56 -8q-21 33 -28 70 q-7 47 8 104q8 27 24 61.5t30 59.5t41.5 72.5t41.5 73.5q54 98 66 182q9 47 2 104q-8 42 -35 60q-40 24 -105 18q-71 -3 -145 -41q-82 -42 -127 -104q-50 -73 -33 -156q-3 -11 -22 -32.5t-43 -39.5q-72 -47 -117 27zM342 119q0 49 33.5 84t79.5 35t79 -35t33 -84 q0 -50 -33 -84.5t-79 -34.5t-79.5 34.5t-33.5 84.5z" />
<glyph unicode="@" horiz-adv-x="1857" d="M135.5 395.5q-14.5 167.5 30.5 352.5q50 194 162 364q68 101 149 174q103 92 211 137q131 57 268 60q141 3 283 -51q140 -55 253.5 -161t180.5 -249q70 -142 76 -313q9 -158 -29 -324q-18 -82 -53 -166q-19 -39 -27.5 -57t-31 -51.5t-47.5 -59.5q-25 -25 -52 -39 q-31 -19 -84 -22q-47 0 -90 24q-15 9 -53 47q-53 65 -88 185q-7 30 0 78l-29 -33q-72 -81 -182 -158q-68 -46 -115 -72q-1 0 -28.5 -13t-44.5 -19q-68 -19 -105 -17q-36 3 -74 23q-34 19 -59 55q-29 46 -33 113q-2 77 27 174q53 159 156 307q129 180 290 270q53 29 111 43 q30 6 42.5 8t42 1.5t60.5 -7.5q55 -11 90 -61q27 -36 31 -88q2 -62 -20 -131q0 -2 4 -6q1 -1 6 -11q3 -11 4 -12q0 -15 2 -52.5t2 -62.5q0 -116 18 -257q20 -163 53 -146q2 2 5 4q18 18 35 49q36 54 57 123q45 143 51 293q3 175 -49 301q-59 147 -190 254.5t-291 134.5 q-174 26 -320 -41q-140 -61 -252 -200q-99 -126 -154 -279.5t-61 -308.5q-6 -153 42 -288.5t143 -225.5q163 -158 442 -195q179 -24 397 0q7 1 18 2t42 3t47 -1q24 -2 35 -9.5t2 -25.5t-47 -45q-4 -1 -82.5 -13t-112 -15.5t-108 -8t-146.5 -2.5q-199 12 -356 76 q-112 45 -203 123q-105 90 -168 217q-69 134 -83.5 301.5zM675 207.5q2 -24.5 11 -38.5t32.5 -12.5t61.5 21.5q18 8 84 49q174 111 279 258q55 74 82 150q4 8 8 24q-65 10 -59 111q10 18 20 53q0 2 0.5 5.5t0.5 5.5t-1 4.5t-4 4t-8 1.5q-23 0 -70 -15q-135 -45 -272 -221 q-126 -165 -162 -344q-5 -32 -3 -56.5z" />
<glyph unicode="A" horiz-adv-x="1054" d="M-20 414q29 52 75 98q1 14 29 324q29 281 61 421q16 58 35 109q12 28 22 45.5t29 37t43 28.5q29 7 53.5 2t41.5 -17q30 -20 49 -39q20 -20 74 -88q87 -129 200 -364l43 -94l160 51q15 -2 38.5 -35t33.5 -71q3 -13 3 -26q0 -24 -12 -44q-68 -6 -157 -25l43 -100 q120 -289 205 -533q1 -3 2.5 -8t5 -19t4 -26t-2.5 -23.5t-10.5 -17t-24.5 -2t-42 17.5q-23 52 -120.5 258.5t-192.5 413.5q-119 -40 -236 -94q-100 -47 -215 -115q-8 -245 -10 -395q-5 -26 -30 -49.5t-55 -33t-60 10t-44 72.5l25 274q-4 0 -8 2q-36 18 -55 54zM225 647 q155 97 377 180q-97 198 -100 203q-59 109 -111 189q-33 51 -65 86l-7 6q-12 -29 -12 -31q-10 -33 -31 -131q-18 -106 -36 -313q-8 -86 -15 -189z" />
<glyph unicode="B" horiz-adv-x="1183" d="M-100 1204q-3 9 -3 18q0 31 33 66q18 6 66 18.5t88 28.5q0 18 -1 39.5t-1 42.5q8 17 44 35q31 15 68 15h12q44 -3 64 -40q-2 -9 -4.5 -13.5t-3.5 -16.5q29 10 129 41q162 46 279 46q16 0 30 -1q105 -8 166 -66q69 -64 72 -160v-10q0 -90 -53 -166q-12 -17 -26 -30.5 t-33 -29t-29 -24.5h2q26 2 50 2q79 0 138 -18q58 -21 92 -55q37 -35 58 -88q13 -34 16 -50q6 -31 0 -59q-3 -29 -31 -96q-27 -51 -66 -102.5t-67.5 -82t-79.5 -81.5q-114 -111 -239 -197q-249 -173 -435 -173q-14 0 -28 1q-41 2 -66 22q-18 15 -12 31q5 16 45 41 q20 -2 36 -2t30 2q-2 9 -19 69.5t-28 107.5t-28.5 146t-31.5 214q-6 -4 -18 -8q-5 -1 -10 -1q-25 0 -59 20q-40 24 -51 64q-2 7 -2 14q0 34 44 73q29 7 76 22q-13 171 -21 342q-17 -7 -78 -33q-4 -1 -9 -1q-23 1 -55 21q-38 24 -50 62zM250 1223q-1 -30 -1 -61 q0 -136 11 -300l217 68q38 23 90 63q13 9 44 30.5t48.5 34.5t42 35.5t43.5 45.5t33 51q13 26 13 58q0 38 -27 61q-25 25 -91 25q-13 0 -28 -1q-90 -6 -199 -41q-66 -19 -196 -69zM274 678q10 -114 32 -305t26 -254q9 3 35 16q146 70 311 211q124 104 203 197q60 70 96 133 q22 37 29 67l2 15v2l-2 2v4q-3 9 -9 18q-11 28 -32 43q-29 16 -68 19q-15 1 -32 1q-75 0 -191 -28q-175 -47 -303 -96z" />
<glyph unicode="C" horiz-adv-x="942" d="M23 537q-6 61 -6 123q0 72 8 145q17 166 79 297q78 178 230 276q153 99 352 99h27q26 -5 50 -32t28 -59q2 -10 2 -18q0 -58 -80 -80q-41 6 -80 6q-96 0 -176 -37q-136 -62 -207 -210q-71 -141 -82 -326q-2 -37 -2 -73q0 -144 35 -271q24 -95 57 -154q40 -76 86 -82 q5 -1 10 0q40 0 97 41q41 32 104 99q44 51 89 112t69 96.5t66.5 101.5t49.5 77q3 5 8 11.5t18.5 19t25.5 15.5t25.5 -10.5t21.5 -48.5q-12 -21 -45 -87t-60 -115q-48 -86 -94 -156q-89 -128 -164 -199q-28 -23 -43.5 -35.5t-49 -30t-69.5 -26.5q-27 -7 -55 -7q-39 0 -78 15 q-54 23 -102 82q-56 73 -98 207q-35 110 -47 234z" />
<glyph unicode="D" horiz-adv-x="1085" d="M-64 1080q-2 7 -2 16q0 30 23 75q22 19 37 31t31 23.5t24.5 17.5t32.5 22t41 27q5 121 6 142q7 18 45 32q27 11 58 10q12 0 24 -2q44 -6 61 -42q-2 -10 -6.5 -17t-5.5 -16q93 49 197 69q53 10 103 9q59 0 112 -13q99 -25 188 -110q36 -33 74 -78q46 -77 55 -98 q33 -80 33 -171q0 -22 -2 -46q-8 -99 -43.5 -184.5t-95.5 -184.5q-95 -152 -226 -283q-253 -250 -467 -305q-4 -1 -11.5 -2.5t-27.5 -3.5t-32 4q-27 7 -27 25q0 13 31 55q22 4 31 8q-1 9 -19.5 97t-31 170.5t-22.5 274.5q-8 148 -8 324q0 53 1 109l-21 -23q-21 -14 -55 -16 h-10q-29 0 -54 10q-33 12 -41 44zM266 898v-81q0 -118 4 -213q4 -127 10 -270.5t7 -202.5q22 13 88 59q171 134 311 308q97 124 135 190q21 37 39 76q60 130 60 234q0 67 -25 124q-17 40 -55 83.5t-82 74.5q-69 43 -150 43q-31 0 -65 -6q-109 -21 -264 -119 q-11 -132 -13 -300z" />
<glyph unicode="E" horiz-adv-x="1009" d="M-14 1331v6q0 37 22 60q71 -15 125 -17q0 39 2 62q8 18 46 34q27 11 57 11q12 1 25 -1q44 -6 61 -46l-13 -58q147 9 379.5 51t249.5 44q6 1 12 -1q6 -4 18 -22q5 -8 5 -21q0 -17 -8 -44q-8 -3 -66.5 -29t-116 -46.5t-191.5 -46.5t-304 -42q-17 -169 -17 -373 q99 15 216.5 47t225 66.5t140.5 42.5l12 -1q24 -8 24 -64q0 -10 -1 -21q-2 -1 -56 -36t-104 -60t-173.5 -65t-283.5 -71q2 -102 9 -268.5t8 -210.5q122 41 255 106.5t251 130.5t161 84q5 3 13 4.5t22 -17t17 -62.5q-12 -9 -42.5 -39.5t-71.5 -63t-112.5 -79t-198 -108.5 t-294.5 -130q-9 -30 -47 -23l-84 -30q-15 2 -40.5 34.5t-39.5 71.5q-6 17 -5 33q0 20 9 39q36 3 92 16q-40 205 -49 488q-16 -4 -23 -4q-12 4 -30 41t-24 77q-2 11 -1 22q0 27 12 46q4 -1 64 -6q-1 42 -1 93q0 117 5 277l-98 -8q-13 8 -27 47t-16 80z" />
<glyph unicode="F" horiz-adv-x="993" d="M8 1361q0 37 23 60q65 -13 125 -16q0 5 1 15.5t1 15.5q8 19 46 35q27 11 56 11q12 0 25 -2q44 -6 61 -44l-6 -29q145 9 375 49.5t246 42.5q5 1 11 -1q6 -3 18 -21q5 -8 5 -21q0 -17 -8 -43q-6 -2 -66 -28t-116.5 -45.5t-189 -45t-300.5 -41.5q-20 -181 -20 -426 q134 19 355.5 84.5t223.5 65.5q1 -3 10.5 0t18.5 -18q7 -16 7 -44q0 -9 -1 -20q-8 -4 -41 -26.5t-71.5 -42.5t-102.5 -47.5t-167 -55.5t-232 -53q2 -136 11 -353t9 -280v-8t-4.5 -15.5t-12.5 -15.5t-26.5 -3.5t-44.5 15.5q-1 6 -22 95.5t-36.5 219t-21.5 320.5 q-16 -4 -22 -4q-12 4 -29 40q-18 35 -24 75q-2 11 -2 21q0 26 12 46q5 -1 63 -6v69q0 133 5 355l-99 -6q-13 7 -27 44q-16 42 -16 82z" />
<glyph unicode="G" horiz-adv-x="925" d="M20 535q-5 57 -5 116q0 74 8 152q18 166 73 295q78 177 223 276q76 55 175 82q89 23 181 23h21q24 -5 48 -32t28 -56q6 -32 -13 -58t-65 -39q-39 6 -76 6q-97 0 -178 -40q-60 -29 -112 -85.5t-86 -127.5q-47 -96 -66 -213q-15 -89 -15 -177q0 -27 1 -54q6 -115 33 -228 q24 -90 55 -154q33 -65 80 -76q10 -2 19 -2q41 0 89 37q56 44 105 99q103 123 209 294q-78 -14 -168.5 -43t-173 -61t-107.5 -39q-4 -1 -9.5 0t-15 21t-10.5 61q1 0 48.5 37t95.5 64t174 69t293 72q16 -9 22 -76q1 -16 1 -30q0 -46 -15 -73q-10 1 -9 4q-6 5 -8 5l-65 -131 q-7 -13 -24.5 -43.5t-33.5 -58t-32 -52.5q-89 -128 -160 -199q-117 -102 -217 -102q-41 0 -80 18q-53 22 -100 84q-45 66 -92 205q-36 125 -46 230z" />
<glyph unicode="H" horiz-adv-x="968" d="M-5 696q-1 7 -1 15q0 30 18 51l62 -6q-25 324 -33 671q6 19 43 37q32 16 70 16h10q44 -2 63 -40q-21 -135 -21 -323q0 -158 15 -355q181 17 508 102q-20 320 -24 566q6 19 43 37q32 15 68 15h12q44 -3 63 -40q-20 -127 -20 -314q0 -103 6 -225l61 15l14 -1q22 -8 22 -50 q0 -14 -3 -33q-12 -5 -39.5 -21.5t-46.5 -26.5q11 -172 38 -431.5t31 -311.5q-1 0 0.5 -7.5t-3.5 -16.5t-12 -16t-26 -5.5t-45 14.5q-3 15 -21.5 81t-34 130t-36 200t-35.5 302q-191 -70 -508 -121q10 -110 32 -303.5t26 -257.5q-1 0 0 -7.5t-3.5 -16.5t-11.5 -16t-26 -5.5 t-45 14.5q-2 10 -26 88t-47.5 195.5t-41.5 286.5l-41 -4q-13 5 -31 41.5t-23 76.5z" />
<glyph unicode="I" horiz-adv-x="559" d="M16 1400q-1 13 -1 26q0 51 12 77q43 -33 107 -43q43 -7 80 -7q18 0 34 2q51 5 110.5 13.5t77.5 8.5l6 -3q7 -9 7 -33q0 -20 -5 -52q-5 -3 -22 -16t-42 -27t-58 -23q-13 -105 -15 -225v-42q-1 -102 7 -224q10 -146 17.5 -232.5t26 -251.5t21.5 -192q27 3 78.5 10.5 t68.5 7.5l6 -3q8 -9 8 -35q0 -20 -5 -50q-4 -2 -25 -18t-50.5 -30.5t-68.5 -23.5q-1 -9 -4.5 -15.5t-12 -13t-26.5 -4t-43 14.5q0 1 -1 3t-1 3q-22 -1 -43 -1q-74 0 -143 11q-7 15 -11 86q-1 13 -1 25q0 52 12 78q50 -40 141 -47q-99 354 -117 1149q-47 3 -114 12 q-7 15 -11 85z" />
<glyph unicode="J" horiz-adv-x="454" d="M-4 31q-7 7 -7 16q0 22 40 55q30 -7 60 -7q37 0 73 11q27 9 43.5 23.5t24 36t9.5 42t1 52.5v13q0 118 -33 442q-3 34 -24.5 239t-32.5 351q-66 0 -105 4q-9 13 -17 83q-2 28 -2 49q0 34 7 54q42 -27 95 -35q31 -4 57 -4q19 0 35 2q37 6 105 20.5t97 18.5l6 -3 q10 -10 10 -47q0 -15 -2 -36v-2q-6 -3 -17.5 -17.5t-34.5 -32t-60 -30.5q-2 -20 -2 -56v-52q3 -76 4.5 -113.5t7.5 -118.5t9.5 -122.5t11.5 -126.5t12 -130q10 -195 10 -227q2 -32 2 -63q0 -81 -12 -154q-15 -82 -66 -117q-43 -37 -102 -51q-30 -5 -61 -5q-53 0 -107 15 q-25 7 -35 23z" />
<glyph unicode="K" horiz-adv-x="1167" d="M29 1430q6 19 43 37q32 15 68 15h12q44 -3 63 -40q-21 -130 -21 -324q0 -142 11 -317q59 26 123 65q129 77 268 193q136 119 211 215q69 85 121 174l2 2q1 2 4.5 5t8 6t12 3t16 -3.5t20 -13.5t23.5 -26l-14 -43q-13 -42 -22.5 -65t-38 -73t-67.5 -101 q-101 -132 -251 -250q-119 -99 -306 -213q139 -160 390 -328q145 -96 262 -162q143 -77 192 -96q0 -1 2 -2l4 -2t3.5 -4t0.5 -6q0 -2 -3 -11t-3 -16q0 -33 -18 -49q-1 0 -17.5 3t-20 3.5t-21 4t-25 6t-26 7t-30.5 9t-32.5 11.5t-38 14.5t-40.5 18t-46 21.5q-150 73 -301 178 q-161 111 -318 250q8 -77 20 -183.5t19.5 -180t10.5 -119.5q-1 0 0 -7.5t-3.5 -16.5t-11.5 -16t-26 -5.5t-45 14.5q-3 13 -28 96t-50.5 214.5t-44.5 322.5q-25 32 -25 61q0 18 10 35q4 0 6 2q-23 285 -32 687z" />
<glyph unicode="L" horiz-adv-x="1024" d="M44 90q-6 17 -6 32q0 20 9 38q39 3 94 16q-53 278 -53 757q0 230 12 507q8 18 46 34q27 11 57 10q12 0 25 -2q44 -6 61 -44q-23 -101 -35 -220q-12 -120 -14 -284q-1 -123 -1 -197q-1 -25 -1 -44q0 -77 8 -277.5t8 -206.5q121 40 265.5 108t274.5 136.5t173 87.5 q2 -3 12 2.5t23 -13.5t16 -63q-10 -7 -47 -40t-83.5 -66.5t-125.5 -82t-210 -110.5t-298 -129q-8 -29 -47 -21q-8 -3 -37.5 -13t-46.5 -17q-15 2 -40 33t-39 69z" />
<glyph unicode="M" horiz-adv-x="1325" d="M0 1395v9q0 73 63 85q6 -3 28.5 -12.5t35.5 -14.5q28 8 50 8q51 0 73 -40q-4 -20 -4 -29q95 -59 176 -146q137 -151 219 -395q26 -81 29 -92q11 95 28 170q39 185 105 315q22 39 35 60t44 55t68 59q51 30 94 35q14 20 46 32q20 8 41 7q14 0 28 -3q37 -8 55 -44 q-1 -7 3.5 -16.5t3.5 -16.5l18 -12q11 -14 8 -44t-20 -56l-19 -23q-3 -69 -3 -146q0 -136 10 -297q16 -251 41.5 -502t29.5 -310q-1 0 0.5 -7.5t-3.5 -16.5t-12.5 -16t-26.5 -5.5t-46 14.5l-30 115q-29 115 -48.5 220t-44 365t-33.5 592q-49 -21 -98 -104 q-78 -138 -121 -385q-14 -85 -24.5 -185t-14 -158t-8.5 -160t-6 -118q0 -2 1 -7t1 -7q0 -17 -4 -29v-2v-8t-5.5 -15t-13.5 -15t-26 -1.5t-43 19.5q-3 31 -12 82q-5 20 -32 121t-48 190q-2 6 -16 63t-21 80.5t-21.5 73.5t-31 93.5t-35.5 88.5q-64 143 -150 234q-34 34 -84 71 q-2 -58 -2 -120q1 -138 11 -301q16 -236 40.5 -470t28.5 -290q-1 0 0 -7.5t-3.5 -16t-11.5 -15.5t-26 -5.5t-45 13.5q-3 12 -23.5 83t-37 151t-37.5 217t-36.5 353t-23.5 488q-6 2 -18.5 6t-15.5 5q-10 8 -19 34.5t-10 55.5z" />
<glyph unicode="N" horiz-adv-x="1042" d="M33 1378q4 11 20 21q-7 24 -2 41q4 16 24 30t54 15q64 -21 119 -80q29 -33 67 -96q31 -49 103 -203q22 -48 59.5 -130t68.5 -150t58 -130q111 -265 180 -395q39 -77 70 -121q0 20 -1 89.5t-1 121.5l-6 402q0 15 -2 115.5t-4 160.5q-1 23 -11 162q-8 107 -20 155 q1 5 10 14t25.5 23.5t27.5 26.5q31 31 52 31q39 0 63 -35q6 -51 6 -176v-187q0 -64 1 -195.5t1 -197.5q0 -208 -12 -375q-14 -177 -47 -266q8 -24 -6 -47q-8 -4 -28.5 -1.5t-27.5 9.5q-2 0 -8 6l-8 7q-38 23 -72 57q-80 86 -159 229q-61 104 -207 436q-23 51 -137 285 q-58 113 -82 150q-3 -63 -3 -132q0 -130 10 -278q15 -228 39 -448t27 -281q-1 0 0.5 -7t-3.5 -15.5t-12 -15t-26 -5t-45 13.5l-30 115q-31 115 -51.5 224.5t-44 387.5t-29.5 639z" />
<glyph unicode="O" horiz-adv-x="1200" d="M57 1042q28 123 97 238q86 132 208 190q18 8 41 8q19 0 41 -5q37 -12 58 -43q16 -25 2 -60q-12 -25 -55 -61q-67 -22 -126.5 -92t-91.5 -164q-42 -114 -42 -240q0 -86 20 -178q24 -114 79 -216.5t138 -174.5q89 -79 195 -94q19 -2 37 -3q87 0 163 48q85 56 140 161 q48 95 63 203q8 60 8 118q0 143 -47 281q-57 171 -176 287q-100 97 -211 111q-34 4 -61 12q-25 9 -25 29t35 49q16 1 32 1q145 0 277 -97q101 -74 174 -189q92 -149 125 -327q15 -88 15 -173q0 -153 -50 -294q-63 -164 -170 -254q-65 -59 -159 -90q-67 -20 -134 -20 q-32 0 -65 5q-186 28 -344 203q-132 160 -185 375q-31 122 -31 242q0 108 25 214z" />
<glyph unicode="P" horiz-adv-x="1185" d="M-28 1133q-2 7 -3 16q0 33 41 74q98 36 172 67q0 21 -1 66t-1 69q8 20 45 39q31 16 67 16h14q44 -4 63 -42l-11 -80q112 42 244 80q93 26 176 37q44 4 82 4q63 0 111 -11q59 -18 96 -47q45 -36 70 -84q23 -55 28 -102q1 -9 1 -19q0 -38 -15 -88q-28 -75 -100 -159 q-46 -53 -125 -121q-89 -73 -258 -182q-140 -87 -283 -158q8 -81 26 -244.5t21 -220.5q-1 0 0.5 -7.5t-3.5 -16.5t-12 -16t-26 -5.5t-45 14.5q-4 19 -22 77.5t-38.5 146.5t-37.5 208q0 -1 -12 -5.5t-27 -7t-28.5 2t-16 22t9.5 52.5q15 7 59 33q-26 233 -43 561l-92 -45 q-7 -2 -15 -2q-25 -1 -57 17q-42 22 -54 61zM348 1174v-46q0 -219 25 -497q170 109 315 213q145 105 223 188q67 67 93 125q14 28 14 57q0 17 -4 27q-3 18 -13 31q-16 29 -38 39q-27 15 -76 18h-14q-92 0 -216 -37q-157 -50 -309 -118z" />
<glyph unicode="Q" horiz-adv-x="1212" d="M57 1044q29 128 97 238q88 136 211 195q16 7 39 7q19 0 42 -5q39 -12 60 -43q15 -27 2 -60q-12 -24 -57 -63q-68 -25 -128 -94t-92 -162q-39 -116 -39 -241q0 -87 19 -179q25 -115 79.5 -218.5t137.5 -176.5q99 -81 197 -95q21 -3 43 -3q71 0 139 38q-48 45 -119 133 q0 20 49.5 75.5t83.5 55.5q23 -74 99 -163q27 35 47 73q46 88 63 203q8 59 8 118q0 141 -47 281q-63 182 -176 289q-104 101 -213 115q-34 4 -61 12q-23 8 -25 25q-1 2 -1 5q0 20 36 48q16 1 32 1q145 0 279 -97q101 -77 174 -193q94 -153 127 -329q15 -88 15 -173 q0 -153 -50 -294q-49 -123 -104 -187q45 -41 117.5 -99.5t89.5 -74.5q6 -5 6 -11q0 -21 -61 -58q-3 1 -46 15.5t-95.5 44t-116.5 81.5q-53 -41 -121 -60q-67 -19 -134 -19q-33 0 -67 5q-98 13 -186.5 68t-159.5 137q-134 161 -187 379q-30 122 -30 242q0 108 24 214z" />
<glyph unicode="R" horiz-adv-x="1105" d="M-42 1162q-2 8 -3 16q0 33 41 75q24 9 58.5 26.5t54.5 25.5q-1 19 -2 40.5t-2 40t-1 44.5q8 19 45 38q31 16 67 16h14q44 -4 63 -42q-2 -15 -7 -33t-7 -41q24 9 247 74q122 30 176 37q47 5 88 5q60 0 105 -11q57 -17 96 -48q45 -36 70 -84q24 -58 29 -102q1 -8 1 -18 q0 -37 -16 -88q-28 -77 -100 -160q-46 -53 -125 -121q-89 -73 -258 -182q-29 -18 -80 -45t-59 -31q106 -109 307 -256q48 -36 128 -93.5t130 -95t80 -65.5q10 -9 10 -25t-12 -26q-5 -3 -22.5 -10.5t-26.5 -12.5q-5 3 -74 34t-137 71q-102 57 -222 145q-38 28 -138.5 105.5 t-164.5 123.5q8 -85 25 -237.5t20 -206.5q-1 0 0.5 -7.5t-3.5 -16.5t-12 -16t-26 -5.5t-45 14.5q-3 16 -22 76.5t-39 150.5t-37 214q0 -1 -12 -5.5t-27 -7.5t-28.5 1.5t-16 22t9.5 52.5q52 29 62 35q-31 276 -43 559q-9 -4 -16.5 -12.5t-16.5 -12.5q-8 -2 -17 -2 q-25 1 -55 17q-42 22 -54 60zM272 1186v-28q0 -194 25 -517q17 11 62.5 39.5t76.5 48t80.5 53t95.5 66.5q148 108 224 186q66 70 92 125q14 32 14 60q0 16 -4 26q-4 20 -12 31q-16 29 -39 39q-27 15 -76 18h-13q-91 0 -216 -37q-208 -65 -310 -110z" />
<glyph unicode="S" horiz-adv-x="1210" d="M23 749q1 38 8 80q19 112 71 205q52 101 136.5 186.5t193.5 143.5q206 114 494 117q33 -5 66 -29t42 -53q4 -12 4 -23q0 -57 -106 -80q-37 2 -73 2q-166 0 -302 -53q-202 -81 -309 -266q-35 -56 -61 -139q-15 -48 -15 -75q0 -38 29 -38h4q12 1 28 8q29 12 137.5 59 t180 75.5t141.5 52.5q166 56 244 65q42 3 81 3h2q37 0 75 -18t61 -54q7 -16 10.5 -27.5t6.5 -26t4 -20.5q4 -28 4 -56q0 -95 -47 -188q-41 -88 -134 -184q-133 -130 -305 -236q-52 -33 -136.5 -82.5t-111.5 -66.5q-36 -23 -61 -29q-20 -3 -33 8q-10 10 -10 28q0 14 6 34 q37 29 252 176q96 72 186 147q138 116 201 223q46 77 49 154q2 20 -1 34t-7 23t-15 13.5t-19.5 6t-25.5 -0.5t-27.5 -4l-31.5 -6q-73 -19 -123 -35q-57 -20 -272 -107l-149 -63q-67 -29 -125 -51q-60 -22 -97 -22q-14 0 -24 3q-37 12 -60 41t-30 68q-6 34 -6 67v10z" />
<glyph unicode="T" horiz-adv-x="1107" d="M0 1338q0 37 25 61q83 -13 183 -13t216 13q0 6 1 16.5t1 16.5q6 18 44 34q30 12 63 12h19q44 -4 62 -42q-2 -4 -2 -11q82 13 231.5 40t196.5 32h5.5t12 -2.5t12 -11t6 -25.5t-6.5 -45q-10 -4 -55.5 -24t-88 -36t-134 -39.5t-203.5 -41.5q-14 -121 -14 -293v-44 q2 -201 10 -351t17.5 -314.5t10.5 -228.5v-7.5t-4 -15t-12 -16t-26 -3.5t-44 15q-3 14 -19 81.5t-29.5 147.5t-28.5 210.5t-23 335.5q-5 146 -5 317q0 68 1 141q-204 -24 -375 -33q-13 4 -29 42q-18 42 -18 82z" />
<glyph unicode="U" horiz-adv-x="1038" d="M43 1391q5 22 23.5 43.5t42.5 33.5t48.5 12.5t45 -24.5t28.5 -74q-27 -185 -27 -364q0 -194 32 -381q40 -226 131 -367q61 -92 129 -114q18 -6 36 -6q53 0 109 49q62 53 111 147q37 66 75 174q51 152 54 342v19q0 248 -50 508l-3 15q-2 14 -1.5 31t5.5 31t24 13t51 -23 q37 -130 60 -237q45 -212 45 -410q0 -46 -2 -92q-6 -81 -29 -176q-20 -86 -72 -203q-58 -131 -135 -215q-56 -63 -131 -96q-43 -21 -95 -25q-9 -1 -19 -1l-85 15q-82 28 -155 109q-52 57 -94 143q-69 139 -109 324q-50 251 -50 559q0 116 7 240z" />
<glyph unicode="V" horiz-adv-x="1089" d="M33 1413q4 19 39 42.5t75 28.5q5 1 10 1q34 0 60 -31q0 -69 9 -152.5t20.5 -156t34 -173t37.5 -164.5t44.5 -170.5t42.5 -151.5t44 -148t36 -121q6 29 23.5 87t28.5 99q95 367 348 1059q14 17 55 22q8 1 17 1q31 1 63 -15q40 -20 43 -65q-145 -261 -295 -725 q-25 -81 -69.5 -207.5t-55.5 -159.5q-69 -209 -108 -286q-9 -21 -29 -31q-19 -11 -33 0q-7 7 -29 49q-12 32 -44.5 94t-68 144t-82 216t-103 369.5t-113.5 544.5z" />
<glyph unicode="W" horiz-adv-x="1634" d="M8 1411q3 20 37.5 44t74.5 29q5 1 9 1q34 0 61 -31q4 -154 52.5 -389.5t85 -364.5t113.5 -382q9 -33 14 -48q27 125 28 129q45 206 215 758q-15 87 -41 260q4 20 40 43q37 22 77 26h7q36 0 63 -32v-4q28 2 53 -3t45.5 -22.5t24.5 -46.5q-51 -97 -105 -237 q12 -93 28.5 -188t43.5 -209t40 -168t48.5 -187t38.5 -143q16 77 41 170q89 341 350 1048q10 10 37.5 15t58 1.5t55 -23t27.5 -52.5q-141 -248 -299 -725q-86 -270 -121 -375q-71 -207 -106 -276q-9 -19 -29 -29q-19 -11 -33 0q-4 5 -13 22t-15 27q0 1 1 3t1 3 q-2 4 -38.5 85t-62 147.5t-70 225t-85.5 355.5q-4 -13 -26.5 -87.5t-33.5 -114.5q-21 -70 -56 -196t-50 -179q-60 -204 -96 -277q-9 -20 -29 -30q-21 -11 -31 2q-6 4 -15 21.5t-15 25.5q2 5 5 17.5t5 17.5q-2 5 -24 46.5t-32 62.5t-35 75.5t-42.5 104.5t-45.5 128t-52.5 168 t-54.5 203t-61 254t-63 301z" />
<glyph unicode="X" horiz-adv-x="1185" d="M6 1372q-5 20 10 48.5t43 41.5q19 11 58 15q29 3 53 -13q18 -64 84 -170q62 -97 129 -184q87 -117 149 -188q25 42 75.5 118.5t70.5 108.5q25 40 59.5 84.5t59.5 73.5t75.5 87t75.5 87q15 12 43.5 6t56.5 -19q28 -14 44 -42q9 -17 9 -35q0 -13 -5 -27 q-268 -224 -461 -565q22 -28 53 -62q32 -38 95.5 -112.5t109.5 -129.5t84 -102q156 -197 199 -319l2 -8q1 -9 2 -21t-4 -25q-6 -22 -25 -22q-6 1 -13.5 4t-18.5 8.5t-21 9.5q-11 37 -80 119q-19 22 -46 51.5t-69 75t-72 78.5q-91 97 -272 313q-68 -130 -172 -342t-141 -278 q1 0 -4 -8t-13.5 -15t-20 -10t-26 9t-28.5 40q10 22 49 137t94 248q77 181 158 340q-129 154 -189 228q-88 109 -127 163q-88 119 -133 203z" />
<glyph unicode="Y" horiz-adv-x="1159" d="M8 1370q-1 11 14.5 32.5t39 41.5t51.5 30t53 -1q21 -71 68.5 -159.5t81 -139.5t112.5 -166l158 -224q45 -63 49 -69q3 10 11.5 41.5t19 64.5t24.5 70q84 222 295 590q12 8 51 0.5t76 -30t41 -52.5q-72 -75 -129.5 -165t-122.5 -222l-108 -228q-3 -7 -22 -41t-31.5 -60.5 t-8.5 -29.5q-26 -67 -29 -167v-34q0 -79 10 -144q11 -79 27.5 -171t18.5 -121q1 -4 -2 -8t-22 -12q-8 -3 -22 -3q-17 0 -42 5q-3 7 -22 39.5t-34.5 72.5t-33 107t-27.5 175q-8 90 -8 200v45l2 2q-41 39 -105 111q-64 74 -115 138t-139.5 194t-179.5 288z" />
<glyph unicode="Z" horiz-adv-x="1071" d="M20.5 1262q-8.5 22 10 49t65.5 51l369 70l203 36q3 0 44.5 6t65.5 7q73 0 95 -38q9 -16 9 -38q0 -28 -16 -66q-116 -253 -204 -413q-107 -188 -211 -383q-140 -250 -201 -371q-8 -12 -10 -18q25 6 70.5 20.5t66.5 20.5q442 137 575 165l6 1q5 1 12.5 2t17.5 1.5t22 0 t22 -2.5q14 -3 22.5 -7t9 -10.5t0 -11.5t-8 -14t-11.5 -13.5t-14 -14.5l-2 -2l-2 -2l-2 -2q-24 -5 -55 -14.5t-55 -18t-71.5 -25.5t-78.5 -28q-25 -9 -92 -34t-114.5 -42.5t-125.5 -45t-156 -52.5q-4 -1 -34 -9t-45.5 -10.5t-41 -4.5t-43.5 6t-30 24q-17 21 -17 50 q0 21 9 46l22 49q5 10 38 80t54 109l240 444l141 262q21 39 62.5 129.5t52.5 112.5q-22 -4 -135 -29q-264 -61 -404 -98q-22 -2 -49 7.5t-47 28t-28.5 40.5z" />
<glyph unicode="[" horiz-adv-x="806" d="M41 1421q9 34 50.5 59t72.5 15q21 -3 39 -18q49 -18 116 -21t119.5 3t110 13t78.5 7l6 -3q14 -16 2 -85q-7 -3 -24 -14t-34 -20.5t-50.5 -22.5t-72 -19t-99 -10t-132.5 4q-3 -195 14.5 -456.5t38 -444t55 -455.5t42.5 -344q61 -35 147 -39t181 9t110 13q-2 -66 -59 -109 t-170 -54.5t-283 28.5q-3 15 -40.5 163t-67.5 304t-73.5 557t-76.5 940z" />
<glyph unicode="\" horiz-adv-x="919" d="M53 1384q0 19 28 49.5t66 45t76 -12.5q46 -187 173.5 -464t297.5 -595.5t183 -345.5q1 -3 3 -7t2.5 -15t-4.5 -19.5t-22.5 -14.5t-46.5 -5q-5 8 -50 70.5t-81.5 116t-108.5 172.5t-142 249t-170 335t-204 441z" />
<glyph unicode="]" horiz-adv-x="772" d="M33 1393q6 3 21 14.5t30 22t45.5 22.5t66.5 18.5t93 6t125 -10.5q24 21 53 31.5t60.5 -1.5t47.5 -52q-17 -273 12 -668t82.5 -840t59.5 -514q0 -2 0.5 -6t0 -13.5t-2.5 -17.5t-8 -15.5t-14.5 -10t-24 2t-35.5 17.5l-2 5q-58 31 -138 33t-164.5 -11.5t-100.5 -13.5l-6 3 q-13 16 -3 83v2q5 3 20.5 14t31 20.5t45.5 22.5t65 19.5t89.5 10.5t119.5 -3q-35 155 -63.5 316t-70.5 542t-73 874q-51 28 -121.5 30t-145 -9.5t-87.5 -11.5l-5 3q-12 16 -3 85z" />
<glyph unicode="^" horiz-adv-x="1157" d="M96 860q65 66 106 115t113 145q24 32 71 97.5t71 97.5q56 78 75 100l25 27q17 21 37 23.5t40.5 -13t33.5 -28.5t30 -35q69 -99 240 -385q31 -52 47.5 -83t32 -61.5t26.5 -52.5q2 -3 4.5 -8t4.5 -18t-2.5 -22t-21.5 -15.5t-48 -4.5q-15 21 -39 47t-64 77.5t-100 142.5 q-44 64 -116 178l-58 82l-51 -76q-37 -49 -107 -150q-24 -36 -58.5 -88t-64 -95t-71.5 -101q-14 -12 -43 -8.5t-57.5 13t-46.5 36.5t-9 63z" />
<glyph unicode="_" horiz-adv-x="1140" d="M8 -309q4 44 33 61q109 -32 274 -42.5t299 -5.5t289 13.5t203 8.5h5.5t11 -4.5t11.5 -12.5t2 -26.5t-12 -44.5q-15 -3 -57.5 -14.5t-85.5 -22.5t-130.5 -23t-189.5 -19t-265 -6.5t-355 11.5q-14 8 -25.5 45.5t-7.5 81.5z" />
<glyph unicode="`" horiz-adv-x="503" d="M72 1401q6 19 71.5 54.5t98.5 23.5q-1 -73 22 -152.5t49 -131t65 -119.5t50 -91q-3 -2 0.5 -9t-16 -19t-60.5 -19q-8 8 -28.5 19t-42 31t-52 62t-71 131.5t-86.5 219.5z" />
<glyph unicode="a" d="M27 197v10q0 68 26 170q53 167 158 319q131 188 291 279q60 33 110 45q3 1 8 2q42 8 79 8q30 0 56 -5l5 -1q54 -14 90 -66q27 -39 31 -92q1 -7 1 -15q0 -50 -22 -120q0 -1 2 -4t4.5 -6.5t3.5 -5.5q6 -14 8.5 -31.5t2.5 -30t-1 -36t-1 -35.5q0 -224 10 -314q5 -56 20 -118 q8 -26 43 -78q0 -1 3.5 -5t6 -9.5t3.5 -10.5q0 -33 -35 -51q-55 8 -96 82q-36 64 -52 143q-16 69 -26 172q-34 -47 -84 -104q-81 -90 -185 -164q-67 -48 -114 -74q-37 -22 -74 -35q-58 -16 -98 -16h-8q-36 3 -74 23q-33 19 -60 57q-28 46 -32 117zM180 176q2 -6 10 -22 q8 -4 19 -4h6q27 0 70 22q20 8 84 51q172 112 280 266q71 101 90 181q-60 12 -60 98q0 8 1 16q11 22 20 58q0 4 1 10l1 6q-2 2 -14 2q-28 0 -72 -14q-138 -49 -272 -228q-129 -180 -164 -358q-4 -28 -4 -49t4 -35z" />
<glyph unicode="b" horiz-adv-x="917" d="M-30 658q-12 15 -11 37q0 23 14 53l133 94q-22 160 -57 577q4 13 27 29t52.5 26t60.5 3.5t47 -33.5q-6 -76 -6 -164q0 -157 20 -352q97 56 201 88q63 17 119 17q23 0 46 -3q93 -10 158 -78q58 -58 88 -139q17 -41 27 -74q12 -44 12 -84v-15q0 -69 -24 -128 q-27 -65 -78 -139q-69 -98 -185 -199q-183 -155 -346 -221q-3 -1 -8 -3t-18.5 -4.5t-24.5 -0.5q-22 4 -27 20q-2 9 13 58q32 13 84 49q-2 5 -13.5 34.5t-16 43t-16.5 48.5t-19.5 61t-19.5 71t-21.5 88.5t-21 102t-22.5 122.5l-33 -31q-11 -5 -27 -5q-17 1 -39 7 q-44 12 -68 44zM272 748q20 -138 59 -350.5t46 -256.5q114 91 215 199q6 7 23 26t24.5 27.5t22 26t23.5 30.5t20 30.5t20 35.5q28 66 31 115q0 30 -6 57q-10 52 -38 102.5t-69 73.5q-28 16 -68 16q-32 0 -71 -10q-87 -27 -195 -98z" />
<glyph unicode="c" horiz-adv-x="942" d="M27 336q4 244 153 430q76 96 209 174q145 81 293 94q23 -3 45 -29t25 -57q3 -26 -13 -57q-12 -28 -41 -45q-15 1 -30 1q-79 0 -172 -39q-111 -47 -189 -138q-92 -105 -114 -211q-16 -70 -19 -131q0 -81 16 -119q17 -50 62 -59q19 -5 41 -5q29 0 63 9q97 26 211 96 q167 107 281 225q17 17 33 21q15 4 30.5 -7.5t24.5 -48.5q-53 -76 -115 -143q-125 -129 -270 -213q-71 -38 -117 -55q-93 -29 -154 -29h-8q-53 0 -110 29q-59 29 -92 90q-43 78 -43 197v20z" />
<glyph unicode="d" horiz-adv-x="956" d="M20 313q3 125 39 228q13 37 34.5 74t38.5 60.5t54 69.5q168 197 469 295q-11 191 -14 387q7 19 43 37q32 16 71 16h10q44 -2 64 -40q-19 -125 -19 -305q0 -246 36 -594l16 16q19 19 35 23q10 0 14 -2q7 -7 13 -9q21 -13 26 -51q-71 -89 -90 -110q6 -53 15.5 -133.5 t15 -134t8.5 -89.5q-1 0 0 -7.5t-3.5 -16t-11.5 -15.5t-26 -5.5t-45 13.5q-3 12 -28 95.5t-42 165.5q-77 -74 -170 -144q-37 -28 -110 -69q-73 -44 -152 -62q-32 -6 -62 -6q-25 0 -48 4q-34 6 -69 28t-56 52q-35 48 -47 119q-9 46 -9 110zM170 307v-21q0 -63 16 -100 q10 -23 25.5 -32t40.5 -9q41 0 113 31q92 42 208 129q79 59 144 117q-33 206 -49 432q-227 -61 -357 -203q-98 -104 -125 -209q-16 -72 -16 -135z" />
<glyph unicode="e" horiz-adv-x="987" d="M-29 498q-7 15 -7 29q0 17 10 33q18 30 79 50h2q18 127 72 228q11 21 47 67l33 33q2 1 14 11.5t19 15.5q75 55 166 67q31 4 62 4q143 0 288 -94q84 -58 143 -127q47 -68 59 -104q9 -27 9 -43q3 -13 0 -29q0 -14 -9 -41q-9 -17 -18 -30t-22.5 -23t-16.5 -12t-18 -11 q-43 -23 -109 -39q-38 -9 -98 -16q-102 -12 -195 -18q-54 -4 -291 -19q3 -85 33 -174q34 -87 84 -113q30 -19 69 -19q70 0 169 62q83 52 186 150l6 6q6 5 15 12t20 14.5t22 9t19.5 -2.5t13 -21t2.5 -45q-6 -7 -27 -31t-33.5 -38t-34.5 -37t-46.5 -46t-52.5 -46 q-34 -26 -55.5 -40.5t-64.5 -35t-87 -31.5q-35 -7 -66 -7q-57 0 -104 23q-82 36 -141 138q-61 118 -70 270q-50 19 -76 70zM201 608q143 0 219 2q112 4 194 11q140 13 187 32l12 6q0 1 -1 3.5t-1 3.5q-10 28 -47 71q-65 71 -158 117q-76 34 -142 34q-21 0 -40 -3 q-41 -5 -84 -31q-24 -16 -35 -27q-20 -17 -29 -30q-46 -64 -71 -174z" />
<glyph unicode="f" horiz-adv-x="464" d="M4 975q35 -13 60 -13q1 -1 2 -1q25 0 67 10q-4 44 -4 87q0 77 12 152q11 64 31 113q38 83 96 121q45 30 90 33q11 1 22 1q31 0 66 -10q70 -21 129 -77q11 -14 5.5 -45t-25.5 -54q-21 -25 -48.5 -37t-53.5 -6q-18 27 -43.5 45.5t-40.5 16.5q-20 0 -41 -35q-19 -28 -33 -84 q-14 -70 -14 -154v-30l100 26q51 12 86 12q21 0 37 -4q12 -2 20 -16q3 -9 -6 -27q-2 -5 -13 -20.5t-16 -24.5q-9 -1 -21.5 -8.5t-38 -23.5t-52.5 -29q-35 -18 -84 -35l18 -100q96 -537 105 -709q2 -21 -8 -35q-6 -9 -25 -12q-23 -4 -53 12q-4 22 -37 153t-60 263 q-4 19 -18 70t-22 94q-3 15 -19.5 94t-23.5 129q-15 -3 -43.5 -11t-59.5 -13q-17 9 -35 77q-12 49 -12 78q0 17 4 27z" />
<glyph unicode="g" horiz-adv-x="1038" d="M2 266q-1 18 -1 34q0 52 15 97q26 87 93 215q67 117 153 213q42 43 71 69.5t79.5 59.5t105.5 52q56 18 108 18q49 0 95 -16q23 -8 35 -15q0 35 36 61q28 20 58 20q7 0 14 -1q24 -3 43 -18q12 -7 21 -21q17 -30 22 -43q40 -409 51 -547q20 -249 20 -427q0 -106 -7 -187 q-19 -191 -76 -303q-42 -82 -113 -125q-62 -38 -137 -38q-12 0 -24 1q-108 8 -244 84q-56 31 -156 107q-4 3 -9 8t-14.5 18.5t-10.5 25t13.5 23t47.5 17.5q68 -45 166 -90q89 -38 131 -50q45 -11 81 -11q40 0 70 14q36 21 58 55q25 42 43 104q32 120 32 320q0 188 -24 428 l-12 102q-9 -31 -41 -110q-35 -81 -78 -144q-73 -106 -154 -168q-63 -49 -133 -73q-68 -25 -134 -25q-27 0 -54 4q-58 8 -112.5 43t-86.5 92q-34 57 -41 127zM160 231q20 -52 74 -75q35 -14 72 -14q22 0 44 5q103 21 205 123q51 52 95.5 119t63.5 105.5t48 101.5q3 6 8 15.5 t20 21.5t31 6l-18 113q-9 -2 -17 -2q-30 0 -57 20q-42 85 -115 85q-8 0 -16 -1q-100 -9 -215 -127q-102 -102 -168 -240q-41 -80 -55 -133q-9 -33 -9 -63.5t9 -59.5z" />
<glyph unicode="h" horiz-adv-x="933" d="M4 1421q7 19 43 39.5t80.5 20.5t65.5 -37q-8 -79 -8 -168q0 -113 13 -242q23 -230 72 -532q8 42 21 92q36 171 92 287q17 32 27.5 49.5t33.5 43t50 42.5q36 18 71 18q14 0 28 -3q49 -10 93 -46q110 -94 156 -268q22 -86 47 -260q28 -225 35 -394v-11t-4 -22t-12 -22.5 t-27 -5t-45 22.5q-6 45 -33 180q-7 34 -27.5 141.5t-36.5 185.5q-2 9 -10.5 46.5t-12 51.5t-12.5 47t-17 51.5t-20 44.5t-27.5 46.5t-33.5 38.5q-23 24 -38 22t-33 -32q-21 -34 -35 -76q-35 -89 -56 -199q-24 -113 -36 -235q-12 -123 -12 -207q0 -26 1 -49q-27 -66 -69 -82 q-12 -4 -23 -4q-29 0 -53 29q-34 41 -37 122q-37 109 -65.5 224.5t-71.5 396.5t-74 653z" />
<glyph unicode="i" horiz-adv-x="325" d="M-31 1372q0 45 29.5 77t71.5 32q40 0 69 -32.5t29 -76.5q0 -43 -29 -75.5t-69 -32.5q-42 0 -71.5 32.5t-29.5 75.5zM49 991q14 25 84 39q21 4 39 4q42 0 68 -24q-19 -82 -20 -194v-17q0 -104 12 -212q12 -116 27 -217.5t31.5 -200.5t20.5 -140q1 -6 -1 -12q-4 -5 -22 -17 q-8 -5 -20 -5q-18 0 -45 9q-2 7 -24.5 61t-40 115.5t-41 167t-41.5 271t-27 372.5z" />
<glyph unicode="j" horiz-adv-x="274" d="M-331 -299.5q-3 10.5 7.5 26t36.5 31.5q57 -17 135 -20h15q117 0 157 74q56 85 56 305q0 42 -2 90q-2 113 -23 321q-26 318 -33 449q3 14 28 31.5t54 23.5q17 4 32 4q52 0 73 -45q-9 -70 -9 -172q0 -114 11 -268q16 -304 16 -427v-34q-7 -143 -30 -229q-13 -49 -48 -111 q-39 -60 -88 -90q-49 -32 -110 -39q-20 -2 -40 -2q-32 0 -61 6q-53 7 -143 41q-2 0 -9 4t-14.5 12t-10.5 18.5zM-8 1364q0 46 28.5 79.5t69.5 33.5q40 0 69 -33.5t29 -79.5q0 -44 -29 -77.5t-69 -33.5q-41 0 -69.5 33t-28.5 78z" />
<glyph unicode="k" horiz-adv-x="925" d="M-6 1434q5 19 40.5 39.5t80 20.5t65.5 -36q-5 -65 -5 -141q0 -253 58 -635q67 24 147 74t136.5 96.5t120.5 101t86 70.5q3 2 8 3.5t21 -14.5t32 -55q-6 -7 -23 -37t-41.5 -62t-67.5 -77.5t-122 -105t-184 -123.5q69 -90 181 -186.5t232.5 -184.5t145.5 -110q10 -7 10 -17 q0 -23 -57 -59q-3 2 -62 25.5t-111.5 51t-164 109t-239.5 199.5q41 -232 55 -340q1 -3 1 -8t-2.5 -15.5t-10 -17t-26.5 -6.5t-46 10q-4 16 -30 89t-50 162.5t-55.5 239t-64 392t-58.5 547.5z" />
<glyph unicode="l" horiz-adv-x="352" d="M10 1417q4 13 27 29t52.5 26t60.5 3.5t47 -33.5q-6 -64 -6 -139q0 -102 11 -227q18 -217 45.5 -391.5t62 -373.5t42.5 -266q1 -3 1 -8t-2.5 -15.5t-10 -17t-26.5 -6.5t-46 10q-5 18 -30.5 87t-49.5 156.5t-55.5 233.5t-64 386.5t-58.5 545.5z" />
<glyph unicode="m" horiz-adv-x="1382" d="M2 993q-2 19 36 34q34 14 76 14q4 -1 8 -1q46 -2 66 -24q-16 -73 -16 -178q0 -136 27 -324q11 58 20 92q46 190 94 285q47 85 111 125q35 22 73 22q16 0 33 -4q101 -22 193 -170q29 -59 45 -135l6 -27q29 102 68 177q19 34 27.5 48.5t32 41t50.5 43.5q35 22 74 22 q16 0 33 -4q35 -8 86 -43q59 -47 106 -127q28 -61 45 -143q26 -102 45 -258q28 -222 35 -396q-1 -4 -2.5 -11t-9 -22t-16.5 -22.5t-25 -5t-35 22.5q0 2 -31 182q-6 31 -26.5 140t-36.5 188q-32 161 -59 233q-11 25 -26 48.5t-34.5 43.5t-41 18t-38.5 -32q-24 -39 -39 -76 q-30 -76 -57 -199q-28 -126 -41 -235q-12 -105 -12 -189l2 -70q0 -39 -48 -63q-35 -18 -60 -18q-11 0 -21 4q-44 17 -60 68q3 62 33 251q4 36 8 50l-34 178q-1 4 -8.5 41.5t-9 44.5t-9.5 39.5t-12.5 44t-15 37.5t-20 41t-24 35t-30.5 36q-11 11 -22 15t-20 -1t-16.5 -12 t-15.5 -21t-13 -24.5t-12 -26t-10 -22.5q-34 -88 -57 -190q-29 -133 -41 -236q-14 -144 -14 -221q0 -21 1 -37q-11 -30 -55 -64q-32 -25 -56 -25q-9 0 -16 3q-41 13 -59 68q0 17 3 50t3 38q-104 266 -135 833z" />
<glyph unicode="n" horiz-adv-x="925" d="M49 993q6 13 44 28t78 17h5q37 0 60 -22q-18 -82 -18 -191q0 -137 28 -317q10 50 20 90q41 166 96 279q17 32 27.5 49.5t33.5 43.5t50 44q35 22 75 22q17 0 34 -4q39 -9 86 -45q63 -53 106 -129q32 -66 47 -135q26 -104 45 -264q28 -230 35 -400v-11t-4 -22t-12 -23 t-27 -5.5t-45 22.5q-5 40 -33 183q-6 32 -26.5 142.5t-36.5 191.5l-8.5 42.5t-9 44.5t-9 41t-12 43t-15 38.5t-20 41t-24.5 36t-31 36.5q-22 22 -37 27q-17 -13 -35 -43q-21 -34 -39 -78q-34 -88 -57 -193q-29 -132 -41 -239q-13 -133 -13 -204q0 -21 1 -36q4 -28 -10 -49.5 t-36 -30t-45.5 -12t-37.5 3.5q-43 17 -60 70q2 28 8 84q-107 268 -137 833z" />
<glyph unicode="o" horiz-adv-x="862" d="M20 414q11 141 78 293q74 172 213 288q21 11 57 5t58 -27l12 -17q3 15 15 39q1 0 35 11t55 16q1 0 13 2l15 2.5t14.5 2t17 2t16.5 0.5t19 -0.5t19 -2t21 -4.5q21 -5 67 -37l17 -18q35 -35 59 -88q32 -73 32 -160q0 -47 -9 -98q-24 -133 -127 -287q-49 -80 -123 -156 q-96 -96 -188 -143q-80 -39 -152 -39q-57 0 -104 27q-50 31 -78 81q-36 67 -47 156q-7 56 -7 105q0 24 2 47zM176 412q-5 -36 -5 -70q0 -41 7 -80q6 -36 19 -69q16 -32 30 -39q18 -10 50 -5t65 23q57 29 125 90q129 123 184 227q68 139 68 247v9q0 54 -23 105q-11 25 -22 39 q-9 9 -15 18q-44 19 -73 19q-9 0 -59.5 -8.5t-61.5 0.5q-4 0 -12 4q1 -6 1 -12q0 -26 -20 -58q-99 -58 -170 -174.5t-88 -265.5z" />
<glyph unicode="p" horiz-adv-x="897" d="M-47 666q-11 15 -11 36q0 23 15 54q15 10 54.5 38.5t72.5 49.5q-2 24 -7 70t-7 77q4 13 27 29t52 26t60 3.5t47 -33.5q-3 -21 -6 -72q74 38 145 62q74 24 146 24h16q95 -3 166 -59q60 -48 104 -133q22 -46 31 -74q17 -53 19 -82q3 -19 3 -39q0 -58 -22 -127 q-25 -70 -72 -137q-63 -93 -186 -201q-128 -105 -252 -172q60 -348 64 -375q-1 0 0.5 -7.5t-2.5 -16.5t-11 -16t-26.5 -7t-46.5 10q-5 17 -23.5 68.5t-40.5 124t-43 164.5h-22q-22 4 -25 20q-4 11 10 58l17 8q-49 230 -93 606q-10 -8 -10.5 -12.5t-9.5 -12.5q-11 -4 -25 -4 q-18 0 -41 6q-43 13 -67 46zM254 756q12 -237 76 -633l4 4q148 115 244 217q95 107 131 188q24 56 24 115q-4 39 -12 58q-7 27 -29 69q-19 36 -39.5 58t-48.5 34q-26 12 -58 12h-8q-37 -2 -85 -18q-90 -28 -199 -104z" />
<glyph unicode="q" horiz-adv-x="940" d="M25 317q4 129 38 228q13 37 33.5 72.5t38.5 58.5t55 69q171 198 467 295q14 17 49 23q10 2 20 2q25 0 52 -11q39 -14 58 -48q-12 -74 -15 -158q-2 -51 -2 -91q0 -26 1 -47q2 -54 9 -186q6 5 12.5 11.5t13.5 14t11 11.5q19 19 35 23q8 0 12 -2q1 -1 6.5 -4.5t8.5 -4.5 q21 -13 26 -51q-5 -6 -44 -55t-70 -84q13 -160 40 -406t31 -307q-1 0 0.5 -7.5t-3.5 -15.5t-12 -15t-26 -5.5t-45 13.5q-4 17 -21 74t-31.5 112.5t-34.5 168.5t-36 249q-38 -36 -127 -103q-34 -28 -108 -69q-73 -44 -152 -62q-32 -6 -63 -6q-25 0 -49 4q-33 6 -67.5 28 t-55.5 52q-35 48 -47 119q-8 41 -8 110zM174 311v-21q0 -63 16 -100q10 -23 24.5 -31.5t41.5 -8.5q40 0 113 30q94 43 209 129q37 28 110 88q-22 248 -29 455q-216 -63 -344 -201q-51 -54 -80 -99t-45 -106q-16 -72 -16 -135z" />
<glyph unicode="r" horiz-adv-x="811" d="M18 991q6 14 44 28.5t78 16.5h4q37 0 61 -24q-15 -78 -15 -180q0 -153 33 -361q14 70 64 225q28 106 67 178q61 108 144 144q34 14 75 13q15 0 31 -1q44 -8 84 -29q56 -30 103 -77q1 0 5.5 -5.5t7 -14.5t0.5 -19t-17.5 -20.5t-43.5 -18.5q-52 36 -98 51q-31 9 -54 9 q-9 0 -16 -1q-29 -3 -57 -37q-63 -72 -112 -301q-4 -19 -19 -78.5t-22 -115.5q-9 -71 -15 -150q-3 -75 -3 -116q0 -25 1 -37q-2 -39 -48 -58q-33 -14 -62 -14q-11 0 -21 2q-35 7 -53 41q0 34 8 96q-23 49 -40.5 100t-41.5 148t-42.5 251.5t-29.5 354.5z" />
<glyph unicode="s" horiz-adv-x="894" d="M25 524q9 73 57 160q49 85 94 135q50 61 127 119q83 66 174 90h6q46 0 69 -30q19 -24 19 -55q-1 -10 -3 -21q-8 -43 -42 -70q-91 -6 -201.5 -110.5t-146.5 -227.5q-9 -45 31 -40q46 6 123 62q2 1 4 3q50 34 136 112t114 101q26 19 37.5 26.5t38.5 22.5t45 18.5t42.5 2 t45.5 -14.5q9 -6 17 -12.5t14.5 -14.5t10.5 -12.5t9 -14.5t6.5 -12.5t6.5 -13.5t5 -12q18 -51 18 -103q0 -80 -42 -163q-38 -68 -90 -127q-82 -99 -195 -187q-82 -63 -164 -115q0 -1 -11.5 -6.5t-26 -10t-28.5 -1.5t-19 19.5t3 52.5q59 37 156 131q61 58 115 114 q73 77 122 164q30 62 37 105q2 14 2 26q0 41 -24 40h-5q-34 -5 -129 -97q-21 -21 -28 -27q-6 -5 -27 -24t-30 -27t-29 -25t-34.5 -27.5t-35 -24t-41.5 -25.5q-14 -10 -71 -31q-52 -18 -94 -18q-100 0 -144 67q-26 40 -26 97q0 15 2 32z" />
<glyph unicode="t" horiz-adv-x="464" d="M22 936q-4 32 -4 56q0 28 5 46q36 -16 49.5 -18.5t54.5 2.5q1 13 4.5 154.5t13.5 218.5q10 19 49 31q22 7 45 7q18 0 37 -4q43 -10 56 -49q-23 -73 -49 -358q17 6 50.5 13.5t67 13.5t41.5 8l7 -2q14 -14 18 -82q-17 -14 -75.5 -46t-121.5 -61v-29q0 -85 13 -262 q15 -188 34 -265q40 -156 144 -201q33 -11 33 -72q-43 -34 -85 -34q-21 0 -42 9q-54 20 -99 84q-37 53 -69 142q-45 133 -59.5 279t-16.5 351q-54 -10 -82 -12q-11 10 -19 80z" />
<glyph unicode="u" horiz-adv-x="811" d="M16 963q5 18 29 36t54 26.5t61 -4.5t45 -52q-16 -129 -16 -265q0 -108 10 -221q8 -89 18 -131q16 -80 37 -112q43 -65 78 -86q23 -12 34.5 -12t30.5 16q33 33 60 96q22 57 37 117q28 111 41 233q14 142 14 233v31l-6 123q1 23 39 33q29 8 61 8h21q44 -4 65 -18 q-13 -71 -13 -164q0 -5 -1 -10q1 -88 9 -172q8 -90 23 -190t29.5 -177.5t28 -155t18.5 -114.5v-5t-2.5 -11.5t-11.5 -12t-26 -6.5t-46 6q-4 12 -23.5 54t-42.5 108t-44 153l-23 -77q-33 -100 -80 -160q-16 -19 -28.5 -31t-36.5 -27t-51 -22q-24 -7 -48 -7q-20 0 -41 5 q-30 8 -71 33q-43 28 -88 84l-35 47q-15 26 -31 63q-31 90 -49 230q-29 223 -29 508z" />
<glyph unicode="v" horiz-adv-x="733" d="M4 934q0 17 18 41t44 41q23 21 55.5 17.5t60.5 -38.5q38 -232 111 -477q47 -159 84 -248l37 -84q50 192 115 468.5t81 338.5l4 9q3 10 9.5 19t16.5 15.5t27 -1t39 -31.5q-1 -7 -9 -84.5t-20 -165t-34 -209.5q-5 -30 -12.5 -66.5t-18 -86t-16.5 -81.5q-20 -74 -33 -139 l-10 -39q-2 -6 -9 -27.5t-11 -30.5t-13.5 -23.5t-21.5 -24.5q-27 -24 -59 -24q-5 0 -9 1q-37 4 -68.5 24t-54.5 50q-31 48 -51 94q-22 47 -39 92q-39 104 -70 195q-24 75 -72.5 239t-70.5 236z" />
<glyph unicode="w" horiz-adv-x="1136" d="M14 944q2 18 21.5 40.5t46.5 37.5q25 14 47 14q38 0 68 -43q20 -240 71 -471q32 -148 66 -252l31 -86q58 170 133 416q-13 63 -39.5 176.5t-34.5 151.5q2 18 21.5 40.5t46.5 37.5q47 27 92 27t70 -13.5t36 -30.5q-3 -17 -9 -123.5t-30 -210.5q10 -57 27 -133 q33 -156 65 -252l31 -86q65 190 151.5 472.5t104.5 336.5l4 9q4 9 11 17.5t17 13.5t26.5 -4t35.5 -34q-3 -15 -14.5 -89.5t-31 -168t-50.5 -213.5q-12 -49 -63 -229q-1 -2 -18.5 -60t-28.5 -89.5t-32 -72.5t-40 -55q-27 -19 -63 -19q-18 0 -38 5q-48 27 -76 68.5t-53 107.5 q-16 42 -32 94l-19 60l-10 -39l-43 -137l-12 -37q-1 -3 -7.5 -18.5t-8.5 -20t-8 -17t-10.5 -18.5t-12.5 -14t-17 -15q-25 -18 -56 -18h-9q-71 0 -121 84q-28 54 -43 96q-21 54 -33 94l-55 201q-19 78 -54 238.5t-51 230.5z" />
<glyph unicode="x" horiz-adv-x="827" d="M8 920q-2 11 13.5 34t39.5 41q41 36 76 36q15 0 29 -7q54 -159 211 -391q53 90 106 172l80 115q4 5 14.5 18.5t15 19t14 17t17 19t19 18.5t23.5 22q9 3 18 3q33 -1 65 -41q41 -52 44 -99q-33 -12 -82 -61q-45 -45 -95 -111q-83 -114 -141 -227q61 -81 126 -162.5 t138 -170t80 -97.5q2 -2 4 -5t3.5 -12t-2.5 -17t-19.5 -18t-42.5 -18q-10 9 -46 36.5t-82 68.5t-99 96q-82 86 -136 153q-19 -41 -67 -153q-54 -127 -70 -187q-2 -4 -18 -11t-38.5 -6t-33.5 19q2 45 3.5 67.5t14.5 87t37 136.5q36 97 74 176q-127 170 -293 439z" />
<glyph unicode="y" horiz-adv-x="821" d="M-2 969q1 19 23.5 36t52.5 25t61.5 -1t48.5 -38q-5 -60 -5 -125q0 -121 18 -260q13 -108 36 -207q8 -28 21.5 -64t38.5 -89.5t57 -83.5q23 -20 44 -20q9 0 18 3q22 11 43 45q19 32 32 72q34 88 66 266q0 2 1 5.5t4.5 12.5t9.5 13t16.5 6.5t25.5 -6.5q-21 168 -57 346 q0 2 -1 3.5t-1 2.5q-7 21 -7 39q0 23 11 41q34 42 77 42q8 0 15 -1q30 -3 49 -23t39 -59l51 -536q3 -42 10 -123.5t8 -114.5q2 -24 2 -66v-30q-1 -63 -7 -137q-19 -192 -78 -303q-44 -86 -113 -125q-56 -38 -134 -38q-14 0 -28 1q-47 4 -96 19.5t-74.5 27.5t-72.5 37 q-79 46 -154 106q-4 3 -9 8t-14.5 18.5t-10.5 25t13.5 23t47.5 17.5q57 -39 164 -90q79 -34 131 -49q51 -12 88 -12q40 0 63 14q57 33 88 99t36 150q3 50 3 98q0 34 -1 67q-4 80 -10 169q-3 52 -3 89q0 27 2 47q-5 -39 -8 -53q-17 -91 -47 -152q-26 -57 -72 -96 q-40 -32 -82 -39q-16 -3 -32 -3l-68 13q-66 29 -125 99q-62 77 -82 141q-48 138 -76 321q-33 193 -47 396z" />
<glyph unicode="z" horiz-adv-x="894" d="M27 776q-31 27 -31 57q0 32 35 68q125 54 266 96q90 26 154 35q29 4 56 4q19 0 36 -2q44 -5 74 -31.5t30 -70.5q-1 -17 -5 -33t-15.5 -38t-15.5 -30t-22.5 -37t-19.5 -30l-86 -135q-13 -20 -41 -62.5t-43.5 -66.5t-37.5 -60.5t-39 -68.5q-46 -90 -62 -135 q-13 -39 -16 -64q0 -35 14 -35q20 0 53 10l129 37q208 71 371 172l5 3q4 3 11.5 6t16.5 6t17.5 1.5t15.5 -8t11 -22t3 -39.5q-106 -85 -166 -123q-159 -96 -346 -157q-53 -16 -68 -19q-33 -8 -61 -8q-69 0 -113 47q-30 32 -37 78q-2 14 -2 29q0 38 11 83q20 80 69 179 q12 26 26 50t37 60t33 53q69 116 115 187l62 98q0 2 4 10l-70 -20q-138 -45 -258 -111q-19 -5 -48 6t-52 31z" />
<glyph unicode="{" horiz-adv-x="641" d="M70 492q60 11 105.5 47.5t64.5 99.5q35 111 -15 299q-5 19 -13.5 50t-14 51.5t-13 52.5t-10 53t-4 54t3.5 56q15 84 68 140q10 13 23 25.5t21 19t22 17l18 13.5q2 1 4.5 3t10 4t13.5 0q27 -3 33 -66q-38 -34 -61 -74q-34 -74 -23 -147q1 -19 11.5 -63.5t13.5 -61.5 q40 -123 51 -182q9 -58 12.5 -84.5t3 -81.5t-11.5 -105q-21 -93 -78 -161q-26 -36 -63 -62q26 -16 61 -47q66 -57 96 -152q18 -52 27 -114.5t10 -107t0 -113.5q-6 -73 -2.5 -150t23.5 -117q13 -27 36 -47t39.5 -28t45.5 -19q12 -2 18 -14q10 -29 -25 -70q-75 10 -108 23 q-47 15 -82 53q-50 47 -64 119q-13 43 -17 91.5t-2.5 132t1.5 110.5q-4 125 -33 196q-19 48 -50.5 78.5t-94.5 50.5q-8 8 -13 32.5t-2 49.5v16q-12 12 -22 29q-38 63 -14 101z" />
<glyph unicode="|" horiz-adv-x="485" d="M70 1399q4 19 27 39.5t52 31.5t60.5 -1.5t48.5 -53.5q-13 -211 4 -508t45 -533.5t62 -506t43 -369.5q1 -4 1 -11t-2.5 -22.5t-10 -23.5t-26.5 -7t-46 19q-3 18 -40.5 161t-67.5 296.5t-73.5 551.5t-76.5 937z" />
<glyph unicode="}" horiz-adv-x="606" d="M35 1403q-15 29 24 70q82 -12 113 -23q52 -21 82 -53q49 -39 68 -115q11 -32 16 -75t5 -76.5t-1 -90t0 -88.5q9 -133 33 -190q18 -49 52 -78.5t101 -48.5q18 -23 15 -86q-2 -4 -2 -14l22 -27q42 -56 15 -96q-141 -30 -177 -146q-33 -105 15 -293q4 -13 13 -41.5 t13.5 -44.5t11.5 -42.5t10 -46.5t6 -44t2.5 -47.5t-3.5 -46.5q-11 -71 -68 -139q-40 -42 -90 -72q-2 -1 -4.5 -2.5t-10 -4t-13.5 -1.5q-30 7 -35 65q39 31 63 76q39 68 27 142q-4 32 -29 120q-2 6 -12.5 37t-15.5 47t-12.5 45t-12.5 56q-29 151 -2 264q21 91 80 158 q20 26 65 57q-48 34 -63 47q-71 61 -103 147q-17 53 -25.5 113t-8.5 111v108q7 73 3.5 148.5t-24.5 115.5q-13 26 -38 46.5t-40.5 27.5t-46.5 19q-12 2 -18 12z" />
<glyph unicode="~" horiz-adv-x="1300" d="M84 528q134 103 137 105q101 72 176 96q63 18 115 10q57 -6 109 -39q15 -9 30.5 -21t26.5 -20.5t27 -23.5t22.5 -21.5l24.5 -24.5l22 -22q82 -85 125 -114q61 -38 115 -29q40 9 98 49q6 4 74 66q2 2 5 4.5t12.5 6t18 1t20.5 -17t22 -41.5q-5 -6 -17.5 -25.5t-26 -38 t-30.5 -37.5q-42 -42 -82 -67q-81 -44 -160 -35q-89 8 -190 90q-32 26 -86 80t-70 69q-43 40 -78 54q-34 12 -71 2q-92 -27 -224 -176q-12 -4 -38.5 3t-53.5 21t-44 40t-9 56z" />
<glyph unicode="&#xa1;" horiz-adv-x="413" d="M66 993q0 43 29.5 76t68.5 33q42 0 71 -32.5t29 -76.5q0 -45 -29 -76.5t-71 -31.5q-40 0 -69 32t-29 76zM111 616q14 24 83.5 38.5t106.5 -19.5q-19 -82 -20 -196.5t12 -233.5t28 -223t31.5 -205.5t20.5 -141.5q1 -5 -1.5 -11.5t-21 -17.5t-65.5 5q-1 4 -24 62.5 t-40.5 120.5t-41 171.5t-41.5 276.5t-27 374z" />
<glyph unicode="&#xa2;" horiz-adv-x="1036" d="M70 336q4 244 153 430q55 70 142 131q-3 39 -9.5 108.5t-9.5 129.5q4 19 27 39.5t52.5 31.5t61 -1.5t48.5 -53.5q-10 -131 -11 -166q95 40 201 49q23 -3 45 -29t25 -57q3 -26 -13 -57q-12 -28 -41 -45q-101 10 -215 -43q5 -240 43 -578l41 25q167 107 281 225 q17 17 33 21q15 4 30.5 -7.5t24.5 -48.5q-53 -76 -115 -143q-125 -129 -270 -213l-8 -4q38 -339 39 -350q1 -4 1 -11t-2.5 -22.5t-10 -23.5t-26.5 -7t-46 19q-7 39 -22 70t-33.5 90.5t-36.5 172.5q-79 -20 -134 -18q-53 0 -110 29q-59 29 -92 90q-47 85 -43 217zM217 328 q0 -81 16 -119q17 -50 62 -59q44 -12 104 4q22 4 29 8q-27 245 -49 538l-29 -30q-92 -105 -114 -211q-16 -70 -19 -131z" />
<glyph unicode="&#xa3;" horiz-adv-x="987" d="M6 842q4 44 33 61q20 -6 31 -9t16.5 -3.5t17 -1t25.5 -2.5q-3 66 0 131q7 138 31 229q13 52 47 111q39 60 88 90q48 32 111 39q53 6 100 -4q53 -7 143 -41q2 0 9 -4t14.5 -12t10.5 -18.5t-7.5 -26t-36.5 -31.5q-57 17 -135 20q-129 5 -172 -74q-12 -18 -21 -39 q-20 -173 -20 -383q71 -1 188.5 11t173.5 12h5.5t11.5 -4.5t11.5 -12.5t2 -26.5t-11.5 -44.5q-18 -3 -56.5 -16t-112 -24.5t-212.5 -20.5v-72q8 -67 10.5 -142.5t3 -171t2.5 -153.5q122 40 237 90.5t221 103.5t144 70q2 -3 12 2.5t23.5 -13.5t16.5 -63q-13 -9 -36 -33 t-55.5 -49t-94 -63t-181 -93t-287.5 -122q-8 -29 -47 -21q-8 -3 -37.5 -13t-46.5 -17q-15 2 -40.5 33t-39 69t3.5 70q41 3 95 16q-47 241 -60 565q-22 -1 -43.5 -13t-52.5 -13q-14 8 -25.5 45.5t-7.5 81.5z" />
<glyph unicode="&#xa4;" horiz-adv-x="1150" d="M96 1176l2 7q11 20 80 66q4 -1 32 -1.5t51.5 -4t60.5 -25.5t69 -61q124 57 262 31q81 -17 154 -64q34 82 154 129q14 -10 71 -83t68 -103q-55 17 -96.5 -2t-79.5 -61q35 -53 49 -119q-16 -34 -20.5 -51.5t0.5 -26t13.5 -14.5t18.5 -23t14 -45q-21 -64 -61 -119 q55 -28 104 -108q-6 -17 -69 -85.5t-92 -82.5q14 88 -82 155q-141 -78 -293 -51q-83 9 -154 53q-38 -24 -84 -80.5t-55 -62.5l-7 1q-20 10 -65 81q1 5 2 29.5t4.5 46t21 54.5t48.5 62q-41 65 -53.5 139.5t8.5 149.5q17 68 70 135q-24 37 -82.5 82.5t-63.5 51.5zM350 776 q9 -54 56.5 -97.5t117.5 -55.5q87 -11 148 26q82 43 102 123q2 2 63 22q45 15 46 25q1 7 -15 12q-18 74 -84 130q-96 83 -235 65q-88 -14 -148 -74q-35 -34 -49.5 -80.5t-1.5 -95.5z" />
<glyph unicode="&#xa5;" horiz-adv-x="1159" d="M8 1370q-1 11 14.5 32.5t39 41.5t51.5 30t53 -1q21 -71 68.5 -159.5t81 -139.5t112.5 -166l158 -224q45 -63 49 -69q3 10 11.5 41.5t19 64.5t24.5 70q84 222 295 590q12 8 51 0.5t76 -30t41 -52.5q-72 -75 -129.5 -165t-122.5 -222l-108 -228q-3 -7 -22 -41t-31.5 -60.5 t-8.5 -29.5q-11 -30 -16 -49q49 2 149 11.5t150 9.5h5.5t11 -4.5t11.5 -12.5t2 -26.5t-12 -44.5q-20 -4 -58.5 -21t-103.5 -32t-170 -21q0 -60 11 -146q50 2 151 11.5t152 9.5h5.5t11 -4.5t11.5 -12.5t2 -26.5t-12 -44.5q-21 -4 -56 -19.5t-94 -30.5t-151 -22q5 -33 15 -88 t12 -74q1 -4 -2 -8t-21.5 -11.5t-64.5 1.5q-3 8 -17.5 32.5t-30.5 60.5t-30 81q-144 -4 -295 4q-14 8 -25.5 46t-7.5 82t33 61q128 -38 264 -48q-7 44 -14 140q-103 0 -250 6q-14 8 -25.5 45.5t-7.5 81.5t33 61q124 -37 248 -47v33l2 2q-41 39 -105 111q-64 74 -115 138 t-139.5 194t-179.5 288z" />
<glyph unicode="&#xa6;" horiz-adv-x="481" d="M102 1434q6 12 44.5 25t78.5 14t64 -21q-19 -73 -21.5 -158.5t8.5 -166.5t24.5 -152t28 -142t17.5 -110q1 -5 -1.5 -11t-20.5 -16.5t-64 4.5q-5 14 -24.5 40t-38 65t-39.5 108.5t-36 203.5t-20 317zM190 385q6 13 43 27.5t81.5 14.5t64.5 -24q-18 -82 -18.5 -174 t11.5 -176.5t27 -158t30.5 -148.5t19.5 -119q1 -5 -1 -11.5t-20.5 -17.5t-65.5 5q-6 18 -25 41t-39 61t-41.5 109t-39.5 217.5t-27 353.5z" />
<glyph unicode="&#xa7;" horiz-adv-x="1335" d="M78 201q1 38 8 80q18 108 72 204q13 27 43 74q-11 0 -27 4q-37 12 -60 41t-30 68t-6 77t8 80q19 109 72 205q109 213 329 330q206 114 494 117q33 -5 66.5 -29.5t42.5 -52.5q23 -76 -103 -103q-209 14 -375 -51q-202 -81 -309 -266q-34 -55 -60 -138q-38 -119 18 -114 q12 1 28 8q18 8 122.5 53t161.5 68q10 2 25 10l150 56q166 56 243 65q42 2 81 2.5t77.5 -17t60.5 -54.5q7 -16 10.5 -27.5t6.5 -26t4 -20.5q18 -123 -43 -244q-41 -83 -111 -160q94 -7 133 -71q7 -16 10.5 -27.5t6.5 -26t4 -20.5q18 -123 -43 -244q-42 -90 -133 -184 q-133 -130 -305 -236q-52 -33 -136.5 -82.5t-111.5 -66.5q-37 -23 -62 -29q-19 -3 -32 8q-19 19 -5 62q37 29 252 176q105 78 187 147q135 113 200 224q47 79 50 153q2 20 -1 34t-7 23t-15 13.5t-19.5 6t-25.5 -0.5t-27.5 -4l-31.5 -6q-73 -19 -123 -35q-64 -22 -273 -107 l-149 -63q-67 -29 -125 -51q-82 -30 -121 -19q-37 12 -60 41.5t-30 68.5t-6 77zM243 292q-38 -119 18 -114q12 1 28 8q29 12 137.5 59t180 75.5t141.5 52.5l110 37q128 112 184 208q47 79 50 154q0 27 -2 37q-13 -43 -103 -61q-207 14 -375 -52q-202 -81 -309 -266 q-34 -55 -60 -138z" />
<glyph unicode="&#xa8;" horiz-adv-x="903" d="M121 1217q0 56 40 94.5t101 38.5q56 0 95.5 -39t39.5 -94q0 -52 -40 -91t-95 -39q-60 0 -100.5 39t-40.5 91zM526 1217q0 56 40.5 94.5t101.5 38.5q56 0 95.5 -39t39.5 -94q0 -52 -40 -91t-95 -39q-60 0 -101 39t-41 91z" />
<glyph unicode="&#xa9;" horiz-adv-x="1452" d="M110.5 588.5q-23.5 133.5 8.5 257.5q30 124 109 227t188 164q104 60 226 75.5t226 -12.5q205 -50 338 -210q105 -127 131 -285q8 -49 0 -82q-17 -60 -80 10q-19 140 -116 256q-70 84 -166 135q-130 67 -273 56q-83 -5 -167.5 -42t-151.5 -106q-76 -77 -113 -189t-14 -233 q26 -135 123 -235q107 -113 264 -137q80 -14 164.5 2.5t159.5 62.5q77 47 133.5 126t77.5 175q9 24 36.5 49t57.5 37q35 12 57 -10q33 -33 33 -111q-30 -109 -96 -206t-162 -166q-99 -72 -222.5 -103.5t-248.5 -11.5q-127 17 -240 87.5t-186 178.5q-73 107 -96.5 240.5z M414 604q0 169 100 293q51 65 141 119q95 53 195 61q16 -5 31 -31t14 -55q3 -27 -8 -59q-6 -28 -21 -43q-43 16 -110 -8q-63 -20 -115 -76q-52 -55 -70 -131q-6 -26 -10 -76q0 -45 8 -66q9 -18 27 -24q21 -4 53 6q53 13 121 59q94 60 166 136l2.5 2.5t7 4t10.5 1.5 q35 -6 58 -53q-28 -49 -66 -97q-74 -87 -162 -145q-55 -29 -75 -37q-56 -23 -111 -23q-38 0 -84 21q-47 23 -70 70q-36 60 -32 151z" />
<glyph unicode="&#xaa;" horiz-adv-x="720" d="M78 915q0 52 18 115q29 100 101 205q87 121 186 178q41 21 70 27q50 15 96 4q32 -7 57 -43q14 -19 19 -60q4 -31 -13 -84l6 -12q4 -9 5 -20t1 -19t-0.5 -22t-0.5 -23q0 -143 8 -200q1 -15 12 -78q6 -19 29 -49q0 -1 1.5 -3.5t3.5 -6.5t3 -7q0 -19 -25 -33q-39 9 -59 54 q-27 52 -33 92q-12 50 -18 110q-6 -10 -15 -21t-20.5 -24.5t-17.5 -21.5q-46 -51 -119 -105q-21 -17 -72 -47q-22 -13 -47 -22q-39 -13 -70 -11q-27 4 -47 15q-21 12 -39 37q-16 29 -20 75zM176 901q6 -12 6 -14q8 -4 15 -4q15 0 47 16q22 10 53 33q115 75 180 170 q48 73 58 117q-42 7 -37 71q8 15 12 37v10q0 2 -8 2q-22 0 -45 -10q-87 -28 -176 -143q-84 -125 -105 -230q-4 -41 0 -55z" />
<glyph unicode="&#xab;" horiz-adv-x="1161" d="M72.5 540q-2.5 21 3.5 38q7 22 18 45q28 49 82 114q44 53 96 105q100 103 238 217q17 4 52.5 -14.5t61 -54t13.5 -70.5q-121 -63 -250 -183q-64 -57 -117 -123q-9 -10 -17 -22t-18 -28.5t-16 -24.5l1 -1l9 -16q38 -53 107 -119q45 -45 113 -102q25 -22 65 -56.5 t66.5 -57.5t44.5 -40q2 -2 5 -4.5t6 -11.5t1 -17.5t-15.5 -21.5t-39.5 -24q-13 9 -54.5 30.5t-97.5 56.5t-121 85q-76 63 -121 106q-31 31 -69 78q-11 17 -17 26t-15 27t-10.5 30t-4 33zM522.5 540q-2.5 21 3.5 38q5 18 19 45q28 49 82 114q43 53 96 105q100 103 238 217 q17 4 52 -14.5t60.5 -54t13.5 -70.5q-119 -62 -249 -183q-64 -57 -117 -123q-9 -10 -17 -22t-18 -28.5t-16 -24.5l1 -1l9 -16q40 -56 106 -119q45 -45 113 -102l176 -154q2 -2 5 -4.5t6 -11.5t1 -17.5t-15.5 -21.5t-39.5 -24q-13 9 -54 30.5t-97 56.5t-121 85 q-76 63 -121 106q-37 37 -70 78q-11 17 -17 26t-15 27t-10.5 30t-4 33z" />
<glyph unicode="&#xac;" horiz-adv-x="1275" d="M121 907q6 44 47 62q165 -33 272.5 -39.5t337.5 -1.5l213 6l103 4h77q25 -4 43 -25l13 -24q2 -10 2 -17v-8q0 -2 1 -6t1 -6q9 -191 6 -301v-8.5t-4.5 -16.5t-12.5 -16.5t-26.5 -3t-44.5 17.5q-2 16 -5 36t-8.5 51t-9.5 53q-10 54 -18 108l-4 27q-114 -10 -163.5 -14 t-162 -8.5t-256 -3.5t-352.5 7q-20 8 -37.5 45.5t-11.5 81.5z" />
<glyph unicode="&#xad;" horiz-adv-x="1132" d="M64 660q5 44 40 61q134 -32 274.5 -42.5t235 -6t217.5 13t189 8.5h7.5t13.5 -4.5t14 -12.5t2.5 -26.5t-15.5 -44.5q-26 -4 -47 -19t-47 -28t-117.5 -25.5t-258 -12.5t-468.5 11q-16 8 -30.5 46t-9.5 82z" />
<glyph unicode="&#xae;" horiz-adv-x="1402" d="M97.5 641q-23.5 133 8.5 258q30 124 109 227t188 164q105 60 226.5 76t226.5 -12q204 -50 338 -211q105 -127 131 -285q8 -49 0 -82q-17 -60 -80 10q-19 139 -117 256q-72 87 -165 136q-128 66 -273 55q-83 -5 -167.5 -42t-151.5 -106q-76 -77 -113 -188.5t-14 -232.5 q26 -136 123 -236q107 -113 264 -137q170 -29 323 65q77 47 133.5 126t77.5 175q9 24 37 49t58 37q35 12 57 -10q33 -33 33 -110q-30 -109 -96 -206.5t-162 -166.5q-99 -72 -222.5 -103.5t-248.5 -11.5q-127 17 -240 87.5t-186 178.5q-74 107 -97.5 240zM400.5 963.5 q-12.5 30.5 9.5 62.5l69 21v67q12 18 70.5 27t87.5 -19l-6 -24l82 24q3 1 24 5.5t27 5.5t24.5 4t28.5 3.5t26.5 1t31.5 -1.5t30 -5q28 -6 53 -25q28 -25 39 -49q14 -26 17 -55q2 -25 -6 -62q-13 -32 -36 -62.5t-36.5 -43.5t-44.5 -41q-61 -50 -129 -95q-36 -22 -47 -28 q47 -51 145.5 -113.5t114.5 -77.5l4 -7q4 -21 -46 -45q-2 -2 -5 -3q-4 1 -39.5 7t-67.5 18q-70 25 -184 114q4 -32 13.5 -106.5t11.5 -100.5q1 -5 -1 -10t-17.5 -13.5t-53.5 5.5q-2 8 -17 43t-30 85t-27 118q-17 14 -12 59h2q-16 134 -23 242h-2q-16 -1 -42 21.5t-38.5 53z M612 948q-2 -80 9 -215l127 96q64 52 102 95q32 36 39 55q4 14 2 16v2l-4 9q-2 4 -6 6q-8 4 -25 4q-36 3 -100 -17q-44 -12 -144 -51z" />
<glyph unicode="&#xb0;" horiz-adv-x="800" d="M69.5 871q-13.5 68 4.5 133q17 64 59 115t98 79q107 57 232 33q105 -20 180 -98q62 -67 76 -148q6 -27 -4 -45q-5 -8 -24 -14q-3 -1 3 -3q3 -2 13 -5q33 -19 36 -62q-47 -127 -155 -188q-115 -68 -246 -47q-64 9 -122 42.5t-97 86.5q-40 53 -53.5 121zM215 897 q8 -42 46.5 -78t94.5 -45q62 -9 121 21q65 35 82 100q1 0 30.5 15.5t45.5 31.5q-10 58 -66 105q-81 68 -190 53q-71 -10 -121 -60q-61 -61 -43 -143z" />
<glyph unicode="&#xb1;" horiz-adv-x="1095" d="M61.5 125q3.5 37 26.5 51q122 -38 336 -41h129q98 1 245 10t183 9h5t10 -3.5t10 -10.5t1.5 -22.5t-10.5 -37.5q-62 -33 -240.5 -52t-354 -18t-314.5 8q-11 7 -20.5 38.5t-6 68.5zM82.5 735.5q3.5 36.5 26.5 50.5q122 -38 335 -41q-3 68 -10.5 196.5t-7.5 168.5q0 5 2 11 t19 14.5t57 -9.5q2 -8 18 -60t30.5 -132t20.5 -189q98 1 245 10t183 9h5t10 -3.5t10.5 -10.5t2 -22.5t-10.5 -37.5q-10 -2 -51 -14t-81 -21t-123.5 -19.5t-184.5 -14.5q3 -145 -9 -359q-8 -11 -41 -20t-71.5 -5.5t-53.5 25.5q41 130 41 356q-155 0 -335 11q-11 7 -20.5 38.5 t-6 68z" />
<glyph unicode="&#xb2;" horiz-adv-x="655" d="M43 1249q57 85 152 152q46 32 98 57q82 27 125 23q42 -4 67 -31q26 -26 35 -61q13 -57 -4 -125q-24 -96 -104 -213q-66 -92 -140 -179q-11 -14 -33 -37t-24 -26l158 16q106 4 145 0q25 -4 43 -16q7 -6 10 -14t0 -11q-2 -2 -13.5 -4t-20.5 -6q-36 9 -142 -4 q-42 -3 -110 -16l-70 -13l-41 -6l-6 -2q0 -2 -4 -2h-8h-6q-5 2 -9 4l-8 4q-3 2 -8 11q-8 8 -8 20v8v4q2 5 4 9.5t3 7t3 4.5l6 12q8 13 18.5 26t24 28.5t19.5 23.5q11 15 36 44.5t33 39.5q92 115 142 211q39 79 43 131q3 33 -7 61q-11 16 -12 17q-3 3 -16 6q-21 5 -68 -10 q-38 -16 -82 -45q-96 -69 -135 -140q-6 -12 -53 -26q-20 -3 -29 8q-12 19 -4 59z" />
<glyph unicode="&#xb3;" horiz-adv-x="700" d="M76 928q0 27 8 43q12 12 18 12q9 -3 21 -27q0 -40 2 -65q8 -47 31 -74q26 -34 92 -24q53 10 147 61q51 30 84 53q57 48 72 74q14 28 14 41q0 16 -12 31q-14 15 -43 25t-59 9q-14 0 -55 -5.5t-64 -2.5q-25 5 -47 25q-8 8 -19 35q-3 17 0 28q8 29 13 35q13 29 57 88l41 51 q-84 -36 -154 -53q-17 -3 -36 6t-27 23q-22 29 37 61q94 18 198 64q43 16 56 20q37 14 51 17q41 0 47 -43q-6 -27 -41 -66l-41 -45q-30 -32 -80 -94q-31 -47 -33 -51q-13 -25 -2 -29.5t35 3.5q6 1 9.5 2t8.5 1.5t9 1.5q12 2 37 2q82 3 135 -41q36 -26 47 -61q13 -40 0 -76 q-17 -52 -82 -109q-52 -42 -98 -67q-80 -41 -103 -49q-51 -20 -110 -29q-29 -4 -58 6q-28 7 -53 25q-37 35 -49 92q-4 29 -4 76z" />
<glyph unicode="&#xb4;" horiz-adv-x="659" d="M80 1096q60 20 118 58.5t104.5 84.5t85 89.5t77 88.5t61.5 66q25 26 70 -58q-2 -3 -22 -38t-40.5 -63.5t-61 -81t-108 -125t-157.5 -159.5q-22 0 -76.5 51t-50.5 87z" />
<glyph unicode="&#xb5;" horiz-adv-x="940" d="M35 -100q-2 185 12 352t38 285.5t45 191.5t42 127q-6 56 -8 84q17 53 59 70q14 7 37.5 3.5t45.5 -12t36 -30t10 -49.5q-2 -24 -2 -48t2 -51t3.5 -44t5 -50t4.5 -47q13 -109 41 -240q22 -103 57 -192q18 -44 39 -78q18 -30 35 -43q13 5 36 27q17 17 31 36.5t24.5 36t20 41 t15 38.5t12 43t9 41t9 44.5l8.5 42.5q16 81 37 191.5t27 142.5q28 145 33 182q45 30 64.5 21t21.5 -34l2 -26q-7 -168 -35 -399q-19 -160 -45 -264q-15 -69 -47 -135q-42 -74 -107 -129q-47 -36 -86 -45q-59 -13 -108 18q-27 18 -50 44t-33.5 43.5t-27.5 49.5 q-55 113 -96 279q-14 56 -21 90q-22 -144 -26.5 -328t16.5 -303q-25 -23 -64.5 -21.5t-77.5 16.5t-44 28z" />
<glyph unicode="&#xb6;" horiz-adv-x="985" d="M59 1278q10 47 39.5 87t71.5 65q78 49 174 28q44 -11 70 -26q21 16 51 25t63 4t50 -31q44 -16 102.5 -18.5t104 3.5t95 12.5t68.5 6.5l6 -3q13 -16 2 -85q-4 -2 -29 -20t-50 -30q-33 -196 -36.5 -491.5t9 -622.5t12.5 -372v-8t-4.5 -15.5t-12.5 -16t-26.5 -3.5t-44.5 16 q-2 17 -14.5 82.5t-22 128.5t-23 189t-18.5 264t-8 354t8 459q-82 0 -133 6q-36 -1182 0 -1479q0 -3 -0.5 -8.5t-5 -16.5t-13 -17t-27 -4t-44.5 17q-2 13 -15.5 91t-24 163.5t-22.5 221t-18 332.5t-4 429q-68 -22 -135 -10q-99 15 -162 105q-55 87 -33 188z" />
<glyph unicode="&#xb7;" horiz-adv-x="409" d="M68 647q0 56 40 94.5t101 38.5q56 0 95.5 -39t39.5 -94q0 -51 -40 -90t-95 -39q-60 0 -100.5 38.5t-40.5 90.5z" />
<glyph unicode="&#xb8;" horiz-adv-x="749" d="M90 0h176q-2 -25 2 -84q153 37 230 39q88 -12 120 -53q34 -44 29 -123q-4 -100 -42.5 -191t-102.5 -155q-65 -69 -146 -92q-55 -11 -88 -7q-44 6 -78 33q0 -1 -6 4.5t-12.5 15.5t-7.5 19q0 20 14 27q1 1 51 18q36 -29 88 -4q65 30 121 123q35 58 49 125q10 40 11 63 t-5 34.5t-22.5 12t-38 -4.5t-54.5 -15q-17 -5 -26 -8q-85 -33 -135 -35h-12q-24 0 -51 20q-9 7 -15.5 15t-11 19.5t-7 18.5t-6.5 23t-5 21q-15 87 -19 141z" />
<glyph unicode="&#xb9;" horiz-adv-x="370" d="M61 1309v32l7 23q12 0 36 12q22 11 43 29l46 41q12 9 26.5 10t26.5 -10q1 -2 10 -19v-8q0 -8 -3 -25t-3 -20q-10 -102 -10 -262q1 -100 6.5 -239t5.5 -150q0 -12 -6 -16q-4 -9 -19 -9t-20 9q-2 8 -7 31.5t-9 41.5t-9 55.5t-8 82.5q-8 88 -8 270v123q-37 -28 -62 -37 q-12 -2 -28 10q-15 11 -15 25z" />
<glyph unicode="&#xba;" horiz-adv-x="702" d="M74 985q8 85 49 186q55 120 139 185q11 7 34.5 2.5t37.5 -17.5l8 -10q6 19 10 25q31 12 58 16q48 12 86 2q20 -6 43 -22l10 -15q19 -16 39 -55q31 -75 14 -166q-16 -80 -82 -182q-25 -43 -78 -100q-62 -62 -123 -93q-50 -24 -96 -24q-29 0 -67 18q-33 18 -50 53 q-21 44 -28 99t-4 98zM174 983q-6 -50 2 -96q4 -28 12 -45q6 -12 19 -25q11 -7 32 -3.5t42 15.5q34 16 79 58q83 77 117 145q48 94 45 164q0 33 -14 68q-4 8 -16 24l-9 10q-3 1 -9.5 4.5t-10.5 5.5t-11.5 3.5t-15.5 1.5q-9 0 -35.5 -5.5t-40.5 -2.5q-8 0 -8 4q0 -26 -12 -45 q-64 -37 -110 -111.5t-56 -169.5z" />
<glyph unicode="&#xbb;" horiz-adv-x="1198" d="M98 940q-12 35 13.5 70.5t61 54t52.5 14.5q138 -114 238 -217q57 -57 96 -104q52 -63 82 -115q11 -23 18 -45q6 -17 3.5 -38t-4 -33t-10.5 -30t-15 -27t-17 -26q-33 -41 -69 -77q-53 -51 -121 -107q-65 -50 -121 -85t-97 -56.5t-54 -30.5q-41 18 -51.5 38t-0.5 31l9 11 q18 17 44.5 40t66.5 57.5t65 56.5q62 52 112 102q69 66 107 119q3 4 9 14l1 2q-6 9 -16 25t-18 28.5t-17 22.5q-53 66 -117 123q-126 117 -250 182zM549 940q-12 35 13.5 70.5t61 54t52.5 14.5q133 -110 237 -217q63 -63 97 -104q52 -63 82 -115q11 -23 18 -45 q6 -17 3.5 -38t-4 -33t-10.5 -30t-15 -27t-17 -26q-29 -36 -70 -77q-60 -57 -120 -107q-65 -50 -121 -85t-97.5 -56.5t-54.5 -30.5q-41 18 -51.5 38t-0.5 31l9 11l176 154q68 57 113 102q66 63 106 119q3 4 8 12l3 4q-46 69 -52 76q-56 69 -116 123q-126 117 -250 182z" />
<glyph unicode="&#xbc;" horiz-adv-x="1560" d="M82 1308q0 7 1 15t1 12q3 19 8 29q13 0 45 16q22 11 53 35q5 5 15.5 14.5t21 18.5t21.5 18q16 11 33.5 12t31.5 -12q5 -7 13 -22v-10q0 -10 -3 -29.5t-4 -28.5q-12 -120 -12 -327q1 -122 8 -292t7 -194q-1 -14 -9 -20q-5 -11 -24 -11t-25 11q-2 13 -10.5 50.5t-16.5 89.5 t-14 124q-8 109 -8 338v153q-56 -39 -78 -47q-12 -2 -35 13q-18 14 -18 32q-2 5 -2 12zM176 38.5q0 9.5 3 15.5l3 7q13 27 183 345.5t297.5 595.5t173.5 464q38 27 76 12.5t66 -45t28 -49.5q-104 -236 -204 -441t-170 -335t-142 -249t-108.5 -172.5t-81.5 -116t-50 -70.5 q-29 -1 -47 5t-22.5 15t-4.5 18.5zM829 252v10v12v27l9 47q51 270 59 334q12 98 12 121q3 56 -10 86q-4 8 0 12q2 2 4.5 7.5t5.5 9.5q8 16 31 14q32 -34 41 -117q9 -81 -4 -207l-27 -164q-12 -60 -16 -96q-4 -12 -4 -20l39 14l133 49q72 27 155 45v66q-3 188 9 403 q5 10 21.5 18.5t35.5 8.5q44 -6 55 -18q5 -6 8 -13q-38 -145 -34 -452q45 5 108 -11q15 -6 23 -26.5t2 -40.5q-7 -20 -23 -31q-16 -16 -32 -16q-29 13 -76 16q9 -286 8 -311q0 -2 -0.5 -5.5t-3.5 -11t-8.5 -11t-17 -1t-27.5 13.5q-1 12 -13.5 79t-19.5 145q-8 58 -8 94 q-62 -12 -123 -33q-32 -9 -96.5 -32t-75.5 -27q-18 -8 -47 -15l-27 -6q-26 0 -41 6q-7 3 -15.5 11.5t-9.5 15.5z" />
<glyph unicode="&#xbd;" horiz-adv-x="1527" d="M82 1308q0 7 1 15t1 12q3 19 8 29q13 0 45 16q22 11 53 35q5 5 15.5 14.5t21 18.5t21.5 18q16 11 33.5 12t31.5 -12q5 -7 13 -22v-10q0 -10 -3 -29.5t-4 -28.5q-12 -120 -12 -327q1 -122 8 -292t7 -194q-1 -14 -9 -20q-5 -11 -24 -11t-25 11q-2 13 -10.5 50.5t-16.5 89.5 t-14 124q-8 109 -8 338v153q-56 -39 -78 -47q-12 -2 -35 13q-18 14 -18 32q-2 5 -2 12zM197 38.5q0 9.5 3 15.5l3 7q27 55 135 258.5t199.5 381.5t187.5 399.5t131 365.5q38 27 76 12.5t66 -45t28 -49.5q-104 -236 -204 -441t-170 -335t-142 -249t-108.5 -172.5t-81.5 -116 t-50 -70.5q-29 -1 -46.5 5t-22 15t-4.5 18.5zM795 645q64 104 186 189q45 31 123 71q102 35 156 29q53 -4 86 -37q31 -36 43 -78q16 -70 -5 -155q-36 -135 -133 -267q-52 -76 -172 -223q-44 -51 -73 -80q185 20 200 21q120 7 180 0q31 -5 54 -21q23 -20 12 -31 q-2 -2 -7.5 -2.5t-15 -3t-18.5 -6.5q-41 10 -176 -4q-51 -5 -141 -22l-88 -15l-50 -8l-6 -2q-2 -2 -6 -2h-10h-6q-1 0 -13 4l-10 6q-5 3 -10 12q-14 19 -10 27v8q0 6 2 6q6 21 10 27q3 9 8 14q20 31 76 99q56 64 88 104q129 167 178 262q46 93 53 164q0 58 -8 78 q-4 8 -16 20q-7 7 -21 9q-29 6 -86 -15q-49 -21 -98 -55q-117 -76 -170 -174q-15 -22 -67 -33q-24 -3 -37 10q-15 27 -2 74z" />
<glyph unicode="&#xbe;" horiz-adv-x="1888" d="M84 799q0 33 10 53q12 16 23 16q10 -7 24 -34q0 -51 4 -80q7 -61 37 -95q34 -40 117 -28q69 13 182 76q70 40 107 65q3 3 14 12.5t15 13t13.5 12t14.5 14t12 13.5t12 15t9 14q16 29 16 49q0 22 -14 39q-17 20 -54 33t-75 12q-17 0 -68 -7.5t-80 -2.5q-33 5 -59 31 q-14 14 -22 43q-3 20 0 35q7 31 14 43q16 36 72 110l51 66q-87 -41 -191 -68q-22 -3 -46.5 7.5t-33.5 27.5q-27 39 45 78q115 20 250 80l68 24q44 18 65 21q53 0 58 -53q-9 -36 -51 -82l-52 -58q-49 -52 -100 -116q-4 -6 -19.5 -28.5t-21.5 -35.5q-16 -31 -2.5 -36.5 t43.5 3.5q8 2 12 2.5t10.5 1.5t12.5 2q35 5 45 5q100 3 170 -52q42 -30 59 -77q16 -49 0 -95q-27 -71 -102 -135q-50 -43 -125 -86q-84 -45 -127 -61q-73 -27 -137 -35q-36 -3 -74 6q-37 11 -65 33q-46 41 -62 115q-7 44 -4 94zM508 38.5q0 9.5 3 15.5l3 7q27 55 135 258.5 t199.5 381.5t187.5 399.5t131 365.5q38 27 76 12.5t66 -45t28 -49.5q-104 -236 -204 -441t-170 -335t-141.5 -249t-107.5 -172t-81.5 -116.5t-50.5 -70.5q-29 -1 -47 5t-22.5 15t-4.5 18.5zM1157 262v12q0 17 2 27l6 47q58 304 62 334q10 82 10 121q0 69 -10 86q-2 8 0 12 q2 2 4.5 7.5t5.5 9.5q16 16 31 14q32 -34 41 -117q12 -82 -6 -207q-6 -65 -25 -164q-4 -28 -16 -96l-5 -20l39 14q17 6 63 23t73 26q72 27 155 45q-2 20 -2 66q-4 205 10 403q3 10 20 18.5t38 8.5q2 0 7.5 -1t7.5 -1.5t7 -1.5l7.5 -1.5t7 -2t6.5 -3t5.5 -3.5t6 -4.5 t4.5 -5.5t4 -7q-41 -147 -37 -452q47 5 111 -11q14 -6 21 -26.5t1 -40.5q-6 -17 -20 -31q-20 -16 -33 -16q-29 13 -76 16q1 -59 5.5 -167t3.5 -144q0 -2 -0.5 -5.5t-4 -11t-9 -11t-17.5 -1t-27 13.5q-1 5 -14.5 74.5t-20.5 149.5q-4 33 -8 94q-59 -12 -123 -33 q-29 -9 -88 -30t-84 -29q-15 -8 -45 -15l-26 -6q-27 0 -41 6q-21 7 -25 27q0 2 -1 5t-1 5z" />
<glyph unicode="&#xbf;" horiz-adv-x="944" d="M78 -211q0 45 2 68q9 69 33 131q30 85 112 209q81 113 99 151q25 54 14 88q-4 13 0 25q4 15 18 22q26 15 56 9q21 -33 28 -70q7 -48 -8 -105q-8 -27 -24 -61t-30 -59.5t-41 -72t-42 -73.5q-54 -98 -66 -182q-9 -47 -2 -105q8 -41 35 -59q40 -24 105 -18q71 3 145 41 q82 42 127 104q50 73 33 156q3 11 22 32t43 39q72 48 117 -26q20 -143 -57 -262q-71 -112 -205 -177q-141 -67 -270 -59q-85 7 -146 49q-71 49 -88 131q-6 21 -6 39zM326 903q0 50 33 84.5t79 34.5t79.5 -34.5t33.5 -84.5q0 -49 -33.5 -84t-79.5 -35t-79 35t-33 84z" />
<glyph unicode="&#xc0;" horiz-adv-x="1054" d="M-20 414q29 52 75 98q1 14 29 324q29 281 61 421q16 58 35 109q12 28 22 45.5t29 37t43 28.5q29 7 53.5 2t41.5 -17q30 -20 49 -39q20 -20 74 -88q87 -129 200 -364l43 -94l160 51q15 -2 38.5 -35t33.5 -71.5t-9 -69.5q-68 -6 -157 -25l43 -100q120 -289 205 -533 q1 -3 2.5 -8t5 -19t4 -26t-2.5 -23.5t-10.5 -17t-24.5 -2t-42 17.5q-23 52 -120.5 258.5t-192.5 413.5q-119 -40 -236 -94q-100 -47 -215 -115q-8 -245 -10 -395q-5 -26 -30 -49.5t-55 -33t-60 10t-44 72.5l25 274q-4 0 -8 2q-36 18 -55 54zM221 1896q2 19 60 66.5t92 42.5 q13 -72 40.5 -134t51 -94t63.5 -78.5t56 -68.5q2 -3 3.5 -8t-14 -20.5t-53.5 -30.5q-65 35 -142.5 113t-156.5 212zM225 647q155 97 377 180q-97 198 -100 203q-59 109 -111 189q-33 51 -65 86l-7 6q-12 -29 -12 -31q-10 -33 -31 -131q-18 -106 -36 -313q-8 -86 -15 -189z M479 1536l2 -2z" />
<glyph unicode="&#xc1;" horiz-adv-x="1054" d="M-20 414q29 52 75 98q1 14 29 324q29 281 61 421q16 58 35 109q12 28 22 45.5t29 37t43 28.5q29 7 53.5 2t41.5 -17q30 -20 49 -39q20 -20 74 -88q87 -129 200 -364l43 -94l160 51q15 -2 38.5 -35t33.5 -71.5t-9 -69.5q-68 -6 -157 -25l43 -100q120 -289 205 -533 q1 -3 2.5 -8t5 -19t4 -26t-2.5 -23.5t-10.5 -17t-24.5 -2t-42 17.5q-23 52 -120.5 258.5t-192.5 413.5q-119 -40 -236 -94q-100 -47 -215 -115q-8 -245 -10 -395q-5 -26 -30 -49.5t-55 -33t-60 10t-44 72.5l25 274q-4 0 -8 2q-36 18 -55 54zM97 1602l3 8q16 22 56 68.5 t63.5 78.5t51 94t40.5 134q34 5 92 -42.5t60 -66.5q-141 -240 -299 -326q-38 15 -54 30t-13 22zM225 647q155 97 377 180q-97 198 -100 203q-59 109 -111 189q-33 51 -65 86l-7 6q-12 -29 -12 -31q-10 -33 -31 -131q-18 -106 -36 -313q-8 -86 -15 -189z" />
<glyph unicode="&#xc2;" horiz-adv-x="1054" d="M-46 1608l3 8q16 22 56 68.5t63.5 78.5t51 94t40.5 134q74 24 129 23t76 -23q13 -72 40.5 -134t51 -94t63.5 -78.5t56 -68.5q2 -3 3.5 -8.5t-14 -21t-53.5 -30.5q-128 67 -250 248q-124 -179 -250 -248q-38 15 -54 30t-12 22zM-20 414q29 52 75 98q1 14 29 324 q29 281 61 421q16 58 35 109q12 28 22 45.5t29 37t43 28.5q29 7 53.5 2t41.5 -17q30 -20 49 -39q20 -20 74 -88q87 -129 200 -364l43 -94l160 51q15 -2 38.5 -35t33.5 -71.5t-9 -69.5q-68 -6 -157 -25l43 -100q120 -289 205 -533q1 -3 2.5 -8t5 -19t4 -26t-2.5 -23.5 t-10.5 -17t-24.5 -2t-42 17.5q-23 52 -120.5 258.5t-192.5 413.5q-119 -40 -236 -94q-100 -47 -215 -115q-8 -245 -10 -395q-5 -26 -30 -49.5t-55 -33t-60 10t-44 72.5l25 274q-4 0 -8 2q-36 18 -55 54zM225 647q155 97 377 180q-97 198 -100 203q-59 109 -111 189 q-33 51 -65 86l-7 6q-12 -29 -12 -31q-10 -33 -31 -131q-18 -106 -36 -313q-8 -86 -15 -189z" />
<glyph unicode="&#xc3;" horiz-adv-x="1054" d="M-20 414q29 52 75 98q1 14 29 324q29 281 61 421q16 58 35 109q12 28 22 45.5t29 37t43 28.5q29 7 53.5 2t41.5 -17q30 -20 49 -39q20 -20 74 -88q87 -129 200 -364l43 -94l160 51q15 -2 38.5 -35t33.5 -71.5t-9 -69.5q-68 -6 -157 -25l43 -100q120 -289 205 -533 q1 -3 2.5 -8t5 -19t4 -26t-2.5 -23.5t-10.5 -17t-24.5 -2t-42 17.5q-23 52 -120.5 258.5t-192.5 413.5q-119 -40 -236 -94q-100 -47 -215 -115q-8 -245 -10 -395q-5 -26 -30 -49.5t-55 -33t-60 10t-44 72.5l25 274q-4 0 -8 2q-36 18 -55 54zM12 1620q24 115 37 158 q15 56 45 90q17 24 45 38t54 13q43 2 92 -21q12 -4 24.5 -10t27.5 -14t23 -12q82 -54 136 -88q94 -56 129 -70q66 -29 100 -14q25 12 37 59q10 38 14 82q0 2 0.5 6t4.5 11.5t10.5 11t21.5 0t35 -16.5q6 -87 4 -112q-9 -63 -35 -99q-19 -35 -53 -51q-40 -19 -80 -16 q-38 2 -74 12t-85 36t-70 38.5t-86 52.5q-12 6 -41.5 24t-46.5 27q-56 27 -78 27h-6q-7 0 -15 -27q-14 -40 -18 -135q-7 -13 -37 -27t-65.5 -10.5t-49.5 37.5zM225 647q155 97 377 180q-97 198 -100 203q-59 109 -111 189q-33 51 -65 86l-7 6q-12 -29 -12 -31 q-10 -33 -31 -131q-18 -106 -36 -313q-8 -86 -15 -189z" />
<glyph unicode="&#xc4;" horiz-adv-x="1054" d="M-43 1694q0 56 40 94.5t101 38.5q56 0 95.5 -39t39.5 -94q0 -51 -40 -90t-95 -39q-60 0 -100.5 38.5t-40.5 90.5zM-20 414q29 52 75 98q1 14 29 324q29 281 61 421q16 58 35 109q12 28 22 45.5t29 37t43 28.5q29 7 53.5 2t41.5 -17q30 -20 49 -39q20 -20 74 -88 q87 -129 200 -364l43 -94l160 51q15 -2 38.5 -35t33.5 -71.5t-9 -69.5q-68 -6 -157 -25l43 -100q120 -289 205 -533q1 -3 2.5 -8t5 -19t4 -26t-2.5 -23.5t-10.5 -17t-24.5 -2t-42 17.5q-23 52 -120.5 258.5t-192.5 413.5q-119 -40 -236 -94q-100 -47 -215 -115 q-8 -245 -10 -395q-5 -26 -30 -49.5t-55 -33t-60 10t-44 72.5l25 274q-4 0 -8 2q-36 18 -55 54zM225 647q155 97 377 180q-97 198 -100 203q-59 109 -111 189q-33 51 -65 86l-7 6q-12 -29 -12 -31q-10 -33 -31 -131q-18 -106 -36 -313q-8 -86 -15 -189zM362 1694 q0 56 40.5 94.5t101.5 38.5q56 0 95.5 -39t39.5 -94q0 -51 -40 -90t-95 -39q-60 0 -101 38.5t-41 90.5z" />
<glyph unicode="&#xc5;" horiz-adv-x="1054" d="M-20 414q29 52 75 98q1 14 29 324q29 281 61 421q16 58 35 109q5 15 17 35q-18 14 -23 20q-43 38 -65.5 96.5t-12.5 124.5q14 77 64 130q59 65 145 77q99 13 176 -43q89 -62 101 -164q-2 -14 -23.5 -28t-48.5 -17q-6 -2 -16 -2l26 -10q5 -60 -12 -102q-14 -40 -51 -72 l-17 -12l52 -64q87 -129 200 -364l43 -94l160 51q15 -2 38.5 -35t33.5 -71.5t-9 -69.5q-68 -6 -157 -25l43 -100q120 -289 205 -533q1 -3 2.5 -8t5 -19t4 -26t-2.5 -23.5t-10.5 -17t-24.5 -2t-42 17.5q-23 52 -120.5 258.5t-192.5 413.5q-119 -40 -236 -94 q-100 -47 -215 -115q-8 -245 -10 -395q-5 -26 -30 -49.5t-55 -33t-60 10t-44 72.5l25 274q-4 0 -8 2q-36 18 -55 54zM225 647q155 97 377 180q-97 198 -100 203q-59 109 -111 189q-33 51 -65 86l-7 6q-12 -29 -12 -31q-10 -33 -31 -131q-18 -106 -36 -313q-8 -86 -15 -189z M229 1567q17 -53 62 -72q40 -18 80 -4q31 12 48 37.5t21 50.5q1 8 11 14q2 0 4 2q-23 3 -37 17q11 32 -12 65q-28 35 -76 35q-52 0 -84 -47q-30 -45 -17 -98z" />
<glyph unicode="&#xc6;" horiz-adv-x="1851" d="M-20 414q29 52 75 98q1 14 29 324q29 281 61 421q16 58 35 109q12 28 22 45.5t29 37t43 28.5q29 7 53.5 2t41.5 -17q30 -20 49 -39q20 -20 74 -88q87 -129 200 -364l109 -244l43 -100l57 -144q-4 59 -8 183q-16 -4 -23 -4q-12 4 -29.5 41t-24 77.5t10.5 67.5q4 -1 64 -6 q-3 141 4 370l-98 -8q-13 8 -27 47t-16 80t22 66q71 -15 125 -17q0 39 2 62q8 18 46 34t82 9.5t61 -45.5l-13 -58q147 9 379.5 51t249.5 44q6 1 12.5 -1.5t18 -21t-3.5 -65.5q-8 -3 -66.5 -29t-116 -46.5t-191.5 -46.5t-304 -42q-17 -169 -17 -373q99 15 216.5 47t225 66.5 t140.5 42.5l12 -1q28 -10 23 -85q-2 -1 -56 -36t-104 -60t-173.5 -65t-283.5 -71q2 -102 9 -268.5t8 -210.5q122 41 255 106.5t251 130.5t161 84q5 3 13 4.5t22 -17t17 -62.5q-12 -9 -42.5 -39.5t-71.5 -63t-112 -79t-197.5 -108.5t-293.5 -130q1 -17 -4 -27.5t-19.5 -13 t-40.5 11.5l-69 -24q-15 2 -40.5 34.5t-39 71.5t3.5 72q19 0 59 8q-174 372 -241 518q-119 -40 -236 -94q-100 -47 -215 -115q-8 -245 -10 -395q-5 -26 -30 -49.5t-55 -33t-60 10t-44 72.5l25 274q-4 0 -8 2q-36 18 -55 54zM225 647q155 97 377 180q-97 198 -100 203 q-59 109 -111 189q-33 51 -65 86l-7 6q-12 -29 -12 -31q-10 -33 -31 -131q-18 -106 -36 -313q-8 -86 -15 -189z" />
<glyph unicode="&#xc7;" horiz-adv-x="942" d="M23 537q-13 131 2 268q17 166 79 297q78 178 230 276q163 106 379 99q26 -5 50 -32t28 -59q14 -73 -78 -98q-144 21 -256 -31q-136 -62 -207 -210q-71 -141 -82 -326t33 -344q24 -95 57 -154q40 -76 86 -82q43 -6 107 41q41 32 104 99q44 51 89 112t69 96.5t66.5 101.5 t49.5 77q3 5 8 11.5t18.5 19t25.5 15.5t25.5 -10.5t21.5 -48.5q-12 -21 -45 -87t-60 -115q-48 -86 -94 -156q-89 -128 -164 -199q-67 -58 -119 -78q0 -5 5 -63q153 37 229 39q89 -12 121 -53q33 -43 28 -123q-4 -100 -42.5 -191t-102.5 -155q-66 -69 -145 -92 q-55 -11 -88 -7q-44 6 -78 33q0 -1 -6.5 4.5t-13 15.5t-7.5 19q0 20 14 27q4 3 11.5 5.5t20 6t20.5 6.5q36 -29 88 -4q65 30 121 123q35 58 49 125q10 40 11 63t-5 34.5t-22.5 12t-38 -4.5t-54.5 -15q-17 -5 -26 -8q-85 -33 -136 -35h-12q-24 0 -51 20q-9 7 -15.5 15 t-11 19.5t-7 18.5t-6.5 23t-5 21q-17 108 -17 112q-4 0 -4 2q-54 23 -102 82q-56 73 -98 207q-35 110 -47 234z" />
<glyph unicode="&#xc8;" horiz-adv-x="1009" d="M-14 1331q-2 41 22 66q71 -15 125 -17q0 39 2 62q8 18 46 34t82 9.5t61 -45.5l-13 -58q147 9 379.5 51t249.5 44q6 1 12.5 -1.5t18 -21t-3.5 -65.5q-8 -3 -66.5 -29t-116 -46.5t-191.5 -46.5t-304 -42q-17 -169 -17 -373q99 15 216.5 47t225 66.5t140.5 42.5l12 -1 q28 -10 23 -85q-2 -1 -56 -36t-104 -60t-173.5 -65t-283.5 -71q2 -102 9 -268.5t8 -210.5q122 41 255 106.5t251 130.5t161 84q5 3 13 4.5t22 -17t17 -62.5q-12 -9 -42.5 -39.5t-71.5 -63t-112.5 -79t-198 -108.5t-294.5 -130q-9 -30 -47 -23l-84 -30q-15 2 -40.5 34.5 t-39 71.5t3.5 72q36 3 92 16q-40 205 -49 488q-16 -4 -23 -4q-12 4 -29.5 41t-24 77.5t10.5 67.5q4 -1 64 -6q-3 141 4 370l-98 -8q-13 8 -27 47t-16 80zM201 1876q2 19 59.5 66.5t91.5 42.5q13 -72 40.5 -134t51 -94t63.5 -78.5t56 -68.5q3 -3 4 -8.5t-14 -21t-53 -30.5 q-158 86 -299 326z" />
<glyph unicode="&#xc9;" horiz-adv-x="1009" d="M-14 1331q-2 41 22 66q71 -15 125 -17q0 39 2 62q8 18 46 34t82 9.5t61 -45.5l-13 -58q147 9 379.5 51t249.5 44q6 1 12.5 -1.5t18 -21t-3.5 -65.5q-8 -3 -66.5 -29t-116 -46.5t-191.5 -46.5t-304 -42q-17 -169 -17 -373q99 15 216.5 47t225 66.5t140.5 42.5l12 -1 q28 -10 23 -85q-2 -1 -56 -36t-104 -60t-173.5 -65t-283.5 -71q2 -102 9 -268.5t8 -210.5q122 41 255 106.5t251 130.5t161 84q5 3 13 4.5t22 -17t17 -62.5q-12 -9 -42.5 -39.5t-71.5 -63t-112.5 -79t-198 -108.5t-294.5 -130q-9 -30 -47 -23l-84 -30q-15 2 -40.5 34.5 t-39 71.5t3.5 72q36 3 92 16q-40 205 -49 488q-16 -4 -23 -4q-12 4 -29.5 41t-24 77.5t10.5 67.5q4 -1 64 -6q-3 141 4 370l-98 -8q-13 8 -27 47t-16 80zM322 1602l4 8q16 22 56 68.5t63.5 78.5t51 94t40.5 134q34 5 91.5 -42.5t59.5 -66.5q-141 -240 -299 -326 q-38 15 -54 30t-13 22z" />
<glyph unicode="&#xca;" horiz-adv-x="1009" d="M-14 1331q-2 41 22 66q71 -15 125 -17q0 39 2 62q8 18 46 34t82 9.5t61 -45.5l-13 -58q147 9 379.5 51t249.5 44q6 1 12.5 -1.5t18 -21t-3.5 -65.5q-8 -3 -66.5 -29t-116 -46.5t-191.5 -46.5t-304 -42q-17 -169 -17 -373q99 15 216.5 47t225 66.5t140.5 42.5l12 -1 q28 -10 23 -85q-2 -1 -56 -36t-104 -60t-173.5 -65t-283.5 -71q2 -102 9 -268.5t8 -210.5q122 41 255 106.5t251 130.5t161 84q5 3 13 4.5t22 -17t17 -62.5q-12 -9 -42.5 -39.5t-71.5 -63t-112.5 -79t-198 -108.5t-294.5 -130q-9 -30 -47 -23l-84 -30q-15 2 -40.5 34.5 t-39 71.5t3.5 72q36 3 92 16q-40 205 -49 488q-16 -4 -23 -4q-12 4 -29.5 41t-24 77.5t10.5 67.5q4 -1 64 -6q-3 141 4 370l-98 -8q-13 8 -27 47t-16 80zM200 1608l3 8q16 22 56 68.5t63.5 78.5t51 94t40.5 134q74 24 128.5 23t75.5 -23q13 -72 40.5 -134t51 -94t63.5 -78.5 t56 -68.5q3 -3 4 -8.5t-14 -21t-53 -30.5q-128 67 -250 248q-124 -179 -250 -248q-38 15 -54 30t-12 22z" />
<glyph unicode="&#xcb;" horiz-adv-x="1009" d="M-14 1331q-2 41 22 66q71 -15 125 -17q0 39 2 62q8 18 46 34t82 9.5t61 -45.5l-13 -58q147 9 379.5 51t249.5 44q6 1 12.5 -1.5t18 -21t-3.5 -65.5q-8 -3 -66.5 -29t-116 -46.5t-191.5 -46.5t-304 -42q-17 -169 -17 -373q99 15 216.5 47t225 66.5t140.5 42.5l12 -1 q28 -10 23 -85q-2 -1 -56 -36t-104 -60t-173.5 -65t-283.5 -71q2 -102 9 -268.5t8 -210.5q122 41 255 106.5t251 130.5t161 84q5 3 13 4.5t22 -17t17 -62.5q-12 -9 -42.5 -39.5t-71.5 -63t-112.5 -79t-198 -108.5t-294.5 -130q-9 -30 -47 -23l-84 -30q-15 2 -40.5 34.5 t-39 71.5t3.5 72q36 3 92 16q-40 205 -49 488q-16 -4 -23 -4q-12 4 -29.5 41t-24 77.5t10.5 67.5q4 -1 64 -6q-3 141 4 370l-98 -8q-13 8 -27 47t-16 80zM164 1692q0 56 40 94.5t101 38.5q56 0 95.5 -39t39.5 -94q0 -51 -40 -90t-95 -39q-60 0 -100.5 38.5t-40.5 90.5z M569 1692q0 56 40.5 94.5t101.5 38.5q56 0 95.5 -39t39.5 -94q0 -51 -40 -90t-95 -39q-60 0 -101 38.5t-41 90.5z" />
<glyph unicode="&#xcc;" horiz-adv-x="559" d="M15.5 1400.5q-3.5 70.5 11.5 102.5q43 -32 106.5 -42.5t114.5 -5.5t110.5 13.5t77.5 8.5l6 -3q13 -16 2 -85q-5 -3 -22 -16t-42 -27t-58 -23q-13 -104 -15 -224.5t7.5 -267t17 -232.5t26 -251t21.5 -192q27 3 78.5 10.5t68.5 7.5l6 -3q14 -16 3 -85q-4 -2 -25 -18 t-50.5 -30.5t-68.5 -23.5q-1 -9 -4.5 -15.5t-12 -13t-26.5 -4t-43 14.5q0 1 -1 3t-1 3q-97 -4 -186 10q-8 15 -11.5 86t11.5 103q50 -40 141 -47q-99 354 -117 1149q-47 3 -114 12q-8 15 -11.5 85.5zM139 1876q2 19 60 66.5t92 42.5q13 -72 40.5 -134t51 -94t63.5 -78.5 t56 -68.5q2 -3 3.5 -8.5t-14 -21t-53.5 -30.5q-158 86 -299 326z" />
<glyph unicode="&#xcd;" horiz-adv-x="559" d="M15 1602l3 8q16 22 56 68.5t63.5 78.5t51 94t40.5 134q34 5 92 -42.5t60 -66.5q-141 -240 -299 -326q-38 15 -54 30t-13 22zM15.5 1400.5q-3.5 70.5 11.5 102.5q43 -32 106.5 -42.5t114.5 -5.5t110.5 13.5t77.5 8.5l6 -3q13 -16 2 -85q-5 -3 -22 -16t-42 -27t-58 -23 q-13 -104 -15 -224.5t7.5 -267t17 -232.5t26 -251t21.5 -192q27 3 78.5 10.5t68.5 7.5l6 -3q14 -16 3 -85q-4 -2 -25 -18t-50.5 -30.5t-68.5 -23.5q-1 -9 -4.5 -15.5t-12 -13t-26.5 -4t-43 14.5q0 1 -1 3t-1 3q-97 -4 -186 10q-8 15 -11.5 86t11.5 103q50 -40 141 -47 q-99 354 -117 1149q-47 3 -114 12q-8 15 -11.5 85.5z" />
<glyph unicode="&#xce;" horiz-adv-x="559" d="M-108 1608l4 8q16 21 55.5 68t63.5 79t51 94t40 134q74 24 129 23t76 -23q13 -72 40.5 -134t51 -94t63.5 -78.5t56 -68.5q3 -3 4 -8.5t-14 -21t-53 -30.5q-128 67 -250 248q-124 -179 -250 -248q-38 15 -54 30t-13 22zM15.5 1400.5q-3.5 70.5 11.5 102.5 q43 -32 106.5 -42.5t114.5 -5.5t110.5 13.5t77.5 8.5l6 -3q13 -16 2 -85q-5 -3 -22 -16t-42 -27t-58 -23q-13 -104 -15 -224.5t7.5 -267t17 -232.5t26 -251t21.5 -192q27 3 78.5 10.5t68.5 7.5l6 -3q14 -16 3 -85q-4 -2 -25 -18t-50.5 -30.5t-68.5 -23.5q-1 -9 -4.5 -15.5 t-12 -13t-26.5 -4t-43 14.5q0 1 -1 3t-1 3q-97 -4 -186 10q-8 15 -11.5 86t11.5 103q50 -40 141 -47q-99 354 -117 1149q-47 3 -114 12q-8 15 -11.5 85.5z" />
<glyph unicode="&#xcf;" horiz-adv-x="559" d="M-129 1690q0 56 40 94.5t101 38.5q56 0 95.5 -39t39.5 -94q0 -51 -40 -90t-95 -39q-60 0 -100.5 38.5t-40.5 90.5zM15.5 1400.5q-3.5 70.5 11.5 102.5q43 -32 106.5 -42.5t114.5 -5.5t110.5 13.5t77.5 8.5l6 -3q13 -16 2 -85q-5 -3 -22 -16t-42 -27t-58 -23 q-13 -104 -15 -224.5t7.5 -267t17 -232.5t26 -251t21.5 -192q27 3 78.5 10.5t68.5 7.5l6 -3q14 -16 3 -85q-4 -2 -25 -18t-50.5 -30.5t-68.5 -23.5q-1 -9 -4.5 -15.5t-12 -13t-26.5 -4t-43 14.5q0 1 -1 3t-1 3q-97 -4 -186 10q-8 15 -11.5 86t11.5 103q50 -40 141 -47 q-99 354 -117 1149q-47 3 -114 12q-8 15 -11.5 85.5zM276 1690q0 56 40.5 94.5t101.5 38.5q56 0 95.5 -39t39.5 -94q0 -51 -40 -90t-95 -39q-60 0 -101 38.5t-41 90.5z" />
<glyph unicode="&#xd0;" horiz-adv-x="1363" d="M79.5 1080.5q-8.5 32.5 20.5 90.5q22 19 37 31t31 23.5t24.5 17.5t32.5 22t41 27q5 121 6 142q8 17 46 31.5t82 9t61 -42.5q-2 -10 -6.5 -17t-5.5 -16q93 49 196 69q117 21 215 -4q101 -25 189 -110q31 -29 73 -78q4 -7 18.5 -29.5t23 -37.5t14.5 -31q40 -97 30 -217 q-8 -99 -43.5 -184.5t-95.5 -184.5q-96 -154 -225 -283q-253 -250 -467 -305q-5 -1 -12 -2.5t-27.5 -3.5t-32.5 4q-26 6 -26 25q0 15 30 55q22 4 31 8q-2 12 -19 84.5t-32 177t-23 246.5q-134 -10 -143 -10q-14 8 -25.5 45.5t-7.5 81.5t33 61q26 -7 52 -17t44 -14.5t43 -7.5 q-5 124 -2 328l-20 -23q-21 -14 -55 -16t-64 10q-33 12 -41.5 44.5zM410 729q64 0 174 11.5t166 11.5h5.5t11 -4.5t11.5 -12.5t2 -26.5t-12 -44.5q-11 -2 -64.5 -15.5t-120.5 -24t-171 -18.5q3 -95 10 -257t8 -218q22 13 88 59q171 134 311 308q4 5 19.5 25t21 27t19.5 25.5 t21 28.5t19.5 28t20 31t18 30.5t19.5 35t17 35.5q98 213 34 358q-17 40 -55 83.5t-82 74.5q-95 60 -215 37q-109 -21 -264 -119q-19 -204 -12 -469z" />
<glyph unicode="&#xd1;" horiz-adv-x="1042" d="M33 1378q4 11 20 21q-7 24 -2 41q4 16 24 30t54 15q64 -21 119 -80q29 -33 67 -96q31 -49 103 -203q22 -48 59.5 -130t68.5 -150t58 -130q111 -265 180 -395q39 -77 70 -121q0 20 -1 89.5t-1 121.5l-6 402q0 15 -2 115.5t-4 160.5q-1 23 -11 162q-8 107 -20 155 q1 5 10 14t25.5 23.5t27.5 26.5q31 31 52 31q39 0 63 -35q6 -51 6 -176v-187q0 -64 1 -195.5t1 -197.5q0 -208 -12 -375q-14 -177 -47 -266q8 -24 -6 -47q-8 -4 -28.5 -1.5t-27.5 9.5q-2 0 -8 6l-8 7q-38 23 -72 57q-80 86 -159 229q-61 104 -207 436q-23 51 -137 285 q-58 113 -82 150q-8 -181 7 -409.5t39 -448.5t27 -281q-1 0 0.5 -7t-3.5 -15.5t-12 -15t-26 -5t-45 13.5l-30 115q-31 115 -51.5 224.5t-44 387.5t-29.5 639zM94 1620q24 115 37 158q15 56 45 90q18 24 45 38t53 13q44 2 93 -21q12 -4 24.5 -10t27.5 -14t23 -12 q82 -54 136 -88q94 -56 129 -70q66 -29 100 -14q25 12 37 59q10 38 14 82q0 2 0.5 6t4.5 11.5t10.5 11t21.5 0t35 -16.5q6 -87 4 -112q-9 -63 -35 -99q-19 -35 -53 -51q-40 -19 -80 -16q-38 2 -74 12t-85 36t-70 38.5t-86 52.5q-11 6 -41.5 24t-47.5 27q-56 27 -77 27h-6 q-7 0 -15 -27q-14 -40 -18 -135q-7 -13 -37 -27t-65.5 -10.5t-49.5 37.5z" />
<glyph unicode="&#xd2;" horiz-adv-x="1200" d="M57 1042q28 123 97 238q86 132 208 190q32 14 82 3q37 -12 58 -43q16 -25 2 -60q-12 -25 -55 -61q-67 -22 -126.5 -92t-91.5 -164q-70 -192 -22 -418q24 -114 79 -216.5t138 -174.5q89 -79 195 -94q109 -12 200 45q85 56 140 161q48 95 63 203q27 205 -39 399 q-57 171 -176 287q-100 97 -211 111q-34 4 -61 12q-23 8 -25 25q-4 21 35 53q163 12 309 -96q101 -74 174 -189q92 -149 125 -327q43 -248 -35 -467q-63 -164 -170 -254q-65 -59 -159 -90q-99 -29 -199 -15q-186 28 -344 203q-132 160 -185 375q-58 232 -6 456zM467 1876 q2 19 59.5 66.5t91.5 42.5q13 -72 40.5 -134t51 -94t63.5 -78.5t56 -68.5q3 -3 4 -8.5t-14 -21t-53 -30.5q-158 86 -299 326z" />
<glyph unicode="&#xd3;" horiz-adv-x="1200" d="M57 1042q28 123 97 238q86 132 208 190q32 14 82 3q37 -12 58 -43q16 -25 2 -60q-12 -25 -55 -61q-67 -22 -126.5 -92t-91.5 -164q-70 -192 -22 -418q24 -114 79 -216.5t138 -174.5q89 -79 195 -94q109 -12 200 45q85 56 140 161q48 95 63 203q27 205 -39 399 q-57 171 -176 287q-100 97 -211 111q-34 4 -61 12q-23 8 -25 25q-4 21 35 53q163 12 309 -96q101 -74 174 -189q92 -149 125 -327q43 -248 -35 -467q-63 -164 -170 -254q-65 -59 -159 -90q-99 -29 -199 -15q-186 28 -344 203q-132 160 -185 375q-58 232 -6 456zM343 1602 l3 8q16 22 56 68.5t63.5 78.5t51 94t40.5 134q34 5 92 -42.5t60 -66.5q-141 -240 -299 -326q-38 15 -54 30t-13 22z" />
<glyph unicode="&#xd4;" horiz-adv-x="1200" d="M57 1042q28 123 97 238q86 132 208 190q32 14 82 3q37 -12 58 -43q16 -25 2 -60q-12 -25 -55 -61q-67 -22 -126.5 -92t-91.5 -164q-70 -192 -22 -418q24 -114 79 -216.5t138 -174.5q89 -79 195 -94q109 -12 200 45q85 56 140 161q48 95 63 203q27 205 -39 399 q-57 171 -176 287q-100 97 -211 111q-34 4 -61 12q-23 8 -25 25q-4 21 35 53q163 12 309 -96q101 -74 174 -189q92 -149 125 -327q43 -248 -35 -467q-63 -164 -170 -254q-65 -59 -159 -90q-99 -29 -199 -15q-186 28 -344 203q-132 160 -185 375q-58 232 -6 456zM240 1608 l4 8q16 22 56 68.5t63.5 78.5t51 94t40.5 134q74 24 128.5 23t75.5 -23q13 -72 40.5 -134t51 -94t63.5 -78.5t56 -68.5q3 -3 4 -8.5t-14 -21t-53 -30.5q-128 67 -250 248q-124 -179 -250 -248q-38 15 -54 30t-13 22z" />
<glyph unicode="&#xd5;" horiz-adv-x="1200" d="M57 1042q28 123 97 238q86 132 208 190q32 14 82 3q37 -12 58 -43q16 -25 2 -60q-12 -25 -55 -61q-67 -22 -126.5 -92t-91.5 -164q-70 -192 -22 -418q24 -114 79 -216.5t138 -174.5q89 -79 195 -94q109 -12 200 45q85 56 140 161q48 95 63 203q27 205 -39 399 q-57 171 -176 287q-100 97 -211 111q-34 4 -61 12q-23 8 -25 25q-4 21 35 53q163 12 309 -96q101 -74 174 -189q92 -149 125 -327q43 -248 -35 -467q-63 -164 -170 -254q-65 -59 -159 -90q-99 -29 -199 -15q-186 28 -344 203q-132 160 -185 375q-58 232 -6 456zM197 1620 q25 124 36 158q15 54 46 90q18 24 45 38t53 13q43 2 92 -21q4 -2 76 -36q102 -67 135 -88q94 -56 129 -70q66 -29 100 -14q25 12 37 59q12 43 15 82q0 2 0.5 6t4 11.5t10 11t21.5 0t35 -16.5q6 -87 4 -112q-9 -63 -35 -99q-19 -35 -53 -51q-40 -19 -80 -16q-38 2 -74 12 t-85 36t-70 38.5t-86 52.5q-12 6 -41.5 24t-46.5 27q-56 27 -78 27h-6q-6 0 -14 -27q-16 -43 -19 -135q-7 -13 -36.5 -27t-65 -10.5t-49.5 37.5z" />
<glyph unicode="&#xd6;" horiz-adv-x="1200" d="M57 1042q28 123 97 238q86 132 208 190q32 14 82 3q37 -12 58 -43q16 -25 2 -60q-12 -25 -55 -61q-67 -22 -126.5 -92t-91.5 -164q-70 -192 -22 -418q24 -114 79 -216.5t138 -174.5q89 -79 195 -94q109 -12 200 45q85 56 140 161q48 95 63 203q27 205 -39 399 q-57 171 -176 287q-100 97 -211 111q-34 4 -61 12q-23 8 -25 25q-4 21 35 53q163 12 309 -96q101 -74 174 -189q92 -149 125 -327q43 -248 -35 -467q-63 -164 -170 -254q-65 -59 -159 -90q-99 -29 -199 -15q-186 28 -344 203q-132 160 -185 375q-58 232 -6 456zM246 1690 q0 56 40 94.5t101 38.5q56 0 95.5 -39t39.5 -94q0 -51 -40 -90t-95 -39q-60 0 -100.5 38.5t-40.5 90.5zM651 1690q0 56 40.5 94.5t101.5 38.5q56 0 95.5 -39t39.5 -94q0 -51 -40 -90t-95 -39q-60 0 -101 38.5t-41 90.5z" />
<glyph unicode="&#xd7;" horiz-adv-x="866" d="M80 830.5q-2 7.5 1 15t15.5 18.5t34.5 21q8 -6 56 -31t115 -71t149 -119q68 70 165.5 180t122.5 135q1 2 3.5 4t10 4.5t14.5 0.5t17 -14t19 -34q-5 -7 -26 -45.5t-42 -73t-73 -101t-121 -140.5q113 -110 247 -261q4 -24 -37 -74t-79 -42q-62 119 -223 280 q-90 -93 -244 -231q-24 -4 -73 35.5t-40 77.5q117 63 266 208q-52 48 -147 132.5t-123 111.5l-3.5 3.5t-4.5 10z" />
<glyph unicode="&#xd8;" horiz-adv-x="1200" d="M57 1042q28 123 97 238q86 132 208 190q32 14 82 3q16 -5 30 -17t21.5 -20t20.5 -7t31 17q149 12 284 -80l29 100q38 27 76 12.5t66 -45t28 -49.5l-63 -139q36 -43 63 -84q92 -149 125 -327q43 -248 -35 -467q-63 -164 -170 -254q-65 -59 -159 -90q-99 -29 -199 -15 q-121 17 -238 105q-17 -25 -44.5 -62.5t-35.5 -50.5q-29 -1 -46.5 5t-22 15t-4.5 18.5t3 15.5l3 7q20 46 63 125l-22 25q-132 160 -185 375q-58 232 -6 456zM209 635q38 -180 137 -307q329 615 447 932q-96 83 -195 96q-34 4 -61 12q-25 8 -33 2q-25 -27 -72.5 -63.5 t-81 -64t-68.5 -77.5t-51 -112q-70 -192 -22 -418zM436 233q84 -71 185 -83q109 -12 200 45q85 56 140 161q48 95 63 203q27 205 -39 399q-34 96 -76 160q-263 -566 -473 -885z" />
<glyph unicode="&#xd9;" horiz-adv-x="1038" d="M43 1391q5 22 23.5 43.5t42.5 33.5t48.5 12.5t45 -24.5t28.5 -74q-57 -386 5 -745q40 -226 131 -367q61 -92 129 -114q69 -23 145 43q62 53 111 147q37 66 75 174q51 152 54 342q2 257 -50 527l-3 15q-2 14 -1.5 31t5.5 31t24 13t51 -23q37 -130 60 -237q56 -261 43 -502 q-6 -81 -29 -176q-20 -86 -72 -203q-58 -131 -135 -215q-56 -63 -131 -96q-43 -21 -95 -25t-104 14q-82 28 -155 109q-52 57 -94 143q-69 139 -109 324q-69 345 -43 799zM262 1876q2 19 60 66.5t92 42.5q13 -72 40.5 -134t51 -94t63.5 -78.5t56 -68.5q2 -3 3.5 -8.5t-14 -21 t-53.5 -30.5q-158 86 -299 326z" />
<glyph unicode="&#xda;" horiz-adv-x="1038" d="M43 1391q5 22 23.5 43.5t42.5 33.5t48.5 12.5t45 -24.5t28.5 -74q-57 -386 5 -745q40 -226 131 -367q61 -92 129 -114q69 -23 145 43q62 53 111 147q37 66 75 174q51 152 54 342q2 257 -50 527l-3 15q-2 14 -1.5 31t5.5 31t24 13t51 -23q37 -130 60 -237q56 -261 43 -502 q-6 -81 -29 -176q-20 -86 -72 -203q-58 -131 -135 -215q-56 -63 -131 -96q-43 -21 -95 -25t-104 14q-82 28 -155 109q-52 57 -94 143q-69 139 -109 324q-69 345 -43 799zM384 1602l3 8q16 22 56 68.5t63.5 78.5t51 94t40.5 134q34 5 92 -42.5t60 -66.5q-141 -240 -299 -326 q-38 15 -54 30t-13 22z" />
<glyph unicode="&#xdb;" horiz-adv-x="1038" d="M43 1391q5 22 23.5 43.5t42.5 33.5t48.5 12.5t45 -24.5t28.5 -74q-57 -386 5 -745q40 -226 131 -367q61 -92 129 -114q69 -23 145 43q62 53 111 147q37 66 75 174q51 152 54 342q2 257 -50 527l-3 15q-2 14 -1.5 31t5.5 31t24 13t51 -23q37 -130 60 -237q56 -261 43 -502 q-6 -81 -29 -176q-20 -86 -72 -203q-58 -131 -135 -215q-56 -63 -131 -96q-43 -21 -95 -25t-104 14q-82 28 -155 109q-52 57 -94 143q-69 139 -109 324q-69 345 -43 799zM179 1608l3 8q16 22 56 68.5t63.5 78.5t51 94t40.5 134q74 24 129 23t76 -23q13 -72 40.5 -134t51 -94 t63.5 -78.5t56 -68.5q2 -3 3.5 -8.5t-14 -21t-53.5 -30.5q-126 66 -249 248q-124 -179 -250 -248q-38 15 -54 30t-13 22z" />
<glyph unicode="&#xdc;" horiz-adv-x="1038" d="M43 1391q5 22 23.5 43.5t42.5 33.5t48.5 12.5t45 -24.5t28.5 -74q-57 -386 5 -745q40 -226 131 -367q61 -92 129 -114q69 -23 145 43q62 53 111 147q37 66 75 174q51 152 54 342q2 257 -50 527l-3 15q-2 14 -1.5 31t5.5 31t24 13t51 -23q37 -130 60 -237q56 -261 43 -502 q-6 -81 -29 -176q-20 -86 -72 -203q-58 -131 -135 -215q-56 -63 -131 -96q-43 -21 -95 -25t-104 14q-82 28 -155 109q-52 57 -94 143q-69 139 -109 324q-69 345 -43 799zM154 1690q0 56 40 94.5t101 38.5q56 0 95.5 -39t39.5 -94q0 -51 -40 -90t-95 -39q-60 0 -100.5 38.5 t-40.5 90.5zM559 1690q0 56 40 94.5t101 38.5q56 0 96 -39t40 -94q0 -51 -40.5 -90t-95.5 -39q-60 0 -100.5 38.5t-40.5 90.5z" />
<glyph unicode="&#xdd;" horiz-adv-x="1159" d="M8 1370q-1 11 14.5 32.5t39 41.5t51.5 30t53 -1q21 -71 68.5 -159.5t81 -139.5t112.5 -166l158 -224q45 -63 49 -69q3 10 11.5 41.5t19 64.5t24.5 70q84 222 295 590q12 8 51 0.5t76 -30t41 -52.5q-72 -75 -129.5 -165t-122.5 -222l-108 -228q-3 -7 -22 -41t-31.5 -60.5 t-8.5 -29.5q-26 -67 -28.5 -166.5t9 -178.5t28 -171t18.5 -121q1 -4 -2 -8t-21.5 -11.5t-64.5 1.5q-3 7 -22 39.5t-34.5 72.5t-33 107t-27.5 175t-8 245l2 2q-41 39 -105 111q-64 74 -115 138t-139.5 194t-179.5 288zM486 1602l3 8q16 22 56 68.5t63.5 78.5t51 94t40.5 134 q34 5 92 -42.5t60 -66.5q-141 -240 -299 -326q-38 15 -54 30t-13 22z" />
<glyph unicode="&#xde;" horiz-adv-x="968" d="M26.5 658.5q-24.5 32.5 2.5 89.5l133 94q-40 296 -58 506q5 19 41 39.5t80.5 20.5t65.5 -36q-15 -172 14 -444q97 56 201 88q89 24 166 14q92 -10 157 -78q60 -60 89 -139q12 -29 26 -74q12 -44 12 -84q3 -78 -24 -143t-78 -139q-70 -100 -184 -199q-96 -80 -187 -137 q19 -168 41 -283t29 -200q1 -4 1 -11t-2.5 -22.5t-10 -24t-26.5 -7.5t-46 19q-3 7 -14 37.5t-16.5 46.5t-17 55.5t-21 78.5t-22.5 101.5t-26 137.5l-28 -12q-3 -1 -8 -3t-19 -4.5t-25 -0.5q-20 3 -26 20q-2 11 12 58q25 9 78 43q-9 36 -37 120.5t-55 194t-51 262.5l-33 -31 q-24 -11 -66.5 1.5t-67 45zM328 748q20 -134 64.5 -337t53.5 -261q92 74 201 190q6 7 23 26t24.5 27.5t22 26t23.5 30.5t20 30.5t20 35.5q28 66 31 115q0 30 -6 57q-10 52 -38 102.5t-69 73.5q-50 29 -139 6q-85 -26 -194 -98z" />
<glyph unicode="&#xdf;" horiz-adv-x="1351" d="M-124.5 1133q-5.5 19 10.5 47.5t55 60.5l165 72q0 19 -1 59.5t-1 61.5q7 18 43.5 35.5t81 14.5t64.5 -40q-4 -16 -8 -60l49 19q120 42 229 63q75 11 129 11q83 -4 142 -35q75 -37 104 -113q28 -66 31 -139q0 -76 -27 -141q-16 -41 -55 -93l37 11q82 18 145 0 q68 -19 123 -78q46 -49 74 -109q28 -55 41 -123q21 -123 -35 -241q-46 -97 -116.5 -168t-160.5 -131q-132 -85 -278 -131q-5 -2 -14 -4.5t-30 -6.5t-36 -2q-65 4 -4 80q137 47 268 135q106 75 172 154q106 132 101 254q-3 76 -52 152q-25 39 -53 61q-27 19 -63 22 q-72 3 -193 -77q-120 -77 -129 -82q-31 -18 -63 -25q-49 -6 -86 17q-30 20 -43 47q-20 40 -7 80q4 11 8 19.5t8.5 15t6.5 9t8 7.5l6 6l23 20l37 27q92 61 125 90q60 50 88 102q28 61 20 121q-7 38 -16 60q-9 17 -31 32q-40 28 -135 15q-77 -10 -191 -49q-96 -35 -170 -70 q-4 -183 13.5 -415t42 -455t28.5 -281q-1 0 0.5 -7t-3.5 -15.5t-12.5 -15t-26.5 -5t-46 13.5q-3 12 -21.5 76.5t-33.5 135t-34.5 188.5t-36.5 299t-27 405l-84 -43q-21 -8 -44.5 -6.5t-49 7.5t-41 21t-21 34z" />
<glyph unicode="&#xe0;" d="M27 197q-2 70 26 180q53 167 158 319q131 188 291 279q60 33 110 45q3 1 8 2q76 15 135 3l5 -1q54 -14 90 -66q27 -39 31 -92q4 -54 -21 -135q0 -1 2 -4t4.5 -6.5t3.5 -5.5q6 -14 8.5 -31.5t2.5 -30t-1 -36t-1 -35.5q0 -224 10 -314q5 -56 20 -118q8 -26 43 -78 q0 -1 3.5 -5t6 -9.5t3.5 -10.5q0 -33 -35 -51q-55 8 -96 82q-36 64 -52 143q-16 69 -26 172q-34 -47 -84 -104q-81 -90 -185 -164q-67 -48 -114 -74q-37 -22 -74 -35q-65 -18 -106 -16q-36 3 -74 23q-33 19 -60 57q-28 46 -32 117zM180 176q2 -6 10 -22q8 -4 19 -4 q28 -3 76 22q20 8 84 51q172 112 280 266q71 101 90 181q-65 13 -59 114q11 22 20 58q0 4 1 10l1 6q-2 2 -14 2q-28 0 -72 -14q-138 -49 -272 -228q-129 -180 -164 -358q-7 -56 0 -84zM590 1483q2 19 59.5 66t91.5 42q13 -72 40.5 -133.5t51.5 -93.5t63.5 -78.5t55.5 -68.5 q3 -3 4 -8.5t-14 -21t-53 -30.5q-158 86 -299 326z" />
<glyph unicode="&#xe1;" d="M27 197q-2 70 26 180q53 167 158 319q131 188 291 279q60 33 110 45q3 1 8 2q76 15 135 3l5 -1q54 -14 90 -66q27 -39 31 -92q4 -54 -21 -135q0 -1 2 -4t4.5 -6.5t3.5 -5.5q6 -14 8.5 -31.5t2.5 -30t-1 -36t-1 -35.5q0 -224 10 -314q5 -56 20 -118q8 -26 43 -78 q0 -1 3.5 -5t6 -9.5t3.5 -10.5q0 -33 -35 -51q-55 8 -96 82q-36 64 -52 143q-16 69 -26 172q-34 -47 -84 -104q-81 -90 -185 -164q-67 -48 -114 -74q-37 -22 -74 -35q-65 -18 -106 -16q-36 3 -74 23q-33 19 -60 57q-28 46 -32 117zM180 176q2 -6 10 -22q8 -4 19 -4 q28 -3 76 22q20 8 84 51q172 112 280 266q71 101 90 181q-65 13 -59 114q11 22 20 58q0 4 1 10l1 6q-2 2 -14 2q-28 0 -72 -14q-138 -49 -272 -228q-129 -180 -164 -358q-7 -56 0 -84zM466 1214l3 7q16 22 55.5 68.5t63.5 78.5t51.5 93.5t40.5 133.5q34 5 91.5 -42t59.5 -66 q-141 -240 -299 -326q-38 15 -54 30t-12 23z" />
<glyph unicode="&#xe2;" d="M27 197q-2 70 26 180q53 167 158 319q131 188 291 279q60 33 110 45q3 1 8 2q76 15 135 3l5 -1q54 -14 90 -66q27 -39 31 -92q4 -54 -21 -135q0 -1 2 -4t4.5 -6.5t3.5 -5.5q6 -14 8.5 -31.5t2.5 -30t-1 -36t-1 -35.5q0 -224 10 -314q5 -56 20 -118q8 -26 43 -78 q0 -1 3.5 -5t6 -9.5t3.5 -10.5q0 -33 -35 -51q-55 8 -96 82q-36 64 -52 143q-16 69 -26 172q-34 -47 -84 -104q-81 -90 -185 -164q-67 -48 -114 -74q-37 -22 -74 -35q-65 -18 -106 -16q-36 3 -74 23q-33 19 -60 57q-28 46 -32 117zM180 176q2 -6 10 -22q8 -4 19 -4 q28 -3 76 22q20 8 84 51q172 112 280 266q71 101 90 181q-65 13 -59 114q11 22 20 58q0 4 1 10l1 6q-2 2 -14 2q-28 0 -72 -14q-138 -49 -272 -228q-129 -180 -164 -358q-7 -56 0 -84zM425 1220l3 7q16 22 56 68.5t63.5 78.5t51 94t40.5 134q74 24 129 23t76 -23 q13 -72 40.5 -134t51 -94t63.5 -78.5t56 -68.5q2 -3 3.5 -8.5t-14 -21t-53.5 -30.5q-128 67 -250 248q-124 -180 -249 -248q-38 15 -54 30t-13 23z" />
<glyph unicode="&#xe3;" d="M27 197q-2 70 26 180q53 167 158 319q131 188 291 279q60 33 110 45q3 1 8 2q76 15 135 3l5 -1q54 -14 90 -66q27 -39 31 -92q4 -54 -21 -135q0 -1 2 -4t4.5 -6.5t3.5 -5.5q6 -14 8.5 -31.5t2.5 -30t-1 -36t-1 -35.5q0 -224 10 -314q5 -56 20 -118q8 -26 43 -78 q0 -1 3.5 -5t6 -9.5t3.5 -10.5q0 -33 -35 -51q-55 8 -96 82q-36 64 -52 143q-16 69 -26 172q-34 -47 -84 -104q-81 -90 -185 -164q-67 -48 -114 -74q-37 -22 -74 -35q-65 -18 -106 -16q-36 3 -74 23q-33 19 -60 57q-28 46 -32 117zM180 176q2 -6 10 -22q8 -4 19 -4 q28 -3 76 22q20 8 84 51q172 112 280 266q71 101 90 181q-65 13 -59 114q11 22 20 58q0 4 1 10l1 6q-2 2 -14 2q-28 0 -72 -14q-138 -49 -272 -228q-129 -180 -164 -358q-7 -56 0 -84zM279 1231q25 124 36 158q15 56 45 90q17 24 45 38t54 13q43 2 92 -21q4 -2 76 -36 q134 -88 135 -89q89 -53 129 -69q30 -13 58.5 -17t41.5 2q25 12 37 60q10 38 14 82q0 2 0.5 6t4.5 11.5t10.5 11t21.5 0t35 -16.5q6 -87 4 -113q-9 -62 -35 -98q-19 -35 -53 -51q-40 -19 -80 -16q-38 2 -74 12t-85 36t-70 38.5t-86 52.5q-12 6 -41.5 24t-46.5 27 q-56 27 -78 27h-6q-6 0 -14 -27q-16 -43 -19 -135q-7 -13 -36.5 -27t-65 -10.5t-49.5 37.5z" />
<glyph unicode="&#xe4;" d="M27 197q-2 70 26 180q53 167 158 319q131 188 291 279q60 33 110 45q3 1 8 2q76 15 135 3l5 -1q54 -14 90 -66q27 -39 31 -92q4 -54 -21 -135q0 -1 2 -4t4.5 -6.5t3.5 -5.5q6 -14 8.5 -31.5t2.5 -30t-1 -36t-1 -35.5q0 -224 10 -314q5 -56 20 -118q8 -26 43 -78 q0 -1 3.5 -5t6 -9.5t3.5 -10.5q0 -33 -35 -51q-55 8 -96 82q-36 64 -52 143q-16 69 -26 172q-34 -47 -84 -104q-81 -90 -185 -164q-67 -48 -114 -74q-37 -22 -74 -35q-65 -18 -106 -16q-36 3 -74 23q-33 19 -60 57q-28 46 -32 117zM180 176q2 -6 10 -22q8 -4 19 -4 q28 -3 76 22q20 8 84 51q172 112 280 266q71 101 90 181q-65 13 -59 114q11 22 20 58q0 4 1 10l1 6q-2 2 -14 2q-28 0 -72 -14q-138 -49 -272 -228q-129 -180 -164 -358q-7 -56 0 -84zM430 1298q0 56 40 95t101 39q56 0 96 -39.5t40 -94.5q0 -51 -40.5 -90t-95.5 -39 q-60 0 -100.5 38.5t-40.5 90.5zM836 1298q0 56 40 95t101 39q56 0 95.5 -39.5t39.5 -94.5q0 -51 -40 -90t-95 -39q-60 0 -100.5 38.5t-40.5 90.5z" />
<glyph unicode="&#xe5;" d="M27 197q-2 70 26 180q53 167 158 319q131 188 291 279q60 33 110 45q3 1 8 2q76 15 135 3l5 -1q54 -14 90 -66q27 -39 31 -92q4 -54 -21 -135q0 -1 2 -4t4.5 -6.5t3.5 -5.5q6 -14 8.5 -31.5t2.5 -30t-1 -36t-1 -35.5q0 -224 10 -314q5 -56 20 -118q8 -26 43 -78 q0 -1 3.5 -5t6 -9.5t3.5 -10.5q0 -33 -35 -51q-55 8 -96 82q-36 64 -52 143q-16 69 -26 172q-34 -47 -84 -104q-81 -90 -185 -164q-67 -48 -114 -74q-37 -22 -74 -35q-65 -18 -106 -16q-36 3 -74 23q-33 19 -60 57q-28 46 -32 117zM180 176q2 -6 10 -22q8 -4 19 -4 q28 -3 76 22q20 8 84 51q172 112 280 266q71 101 90 181q-65 13 -59 114q11 22 20 58q0 4 1 10l1 6q-2 2 -14 2q-28 0 -72 -14q-138 -49 -272 -228q-129 -180 -164 -358q-7 -56 0 -84zM485 1397q13 76 64 129q60 66 145 78q99 13 176 -43q89 -62 101 -164q-2 -14 -23.5 -28 t-48.5 -17q-59 -6 -92 14q11 33 -12 66q-27 34 -76 34q-52 0 -84 -47q-30 -45 -17 -98q17 -53 62 -72q40 -18 80 -4q31 12 48 37.5t21 50.5q1 9 11 15q31 8 69 -9q5 -60 -12 -102q-14 -40 -51 -72q-45 -41 -117 -47q-95 -7 -166 58q-43 38 -65.5 96.5t-12.5 124.5z" />
<glyph unicode="&#xe6;" horiz-adv-x="1656" d="M27 197q-2 70 26 180q53 167 158 319q131 188 291 279q60 33 110 45q3 1 8 2q76 15 135 3l5 -1q54 -14 90 -66q3 -4 14 -26l6 6q2 1 14 11.5t19 15.5q75 55 166 67q173 25 350 -90q87 -59 144 -127q47 -68 59 -104q8 -24 8 -43q3 -13 0 -29q0 -17 -8 -41q-5 -9 -10 -17 t-9.5 -13.5t-10.5 -12t-9.5 -9.5t-10.5 -8t-9 -6t-9 -6l-8 -4q-44 -23 -108 -39q-37 -9 -99 -16q-103 -12 -194 -18q-111 -10 -266 -17q4 -114 10 -164q0 -14 2 -22q34 -81 80 -103q85 -54 237 43q86 53 187 150l6 6q6 5 15 12t20 14.5t22 9t19.5 -2.5t13 -21t2.5 -45 q-3 -3 -26.5 -30.5t-34.5 -39.5t-34.5 -36t-47.5 -46.5t-52 -45.5q-35 -27 -55.5 -41t-63.5 -34.5t-87 -31.5q-77 -14 -144 4q-6 -6 -18 -12q-31 6 -62.5 36.5t-47 55.5t-40.5 70q-41 76 -61 188q-14 -19 -47 -57q-81 -90 -185 -164q-67 -48 -114 -74q-37 -22 -74 -35 q-65 -18 -106 -16q-36 3 -74 23q-33 19 -60 57q-28 46 -32 117zM180 176q2 -6 10 -22q8 -4 19 -4q28 -3 76 22q20 8 84 51q170 112 274 258l-8 17q-15 32 2.5 62t79.5 50h2q2 24 10 62q-55 17 -49 112q11 22 20 58q0 4 1 10l1 6q-2 2 -14 2q-28 0 -72 -14 q-138 -49 -272 -228q-129 -180 -164 -358q-7 -56 0 -84zM879 608q132 0 204 2q114 4 195 11q138 13 186 32l13 6q0 1 -1 3.5t-1 3.5q-9 26 -48 71q-66 72 -157 117q-99 45 -183 31q-39 -5 -83 -31q-24 -16 -35 -27q-20 -17 -29 -30q-34 -47 -59 -127q0 -10 -1 -30t-1 -32z " />
<glyph unicode="&#xe7;" horiz-adv-x="942" d="M27 336q4 244 153 430q76 96 209 174q145 81 293 94q23 -3 45 -29t25 -57q3 -26 -13 -57q-12 -28 -41 -45q-91 9 -202 -38t-189 -138q-92 -105 -114 -211q-16 -70 -19 -131q0 -81 16 -119q17 -50 62 -59q44 -12 104 4q97 26 211 96q167 107 281 225q17 17 33 21 q15 4 30.5 -7.5t24.5 -48.5q-53 -76 -115 -143q-125 -129 -270 -213q-71 -38 -117 -55q-41 -14 -69 -21q0 -15 4 -51q153 37 229 39q89 -12 121 -53q34 -44 29 -123q-4 -100 -43 -191t-103 -155q-66 -69 -145 -92q-55 -11 -88 -7q-44 6 -78 33q0 -1 -6.5 4.5t-13 15.5 t-7.5 19q0 19 15 27q1 1 51 18q36 -29 88 -4q65 30 121 123q35 58 49 125q10 40 11 63t-5 34.5t-22.5 12t-38 -4.5t-54.5 -15q-17 -5 -26 -8q-85 -33 -136 -35h-12q-24 0 -51 20q-9 7 -15.5 15t-11 19.5t-7 18.5t-6.5 23t-5 21q-9 42 -16 114q-18 7 -31 15q-59 29 -92 90 q-47 85 -43 217z" />
<glyph unicode="&#xe8;" horiz-adv-x="987" d="M-29 498q-15 32 2.5 62t79.5 50h2q18 127 72 228q11 21 47 67l33 33q2 1 14 11.5t19 15.5q75 55 166 67q173 25 350 -90q84 -58 143 -127q47 -68 59 -104q9 -27 9 -43q3 -13 0 -29q0 -14 -9 -41q-9 -17 -18 -30t-22.5 -23t-16.5 -12t-18 -11q-43 -23 -109 -39 q-38 -9 -98 -16q-102 -12 -195 -18q-54 -4 -291 -19q3 -85 33 -174q34 -87 84 -113q85 -54 238 43q83 52 186 150l6 6q6 5 15 12t20 14.5t22 9t19.5 -2.5t13 -21t2.5 -45q-6 -7 -27 -31t-33.5 -38t-34.5 -37t-46.5 -46t-52.5 -46q-34 -26 -55.5 -40.5t-64.5 -35t-87 -31.5 q-97 -20 -170 16q-82 36 -141 138q-61 118 -70 270q-50 19 -76 70zM201 608q143 0 219 2q112 4 194 11q140 13 187 32l12 6q0 1 -1 3.5t-1 3.5q-10 28 -47 71q-65 71 -158 117q-99 45 -182 31q-41 -5 -84 -31q-24 -16 -35 -27q-20 -17 -29 -30q-46 -64 -71 -174zM365 1487 q2 19 59.5 66t91.5 42q13 -72 40.5 -133.5t51.5 -93.5t63.5 -78.5t55.5 -68.5q3 -3 4 -8.5t-14 -21t-53 -30.5q-158 86 -299 326z" />
<glyph unicode="&#xe9;" horiz-adv-x="987" d="M-29 498q-15 32 2.5 62t79.5 50h2q18 127 72 228q11 21 47 67l33 33q2 1 14 11.5t19 15.5q75 55 166 67q173 25 350 -90q84 -58 143 -127q47 -68 59 -104q9 -27 9 -43q3 -13 0 -29q0 -14 -9 -41q-9 -17 -18 -30t-22.5 -23t-16.5 -12t-18 -11q-43 -23 -109 -39 q-38 -9 -98 -16q-102 -12 -195 -18q-54 -4 -291 -19q3 -85 33 -174q34 -87 84 -113q85 -54 238 43q83 52 186 150l6 6q6 5 15 12t20 14.5t22 9t19.5 -2.5t13 -21t2.5 -45q-6 -7 -27 -31t-33.5 -38t-34.5 -37t-46.5 -46t-52.5 -46q-34 -26 -55.5 -40.5t-64.5 -35t-87 -31.5 q-97 -20 -170 16q-82 36 -141 138q-61 118 -70 270q-50 19 -76 70zM201 608q143 0 219 2q112 4 194 11q140 13 187 32l12 6q0 1 -1 3.5t-1 3.5q-10 28 -47 71q-65 71 -158 117q-99 45 -182 31q-41 -5 -84 -31q-24 -16 -35 -27q-20 -17 -29 -30q-46 -64 -71 -174zM343 1214 l3 7q16 22 55.5 68.5t63.5 78.5t51.5 93.5t40.5 133.5q34 5 92 -42t60 -66q-141 -240 -299 -326q-38 15 -54 30t-13 23z" />
<glyph unicode="&#xea;" horiz-adv-x="987" d="M-29 498q-15 32 2.5 62t79.5 50h2q18 127 72 228q11 21 47 67l33 33q2 1 14 11.5t19 15.5q75 55 166 67q173 25 350 -90q84 -58 143 -127q47 -68 59 -104q9 -27 9 -43q3 -13 0 -29q0 -14 -9 -41q-9 -17 -18 -30t-22.5 -23t-16.5 -12t-18 -11q-43 -23 -109 -39 q-38 -9 -98 -16q-102 -12 -195 -18q-54 -4 -291 -19q3 -85 33 -174q34 -87 84 -113q85 -54 238 43q83 52 186 150l6 6q6 5 15 12t20 14.5t22 9t19.5 -2.5t13 -21t2.5 -45q-6 -7 -27 -31t-33.5 -38t-34.5 -37t-46.5 -46t-52.5 -46q-34 -26 -55.5 -40.5t-64.5 -35t-87 -31.5 q-97 -20 -170 16q-82 36 -141 138q-61 118 -70 270q-50 19 -76 70zM201 608q143 0 219 2q112 4 194 11q140 13 187 32l12 6q0 1 -1 3.5t-1 3.5q-10 28 -47 71q-65 71 -158 117q-99 45 -182 31q-41 -5 -84 -31q-24 -16 -35 -27q-20 -17 -29 -30q-46 -64 -71 -174zM220 1220 l3 7q16 22 56 68.5t63.5 78.5t51 94t40.5 134q74 24 129 23t76 -23q13 -72 40.5 -134t51 -94t63.5 -78.5t56 -68.5q2 -3 3.5 -8.5t-14 -21t-53.5 -30.5q-126 66 -249 248q-124 -179 -250 -248q-38 15 -54 30t-13 23z" />
<glyph unicode="&#xeb;" horiz-adv-x="987" d="M-29 498q-15 32 2.5 62t79.5 50h2q18 127 72 228q11 21 47 67l33 33q2 1 14 11.5t19 15.5q75 55 166 67q173 25 350 -90q84 -58 143 -127q47 -68 59 -104q9 -27 9 -43q3 -13 0 -29q0 -14 -9 -41q-9 -17 -18 -30t-22.5 -23t-16.5 -12t-18 -11q-43 -23 -109 -39 q-38 -9 -98 -16q-102 -12 -195 -18q-54 -4 -291 -19q3 -85 33 -174q34 -87 84 -113q85 -54 238 43q83 52 186 150l6 6q6 5 15 12t20 14.5t22 9t19.5 -2.5t13 -21t2.5 -45q-6 -7 -27 -31t-33.5 -38t-34.5 -37t-46.5 -46t-52.5 -46q-34 -26 -55.5 -40.5t-64.5 -35t-87 -31.5 q-97 -20 -170 16q-82 36 -141 138q-61 118 -70 270q-50 19 -76 70zM201 608q143 0 219 2q112 4 194 11q140 13 187 32l12 6q0 1 -1 3.5t-1 3.5q-10 28 -47 71q-65 71 -158 117q-99 45 -182 31q-41 -5 -84 -31q-24 -16 -35 -27q-20 -17 -29 -30q-46 -64 -71 -174zM213 1298 q0 56 40 95t101 39q56 0 95.5 -39.5t39.5 -94.5q0 -51 -40 -90t-95 -39q-60 0 -100.5 38.5t-40.5 90.5zM618 1298q0 56 40.5 95t101.5 39q56 0 95.5 -39.5t39.5 -94.5q0 -51 -40 -90t-95 -39q-60 0 -101 38.5t-41 90.5z" />
<glyph unicode="&#xec;" horiz-adv-x="325" d="M-4 1487q2 19 59.5 66t91.5 42q13 -72 40.5 -133.5t51.5 -93.5t63.5 -78.5t55.5 -68.5q3 -3 4 -8.5t-14 -21t-53 -30.5q-158 86 -299 326zM49 991q14 24 84 38.5t107 -19.5q-19 -82 -20 -194.5t11.5 -228.5t27.5 -217.5t31.5 -200.5t20.5 -140q1 -6 -1.5 -12t-21 -17.5 t-65.5 4.5q-2 7 -24.5 61t-40 115.5t-41 167t-41.5 271t-27 372.5z" />
<glyph unicode="&#xed;" horiz-adv-x="325" d="M-66 1214l3 7q16 22 55.5 68.5t63.5 78.5t51 93.5t40 133.5q34 5 92 -42t60 -66q-141 -240 -299 -326q-38 15 -54 30t-12 23zM49 991q14 24 84 38.5t107 -19.5q-19 -82 -20 -194.5t11.5 -228.5t27.5 -217.5t31.5 -200.5t20.5 -140q1 -6 -1.5 -12t-21 -17.5t-65.5 4.5 q-2 7 -24.5 61t-40 115.5t-41 167t-41.5 271t-27 372.5z" />
<glyph unicode="&#xee;" horiz-adv-x="325" d="M-169 1220l3 7q16 22 56 68.5t63.5 78.5t51 94t40.5 134q74 24 129 23t76 -23q13 -72 40.5 -134t51 -94t63.5 -78.5t56 -68.5q2 -3 3.5 -8.5t-14 -21t-53.5 -30.5q-128 67 -250 248q-124 -180 -249 -248q-38 15 -54 30t-13 23zM49 991q14 24 84 38.5t107 -19.5 q-19 -82 -20 -194.5t11.5 -228.5t27.5 -217.5t31.5 -200.5t20.5 -140q1 -6 -1.5 -12t-21 -17.5t-65.5 4.5q-2 7 -24.5 61t-40 115.5t-41 167t-41.5 271t-27 372.5z" />
<glyph unicode="&#xef;" horiz-adv-x="325" d="M-178 1298q0 56 40 95t101 39q56 0 95.5 -39.5t39.5 -94.5q0 -51 -40 -90t-95 -39q-60 0 -100.5 38.5t-40.5 90.5zM49 991q14 24 84 38.5t107 -19.5q-19 -82 -20 -194.5t11.5 -228.5t27.5 -217.5t31.5 -200.5t20.5 -140q1 -6 -1.5 -12t-21 -17.5t-65.5 4.5q-2 7 -24.5 61 t-40 115.5t-41 167t-41.5 271t-27 372.5zM227 1298q0 56 40.5 95t101.5 39q56 0 95.5 -39.5t39.5 -94.5q0 -51 -40 -90t-95 -39q-60 0 -101 38.5t-41 90.5z" />
<glyph unicode="&#xf0;" d="M43 330q-15 131 35 250q60 141 176 190q60 26 139 16q65 -11 123 -49q81 -52 160 -162q37 -49 65 -100l-2 31q-11 83 -34 174q-43 146 -97 281q-10 24 -59 137q-58 -61 -107 -88q-39 13 -55.5 27t-12.5 22l3 8q14 21 53 73t59 85q-21 44 -88 166q4 41 16 56t27 7.5 t29 -21.5t23.5 -27.5t9.5 -14.5q12 -21 35 -56q16 55 24 117q34 7 95 -37t63 -63q-53 -102 -96 -160q85 -144 159 -330q89 -226 101 -407q7 -136 -35 -238q-24 -61 -71.5 -110.5t-108.5 -73.5q-106 -48 -254 -23q-133 26 -232 101q-124 89 -143 219zM193 373q3 -36 12 -54 q5 -21 26 -45q70 -87 209 -116q58 -12 112 -5.5t89 29.5q50 29 76 92q-29 1 -62 19.5t-47 38.5q-43 98 -98 178q-65 84 -119 108q-57 20 -100 -8q-47 -32 -76 -102q-25 -70 -22 -135z" />
<glyph unicode="&#xf1;" horiz-adv-x="925" d="M-8 1231q24 115 37 158q15 56 45 90q18 24 45 38t53 13q43 2 92 -21q4 -2 76 -36q134 -88 135 -89q89 -53 129 -69q30 -13 59 -17t42 2q24 12 36 60q12 43 15 82q0 2 0.5 6t4 11.5t10 11t21.5 0t35 -16.5q6 -87 4 -113q-9 -63 -34 -98q-19 -34 -54 -51q-39 -19 -79 -16 q-50 3 -109.5 26.5t-93 43t-113.5 69.5q-12 6 -41.5 24t-46.5 27q-56 27 -78 27h-6q-6 0 -14 -27q-16 -43 -19 -135q-7 -13 -36.5 -27t-65 -10.5t-49.5 37.5zM49 993q6 13 44 28t78 16.5t65 -21.5q-40 -184 10 -508q10 50 20 90q41 166 96 279q17 32 27.5 49.5t33.5 43.5 t50 44q50 31 109 18q39 -9 86 -45q63 -53 106 -129q32 -66 47 -135q26 -104 45 -264q28 -230 35 -400v-11t-4 -22t-12 -23t-27 -5.5t-45 22.5q-5 40 -33 183q-6 32 -26.5 142.5t-36.5 191.5l-8.5 42.5t-9 44.5t-9 41t-12 43t-15 38.5t-20 41t-24.5 36t-31 36.5 q-22 22 -37 27q-17 -13 -35 -43q-21 -34 -39 -78q-34 -88 -57 -193q-29 -132 -41 -239q-17 -172 -12 -240q4 -28 -10 -49.5t-36 -30t-45.5 -12t-37.5 3.5q-43 17 -60 70q2 28 8 84q-107 268 -137 833z" />
<glyph unicode="&#xf2;" horiz-adv-x="862" d="M20 414q11 141 78 293q74 172 213 288q21 11 57 5t58 -27l12 -17q3 15 15 39q1 0 35 11t55 16q1 0 13 2l15 2.5t14.5 2t17 2t16.5 0.5t19 -0.5t19 -2t21 -4.5q21 -5 67 -37l17 -18q35 -35 59 -88q50 -113 23 -258q-24 -133 -127 -287q-49 -80 -123 -156 q-96 -96 -188 -143q-80 -39 -152 -39q-57 0 -104 27q-50 31 -78 81q-36 67 -47 156q-10 84 -5 152zM176 412q-10 -79 2 -150q6 -36 19 -69q16 -32 30 -39q18 -10 50 -5t65 23q57 29 125 90q129 123 184 227q71 145 68 256q0 54 -23 105q-11 25 -22 39q-9 9 -15 18 q-44 19 -73 19q-9 0 -59.5 -8.5t-61.5 0.5q-4 0 -12 4q6 -31 -19 -70q-99 -58 -170 -174.5t-88 -265.5zM385 1487q2 19 60 66t92 42q13 -72 40.5 -133.5t51.5 -93.5t63.5 -78.5t55.5 -68.5q2 -3 3.5 -8.5t-14 -21t-53.5 -30.5q-158 86 -299 326z" />
<glyph unicode="&#xf3;" horiz-adv-x="862" d="M20 414q11 141 78 293q74 172 213 288q21 11 57 5t58 -27l12 -17q3 15 15 39q1 0 35 11t55 16q1 0 13 2l15 2.5t14.5 2t17 2t16.5 0.5t19 -0.5t19 -2t21 -4.5q21 -5 67 -37l17 -18q35 -35 59 -88q50 -113 23 -258q-24 -133 -127 -287q-49 -80 -123 -156 q-96 -96 -188 -143q-80 -39 -152 -39q-57 0 -104 27q-50 31 -78 81q-36 67 -47 156q-10 84 -5 152zM176 412q-10 -79 2 -150q6 -36 19 -69q16 -32 30 -39q18 -10 50 -5t65 23q57 29 125 90q129 123 184 227q71 145 68 256q0 54 -23 105q-11 25 -22 39q-9 9 -15 18 q-44 19 -73 19q-9 0 -59.5 -8.5t-61.5 0.5q-4 0 -12 4q6 -31 -19 -70q-99 -58 -170 -174.5t-88 -265.5zM302 1214l3 7q16 22 55.5 68.5t63.5 78.5t51.5 93.5t40.5 133.5q34 5 92 -42t60 -66q-141 -240 -299 -326q-38 15 -54 30t-13 23z" />
<glyph unicode="&#xf4;" horiz-adv-x="862" d="M20 414q11 141 78 293q74 172 213 288q21 11 57 5t58 -27l12 -17q3 15 15 39q1 0 35 11t55 16q1 0 13 2l15 2.5t14.5 2t17 2t16.5 0.5t19 -0.5t19 -2t21 -4.5q21 -5 67 -37l17 -18q35 -35 59 -88q50 -113 23 -258q-24 -133 -127 -287q-49 -80 -123 -156 q-96 -96 -188 -143q-80 -39 -152 -39q-57 0 -104 27q-50 31 -78 81q-36 67 -47 156q-10 84 -5 152zM176 412q-10 -79 2 -150q6 -36 19 -69q16 -32 30 -39q18 -10 50 -5t65 23q57 29 125 90q129 123 184 227q71 145 68 256q0 54 -23 105q-11 25 -22 39q-9 9 -15 18 q-44 19 -73 19q-9 0 -59.5 -8.5t-61.5 0.5q-4 0 -12 4q6 -31 -19 -70q-99 -58 -170 -174.5t-88 -265.5zM282 1220l3 7q16 22 56 68.5t63.5 78.5t51 94t40.5 134q74 24 128.5 23t75.5 -23q13 -72 40.5 -134t51 -94t63.5 -78.5t56 -68.5q3 -3 4 -8.5t-14 -21t-53 -30.5 q-128 67 -250 248q-124 -179 -250 -248q-38 15 -54 30t-12 23z" />
<glyph unicode="&#xf5;" horiz-adv-x="862" d="M20 414q11 141 78 293q74 172 213 288q21 11 57 5t58 -27l12 -17q3 15 15 39q1 0 35 11t55 16q1 0 13 2l15 2.5t14.5 2t17 2t16.5 0.5t19 -0.5t19 -2t21 -4.5q21 -5 67 -37l17 -18q35 -35 59 -88q50 -113 23 -258q-24 -133 -127 -287q-49 -80 -123 -156 q-96 -96 -188 -143q-80 -39 -152 -39q-57 0 -104 27q-50 31 -78 81q-36 67 -47 156q-10 84 -5 152zM115 1231q24 115 37 158q15 56 45 90q18 24 45 38t53 13q43 2 92 -21q4 -2 76 -36q134 -88 135 -89q89 -53 129 -69q30 -13 58.5 -17t41.5 2q25 12 37 60q12 43 15 82 q0 2 0.5 6t4 11.5t10 11t21.5 0t35 -16.5q6 -87 4 -113q-9 -63 -34 -98q-19 -34 -54 -51q-40 -19 -80 -16q-38 2 -74 12t-85 36t-70 38.5t-86 52.5q-12 6 -41.5 24t-46.5 27q-56 27 -78 27h-6q-6 0 -14 -27q-16 -43 -19 -135q-7 -13 -36.5 -27t-65 -10.5t-49.5 37.5z M176 412q-10 -79 2 -150q6 -36 19 -69q16 -32 30 -39q18 -10 50 -5t65 23q57 29 125 90q129 123 184 227q71 145 68 256q0 54 -23 105q-11 25 -22 39q-9 9 -15 18q-44 19 -73 19q-9 0 -59.5 -8.5t-61.5 0.5q-4 0 -12 4q6 -31 -19 -70q-99 -58 -170 -174.5t-88 -265.5z" />
<glyph unicode="&#xf6;" horiz-adv-x="862" d="M20 414q11 141 78 293q74 172 213 288q21 11 57 5t58 -27l12 -17q3 15 15 39q1 0 35 11t55 16q1 0 13 2l15 2.5t14.5 2t17 2t16.5 0.5t19 -0.5t19 -2t21 -4.5q21 -5 67 -37l17 -18q35 -35 59 -88q50 -113 23 -258q-24 -133 -127 -287q-49 -80 -123 -156 q-96 -96 -188 -143q-80 -39 -152 -39q-57 0 -104 27q-50 31 -78 81q-36 67 -47 156q-10 84 -5 152zM176 412q-10 -79 2 -150q6 -36 19 -69q16 -32 30 -39q18 -10 50 -5t65 23q57 29 125 90q129 123 184 227q71 145 68 256q0 54 -23 105q-11 25 -22 39q-9 9 -15 18 q-44 19 -73 19q-9 0 -59.5 -8.5t-61.5 0.5q-4 0 -12 4q6 -31 -19 -70q-99 -58 -170 -174.5t-88 -265.5zM217 1294q0 56 40 94.5t101 38.5q56 0 96 -39t40 -94q0 -51 -40.5 -90t-95.5 -39q-60 0 -100.5 38.5t-40.5 90.5zM623 1294q0 56 40 94.5t101 38.5q56 0 95.5 -39 t39.5 -94q0 -51 -40 -90t-95 -39q-60 0 -100.5 38.5t-40.5 90.5z" />
<glyph unicode="&#xf7;" horiz-adv-x="1032" d="M102.5 535q3.5 37 26.5 51q122 -38 336 -41h129q99 1 195.5 9.5t130.5 8.5h5t10 -3.5t10 -10.5t1.5 -22.5t-10.5 -37.5q-62 -34 -214 -52t-305 -17t-288 8q-11 7 -20.5 38.5t-6 68.5zM360 213q0 56 40.5 94.5t101.5 38.5q56 0 95.5 -39t39.5 -94q0 -51 -40 -90t-95 -39 q-60 0 -101 38.5t-41 90.5zM360 807q0 56 40.5 94.5t101.5 38.5q56 0 95.5 -39t39.5 -94q0 -51 -40 -90t-95 -39q-60 0 -101 38.5t-41 90.5z" />
<glyph unicode="&#xf8;" horiz-adv-x="862" d="M20 414q11 141 78 293q74 172 213 288q21 11 57 5t58 -27l12 -17q3 15 15 39q1 0 35 11t55 16h2l20 78q38 27 76 12.5t66 -45t28 -49.5q-3 -5 -8 -19l18 -12l17 -18q35 -35 59 -88q50 -113 23 -258q-24 -133 -127 -287q-49 -80 -123 -156q-96 -96 -188 -143 q-80 -39 -152 -39q-17 0 -45 4q-47 -55 -57 -72q-29 -1 -47 5t-22.5 15t-4.5 18.5t3 16.5l3 7l29 59q-21 18 -41 55q-36 67 -47 156q-10 84 -5 152zM176 412q-10 -79 2 -150q2 -20 15 -59q73 143 113 224.5t102 224.5t102 261q-25 -4 -45 5q-4 0 -12 4q6 -31 -19 -70 q-99 -58 -170 -174.5t-88 -265.5zM317 160l25 12q57 29 125 90q129 123 184 227q71 145 68 256q0 54 -23 105q-13 27 -20 35q-217 -485 -359 -725z" />
<glyph unicode="&#xf9;" horiz-adv-x="811" d="M16 963q5 18 29 36t54 26.5t61 -4.5t45 -52q-29 -231 -6 -486q8 -89 18 -131q16 -80 37 -112q43 -65 78 -86q23 -12 34.5 -11.5t30.5 15.5q33 33 60 96q22 57 37 117q28 111 41 233q17 167 14 264l-6 123q0 23 38.5 33.5t83 7t64.5 -17.5q-13 -71 -13.5 -164t8 -182.5 t23.5 -189.5t29.5 -177.5t28 -155t18.5 -114.5v-5t-2.5 -11.5t-11.5 -12t-26 -6.5t-46 6q-4 12 -23.5 54t-42.5 108t-44 153l-23 -77q-33 -100 -80 -160q-16 -19 -28.5 -31t-36.5 -27t-51 -22q-44 -12 -89 -2q-30 8 -71 33q-43 28 -88 84l-35 47q-15 26 -31 63 q-31 90 -49 230q-29 223 -29 508zM160 1487q2 19 59.5 66t91.5 42q13 -72 40.5 -133.5t51.5 -93.5t63.5 -78.5t55.5 -68.5q3 -3 4 -8.5t-14 -21t-53 -30.5q-158 86 -299 326z" />
<glyph unicode="&#xfa;" horiz-adv-x="811" d="M16 963q5 18 29 36t54 26.5t61 -4.5t45 -52q-29 -231 -6 -486q8 -89 18 -131q16 -80 37 -112q43 -65 78 -86q23 -12 34.5 -11.5t30.5 15.5q33 33 60 96q22 57 37 117q28 111 41 233q17 167 14 264l-6 123q0 23 38.5 33.5t83 7t64.5 -17.5q-13 -71 -13.5 -164t8 -182.5 t23.5 -189.5t29.5 -177.5t28 -155t18.5 -114.5v-5t-2.5 -11.5t-11.5 -12t-26 -6.5t-46 6q-4 12 -23.5 54t-42.5 108t-44 153l-23 -77q-33 -100 -80 -160q-16 -19 -28.5 -31t-36.5 -27t-51 -22q-44 -12 -89 -2q-30 8 -71 33q-43 28 -88 84l-35 47q-15 26 -31 63 q-31 90 -49 230q-29 223 -29 508zM302 1214l3 7q16 22 55.5 68.5t63.5 78.5t51.5 93.5t40.5 133.5q34 5 92 -42t60 -66q-141 -240 -299 -326q-38 15 -54 30t-13 23z" />
<glyph unicode="&#xfb;" horiz-adv-x="811" d="M16 963q5 18 29 36t54 26.5t61 -4.5t45 -52q-29 -231 -6 -486q8 -89 18 -131q16 -80 37 -112q43 -65 78 -86q23 -12 34.5 -11.5t30.5 15.5q33 33 60 96q22 57 37 117q28 111 41 233q17 167 14 264l-6 123q0 23 38.5 33.5t83 7t64.5 -17.5q-13 -71 -13.5 -164t8 -182.5 t23.5 -189.5t29.5 -177.5t28 -155t18.5 -114.5v-5t-2.5 -11.5t-11.5 -12t-26 -6.5t-46 6q-4 12 -23.5 54t-42.5 108t-44 153l-23 -77q-33 -100 -80 -160q-16 -19 -28.5 -31t-36.5 -27t-51 -22q-44 -12 -89 -2q-30 8 -71 33q-43 28 -88 84l-35 47q-15 26 -31 63 q-31 90 -49 230q-29 223 -29 508zM56 1220l3 7q16 22 56 68.5t63.5 78.5t51 94t40.5 134q74 24 129 23t76 -23q13 -72 40.5 -134t51 -94t63.5 -78.5t56 -68.5q3 -3 4 -8.5t-14 -21t-53 -30.5q-128 67 -250 248q-124 -179 -250 -248q-38 15 -54 30t-13 23z" />
<glyph unicode="&#xfc;" horiz-adv-x="811" d="M16 963q5 18 29 36t54 26.5t61 -4.5t45 -52q-29 -231 -6 -486q8 -89 18 -131q16 -80 37 -112q43 -65 78 -86q23 -12 34.5 -11.5t30.5 15.5q33 33 60 96q22 57 37 117q28 111 41 233q17 167 14 264l-6 123q0 23 38.5 33.5t83 7t64.5 -17.5q-13 -71 -13.5 -164t8 -182.5 t23.5 -189.5t29.5 -177.5t28 -155t18.5 -114.5v-5t-2.5 -11.5t-11.5 -12t-26 -6.5t-46 6q-4 12 -23.5 54t-42.5 108t-44 153l-23 -77q-33 -100 -80 -160q-16 -19 -28.5 -31t-36.5 -27t-51 -22q-44 -12 -89 -2q-30 8 -71 33q-43 28 -88 84l-35 47q-15 26 -31 63 q-31 90 -49 230q-29 223 -29 508zM66 1298q0 56 40 95t101 39q56 0 95.5 -39.5t39.5 -94.5q0 -51 -40 -90t-95 -39q-60 0 -100.5 38.5t-40.5 90.5zM471 1298q0 56 40 95t101 39q56 0 96 -39.5t40 -94.5q0 -51 -40.5 -90t-95.5 -39q-60 0 -100.5 38.5t-40.5 90.5z" />
<glyph unicode="&#xfd;" horiz-adv-x="821" d="M-2 969q1 19 23.5 36t52.5 25t61.5 -1t48.5 -38q-15 -171 13 -385q13 -108 36 -207q8 -28 21.5 -64t38.5 -89.5t57 -83t62 -17.5q22 11 43 45q19 32 32 72q34 88 66 266q0 2 1 5.5t4.5 12.5t9.5 13t16.5 6.5t25.5 -6.5q-21 168 -57 346q0 2 -1 3.5t-1 2.5q-16 47 4 80 q39 49 92 41q30 -3 49 -23t39 -59l51 -536q3 -42 10 -123.5t8.5 -114t1 -96t-6.5 -137.5q-19 -192 -78 -303q-44 -86 -113 -125q-66 -45 -162 -37q-47 4 -96 19.5t-74.5 27.5t-72.5 37q-79 46 -154 106q-4 3 -9 8t-14.5 18.5t-10.5 25t13.5 23t47.5 17.5q57 -39 164 -90 q79 -34 131 -49q106 -25 151 2q57 33 88 99t36 150.5t1.5 164.5t-9 169t-1.5 136q-5 -39 -8 -53q-17 -91 -47 -152q-26 -57 -72 -96q-40 -32 -82 -39q-50 -9 -100 10q-66 29 -125 99q-62 77 -82 141q-48 138 -76 321q-33 193 -47 396zM240 1214l4 7q16 22 55.5 68.5 t63.5 78.5t51.5 93.5t40.5 133.5q34 5 91.5 -42t59.5 -66q-141 -240 -299 -326q-38 15 -54 30t-13 23z" />
<glyph unicode="&#xfe;" horiz-adv-x="956" d="M24 626.5q-23 29.5 3 82.5l127 88q-7 48 -14 111.5t-11.5 112t-12.5 139t-12 138.5q5 18 39.5 37t76.5 19t63 -33q-19 -207 8 -444q96 52 190 79q82 23 158 15q90 -10 152 -72q52 -52 83 -129q18 -42 25 -68q12 -40 12 -77q5 -120 -98 -263q-61 -85 -176 -182 q-54 -45 -197 -131q13 -69 28.5 -124.5t24 -97.5t15.5 -116q1 -4 1 -10.5t-2.5 -20.5t-9.5 -21.5t-25 -6.5t-44 18l-94 318l-27 -13q-3 -1 -7.5 -3t-17.5 -4.5t-24 -0.5q-19 4 -25 21q-1 6 13 51q20 8 73 41q-9 34 -35 111.5t-52 178.5t-50 242l-30 -28q-23 -10 -64 1.5 t-64 41zM311 709q53 -351 113 -551q87 65 192 176q4 4 26 27.5t29.5 32.5t23.5 28.5t27 37t21 36.5q26 57 29 106q0 27 -6 51q-9 47 -35.5 94.5t-64.5 69.5q-50 26 -134 6q-87 -27 -186 -92z" />
<glyph unicode="&#xff;" horiz-adv-x="821" d="M-2 969q1 19 23.5 36t52.5 25t61.5 -1t48.5 -38q-15 -171 13 -385q13 -108 36 -207q8 -28 21.5 -64t38.5 -89.5t57 -83t62 -17.5q22 11 43 45q19 32 32 72q34 88 66 266q0 2 1 5.5t4.5 12.5t9.5 13t16.5 6.5t25.5 -6.5q-21 168 -57 346q0 2 -1 3.5t-1 2.5q-16 47 4 80 q39 49 92 41q30 -3 49 -23t39 -59l51 -536q3 -42 10 -123.5t8.5 -114t1 -96t-6.5 -137.5q-19 -192 -78 -303q-44 -86 -113 -125q-66 -45 -162 -37q-47 4 -96 19.5t-74.5 27.5t-72.5 37q-79 46 -154 106q-4 3 -9 8t-14.5 18.5t-10.5 25t13.5 23t47.5 17.5q57 -39 164 -90 q79 -34 131 -49q106 -25 151 2q57 33 88 99t36 150.5t1.5 164.5t-9 169t-1.5 136q-5 -39 -8 -53q-17 -91 -47 -152q-26 -57 -72 -96q-40 -32 -82 -39q-50 -9 -100 10q-66 29 -125 99q-62 77 -82 141q-48 138 -76 321q-33 193 -47 396zM70 1298q0 56 40 95t101 39 q56 0 95.5 -39.5t39.5 -94.5q0 -51 -40 -90t-95 -39q-60 0 -100.5 38.5t-40.5 90.5zM475 1298q0 56 40 95t101 39q56 0 96 -39.5t40 -94.5q0 -51 -40.5 -90t-95.5 -39q-60 0 -100.5 38.5t-40.5 90.5z" />
<glyph unicode="&#x152;" horiz-adv-x="1918" d="M74 1042q28 126 96 238q85 131 209 190q32 14 82 3q14 -4 26.5 -15.5t19.5 -21t15.5 -15.5t18 -0.5t22.5 25.5q163 12 309 -96l23 -19q0 46 23 66q72 -15 124 -17q0 39 2 62q8 18 46 34t82 9.5t61 -45.5l-12 -58q147 9 379 51t249 44q6 1 12.5 -1.5t18 -21t-3.5 -65.5 q-8 -3 -66.5 -29t-116 -46.5t-191.5 -46.5t-304 -42q-16 -159 -16 -373q99 15 216.5 47t224.5 66.5t140 42.5l12 -1q28 -10 23 -85q-3 -2 -56 -36.5t-102.5 -59.5t-172.5 -65t-281 -71q2 -33 -2 -104q0 -17 14 -375q122 41 255.5 106t251.5 130.5t161 84.5q5 3 12.5 4.5 t21.5 -17t17 -62.5q-12 -9 -42.5 -39.5t-71.5 -63t-112.5 -79t-198 -108.5t-294.5 -130q-9 -30 -47 -23l-84 -30q-20 4 -53 51.5t-33 89.5l-14 -12q-65 -59 -160 -90q-99 -29 -199 -15q-186 28 -344 203q-131 158 -184 375q-58 232 -6 456zM225 635q24 -114 79 -216.5 t138 -174.5q89 -79 195 -94q110 -12 201 45q84 55 139 161q48 95 63 203q27 205 -39 399q-57 171 -176 287q-100 97 -211 111q-34 4 -61 12q-39 13 -107 -43.5t-125 -136t-73 -135.5q-71 -194 -23 -418z" />
<glyph unicode="&#x153;" horiz-adv-x="1560" d="M61 414q11 141 78 293q74 172 213 288q21 11 57 5t58 -27l12 -17q3 15 15 39q1 0 35 11t55 16q1 0 13 2l15 2.5t14.5 2t17 2t16.5 0.5t19 -0.5t19 -2t21 -4.5q21 -5 67 -37q9 -9 15 -18q75 51 160 63q173 25 350 -90q84 -58 143 -127q47 -68 59 -104q9 -27 9 -43 q3 -13 0 -29q0 -14 -9 -41q-9 -17 -18 -30t-22.5 -23t-16.5 -12t-18 -11q-43 -23 -109 -39q-38 -9 -98 -16q-102 -12 -195 -18q-54 -4 -291 -19q3 -85 33 -174q34 -87 84 -113q85 -54 238 43q83 52 186 150l6 6q6 5 15 12t20 14.5t22 9t19.5 -2.5t13 -21t2.5 -45 q-6 -7 -27 -31t-33.5 -38t-34.5 -37t-46.5 -46t-52.5 -46q-34 -26 -55.5 -40.5t-64.5 -35t-87 -31.5q-97 -20 -170 16q-82 36 -141 138l-19 41q-16 -16 -18 -19q-95 -95 -189 -143q-80 -39 -151 -39q-58 0 -105 27q-49 30 -77 81q-36 67 -47 156q-10 84 -5 152zM217 412 q-10 -79 2 -150q6 -36 19 -69q16 -32 30 -39q18 -10 50 -5t65 23q57 29 125 90q48 43 94 98q-26 111 -7.5 229t87.5 249q8 15 33 49v2q-9 9 -15 18q-44 19 -73 19q-9 0 -59.5 -8.5t-61.5 0.5q-4 0 -12 4q6 -31 -19 -70q-99 -58 -170 -174.5t-88 -265.5zM756 608q143 0 219 2 q112 4 194 11q140 13 187 32l12 6q0 1 -1 3.5t-1 3.5q-10 28 -47 71q-65 71 -158 117q-99 45 -182 31q-41 -5 -84 -31q-24 -16 -35 -27q-20 -17 -29 -30q-46 -64 -71 -174z" />
<glyph unicode="&#x178;" horiz-adv-x="1159" d="M8 1370q-1 11 14.5 32.5t39 41.5t51.5 30t53 -1q21 -71 68.5 -159.5t81 -139.5t112.5 -166l158 -224q45 -63 49 -69q3 10 11.5 41.5t19 64.5t24.5 70q84 222 295 590q12 8 51 0.5t76 -30t41 -52.5q-72 -75 -129.5 -165t-122.5 -222l-108 -228q-3 -7 -22 -41t-31.5 -60.5 t-8.5 -29.5q-26 -67 -28.5 -166.5t9 -178.5t28 -171t18.5 -121q1 -4 -2 -8t-21.5 -11.5t-64.5 1.5q-3 7 -22 39.5t-34.5 72.5t-33 107t-27.5 175t-8 245l2 2q-41 39 -105 111q-64 74 -115 138t-139.5 194t-179.5 288zM248 1696q0 56 40 94.5t101 38.5q56 0 95.5 -39 t39.5 -94q0 -51 -40 -90t-95 -39q-60 0 -100.5 38.5t-40.5 90.5zM653 1696q0 56 40.5 94.5t101.5 38.5q56 0 95.5 -39t39.5 -94q0 -51 -40 -90t-95 -39q-60 0 -101 38.5t-41 90.5z" />
<glyph unicode="&#x2c6;" horiz-adv-x="989" d="M47 950q7 11 27 52t52 95t77 117q39 54 92 119q1 1 16.5 19.5t22.5 26t24.5 26t28.5 28t28.5 23t31 19.5t29.5 9.5t30 0.5q28 0 88 -43q8 -8 21.5 -20.5t25 -24t21.5 -23.5q30 -30 88 -96q54 -62 194 -234q3 -17 -16.5 -51.5t-55 -59.5t-69.5 -13q-52 106 -164 249 q-5 6 -20 25t-22.5 28t-21.5 25.5t-23.5 27t-23 23.5t-26.5 23l-8 6l-23 -20q-72 -68 -203 -228q-113 -139 -143 -172q1 0 -3.5 -4.5t-12 -6.5t-17.5 -1t-22 15t-23 40z" />
<glyph unicode="&#x2dc;" horiz-adv-x="1181" d="M72 1122q31 139 45 176q25 69 57 103q22 26 56.5 42t66.5 15q49 2 115 -22q20 -7 55 -24t39 -19q23 -13 80.5 -47.5t87.5 -51.5q97 -55 160 -77q83 -34 122 -17q31 11 48 66q12 41 16 94l2 6q1 5 5.5 12.5t13 12t26.5 0.5t43 -19q0 -5 3 -33.5t3 -41t-2 -52.5 q-8 -65 -41 -110q-28 -41 -67 -58q-47 -21 -99 -18q-59 3 -125 25.5t-115.5 48t-128.5 70.5q-16 9 -24 14l-108 57q-72 31 -97 31q-6 0 -8 -2q-7 0 -18 -29q-20 -52 -23 -152q-8 -15 -45 -31t-81 -11.5t-62 42.5z" />
<glyph unicode="&#x2000;" horiz-adv-x="1007" />
<glyph unicode="&#x2001;" horiz-adv-x="2014" />
<glyph unicode="&#x2002;" horiz-adv-x="1007" />
<glyph unicode="&#x2003;" horiz-adv-x="2014" />
<glyph unicode="&#x2004;" horiz-adv-x="671" />
<glyph unicode="&#x2005;" horiz-adv-x="503" />
<glyph unicode="&#x2006;" horiz-adv-x="335" />
<glyph unicode="&#x2007;" horiz-adv-x="335" />
<glyph unicode="&#x2008;" horiz-adv-x="251" />
<glyph unicode="&#x2009;" horiz-adv-x="402" />
<glyph unicode="&#x200a;" horiz-adv-x="111" />
<glyph unicode="&#x2010;" horiz-adv-x="1030" d="M92 590q4 44 33 61q109 -32 235 -42.5t216 -5.5t202.5 13.5t165.5 8.5h5.5t11.5 -4.5t11.5 -12.5t2 -26.5t-11.5 -44.5q-11 -2 -68.5 -18t-115.5 -25t-230 -19.5t-424 -11.5q-14 8 -25.5 45.5t-7.5 81.5z" />
<glyph unicode="&#x2011;" horiz-adv-x="1030" d="M92 590q4 44 33 61q109 -32 235 -42.5t216 -5.5t202.5 13.5t165.5 8.5h5.5t11.5 -4.5t11.5 -12.5t2 -26.5t-11.5 -44.5q-11 -2 -68.5 -18t-115.5 -25t-230 -19.5t-424 -11.5q-14 8 -25.5 45.5t-7.5 81.5z" />
<glyph unicode="&#x2012;" horiz-adv-x="1030" d="M92 590q4 44 33 61q109 -32 235 -42.5t216 -5.5t202.5 13.5t165.5 8.5h5.5t11.5 -4.5t11.5 -12.5t2 -26.5t-11.5 -44.5q-11 -2 -68.5 -18t-115.5 -25t-230 -19.5t-424 -11.5q-14 8 -25.5 45.5t-7.5 81.5z" />
<glyph unicode="&#x2013;" horiz-adv-x="1107" d="M64 660q5 44 40 61q134 -32 274.5 -42.5t235 -6t217.5 13t189 8.5h7.5t13.5 -4.5t14 -12.5t2.5 -26.5t-15.5 -44.5q-26 -4 -47 -19t-47 -28t-117.5 -25.5t-258 -12.5t-468.5 11q-16 8 -30.5 46t-9.5 82z" />
<glyph unicode="&#x2014;" horiz-adv-x="1320" d="M66 619q5 44 40 61q173 -41 383 -47.5t450.5 7t287.5 13.5h7.5t13.5 -4.5t14 -12.5t2.5 -26.5t-15.5 -44.5q-22 -3 -68 -18.5t-98 -28t-178.5 -25.5t-309 -12.5t-489.5 11.5q-16 8 -30.5 45.5t-9.5 81.5z" />
<glyph unicode="&#x2018;" horiz-adv-x="485" d="M125 1151q-3 56 10 106.5t30.5 82.5t47.5 64t47 45t43 31q7 5 10 7q-30 -49 -42.5 -81t-12.5 -68t26 -69.5t78 -70.5q57 -49 20 -107q-30 -47 -93 -64q-80 -20 -127 33q-29 34 -37 91z" />
<glyph unicode="&#x2019;" horiz-adv-x="430" d="M91 1416q30 47 93 64q80 20 127 -33q29 -33 37 -91q3 -56 -10 -106.5t-30.5 -82.5t-47.5 -64t-47 -45t-43 -31q-3 -2 -5.5 -4t-4.5 -3q30 49 42.5 81t12.5 68t-26 69.5t-78 70.5q-57 49 -20 107z" />
<glyph unicode="&#x201a;" horiz-adv-x="380" d="M70 207q29 47 93 63q80 21 127 -31q30 -33 38 -92q2 -31 -1.5 -60t-8.5 -52.5t-16.5 -46.5t-20.5 -39.5t-25 -35t-25.5 -29t-27 -25t-24.5 -19.5t-23 -16t-17 -12q30 49 42.5 80.5t12.5 68t-26 69.5t-78 70q-57 49 -20 107z" />
<glyph unicode="&#x201c;" horiz-adv-x="901" d="M125 1151q-3 56 10 106.5t30.5 82.5t47.5 64t47 45t43 31q7 5 10 7q-30 -49 -42.5 -81t-12.5 -68t26 -69.5t78 -70.5q57 -49 20 -107q-30 -47 -93 -64q-80 -20 -127 33q-29 34 -37 91zM535 1151q-3 56 10 106.5t30.5 82.5t47.5 64t47 45t43 31q7 5 10 7 q-30 -49 -42.5 -81t-12.5 -68t26 -69.5t78 -70.5q57 -49 20 -107q-30 -47 -93 -64q-80 -20 -127 33q-29 33 -37 91z" />
<glyph unicode="&#x201d;" horiz-adv-x="888" d="M132 1416q30 47 93 64q80 20 127 -33q29 -33 37 -91q3 -56 -10 -106.5t-30.5 -82.5t-47.5 -64t-47 -45t-43 -31q-3 -2 -5.5 -4t-4.5 -3q30 49 42.5 81t12.5 68t-26 69.5t-78 70.5q-57 49 -20 107zM541 1416q29 47 93 63q80 21 127 -31q30 -33 38 -92q3 -56 -10 -107 t-30 -82t-49 -64t-46 -44t-43 -31q-2 -2 -3 -2.5t-2.5 -1.5l-3 -2t-2.5 -2q30 49 42.5 81t12.5 68t-26 69.5t-78 70.5q-57 49 -20 107z" />
<glyph unicode="&#x201e;" horiz-adv-x="806" d="M70 207q29 47 93 63q80 21 127 -31q30 -33 38 -92q2 -31 -1.5 -60t-8.5 -52.5t-16.5 -46.5t-20.5 -39.5t-25 -35t-25.5 -29t-27 -25t-24.5 -19.5t-23 -16t-17 -12q30 49 42.5 80.5t12.5 68t-26 69.5t-78 70q-57 49 -20 107zM459 207q29 47 93 63q80 21 127 -31 q30 -33 38 -92q2 -31 -1.5 -60t-8.5 -52.5t-16.5 -46.5t-20.5 -39.5t-25 -35t-25.5 -29t-27 -25t-24.5 -19.5t-23 -16t-17 -12q30 49 42.5 80.5t12.5 68t-26 69.5t-78 70q-57 49 -20 107z" />
<glyph unicode="&#x2022;" horiz-adv-x="651" d="M61 631q0 101 74 172t178 71q105 0 179.5 -71t74.5 -172t-74.5 -171.5t-179.5 -70.5t-178.5 70.5t-73.5 171.5z" />
<glyph unicode="&#x2026;" horiz-adv-x="1216" d="M76 131q0 56 40 94.5t101 38.5q56 0 95.5 -39t39.5 -94q0 -51 -40 -90t-95 -39q-60 0 -100.5 38.5t-40.5 90.5zM481 131q0 56 40.5 94.5t101.5 38.5q56 0 95.5 -39t39.5 -94q0 -51 -40 -90t-95 -39q-60 0 -101 38.5t-41 90.5zM887 131q0 56 40 94.5t101 38.5 q56 0 95.5 -39t39.5 -94q0 -51 -40 -90t-95 -39q-60 0 -100.5 38.5t-40.5 90.5z" />
<glyph unicode="&#x202f;" horiz-adv-x="402" />
<glyph unicode="&#x2039;" horiz-adv-x="706" d="M72 561q0 21 4 37q7 22 18 45q30 52 82 115q39 47 96 104q100 103 238 217q17 4 52.5 -14.5t61 -54t13.5 -70.5q-124 -65 -250 -182q-64 -57 -117 -123q-29 -33 -45 -64l-6 -12l1 -2q6 -10 9 -14q38 -53 107 -119q45 -45 113 -102q25 -22 65 -56.5t66.5 -57.5t44.5 -40 q2 -2 5 -4.5t6 -11.5t1 -18t-15.5 -22t-39.5 -24q-13 9 -54.5 30.5t-97.5 56.5t-121 85q-68 56 -121 107q-36 36 -69 77q-2 3 -11.5 15.5t-16.5 24.5t-13 30q-9 21 -6 47z" />
<glyph unicode="&#x203a;" horiz-adv-x="710" d="M90 940q-12 35 13.5 70.5t61 54t52.5 14.5q138 -114 238 -217q57 -57 96 -104q52 -63 82 -115q11 -23 18 -45q4 -16 4 -37q3 -26 -6 -47q-6 -18 -13 -30t-16.5 -24.5t-11.5 -15.5q-33 -41 -69 -77q-53 -51 -121 -107q-65 -50 -121 -85t-97.5 -56.5t-54.5 -30.5 q-41 18 -51.5 38t-1.5 31l10 11q18 17 45 40.5t66 56.5t66 57q62 52 112 102q69 66 107 119l8 16q-1 1 -2 5.5t-2 6.5q-16 31 -45 64q-53 66 -117 123q-126 117 -250 182z" />
<glyph unicode="&#x205f;" horiz-adv-x="503" />
<glyph unicode="&#x20ac;" horiz-adv-x="1140" d="M35 547q4 44 33 61q8 -3 23.5 -7.5t19 -5.5l14 -4t12 -3.5t11 -2.5t11 -2t12.5 -1.5t16 -2t20 -1.5q-6 107 6 227q0 4 1 12.5t1 13.5q-28 1 -67 -2.5t-80 0.5q-14 8 -25.5 46t-7.5 82t33 61q68 -21 93 -25.5t87 -9.5q12 48 45 119q79 179 229 276q163 106 379 99 q26 -5 50 -32t28 -59q14 -73 -78 -98q-144 21 -256 -31q-136 -62 -207 -210l-28 -64q53 2 157.5 11.5t155.5 9.5q2 0 5.5 -0.5t11 -4.5t11.5 -12.5t2 -27t-12 -44.5q-9 -6 -24.5 -26t-35 -30.5t-98.5 -21t-214 -10.5q-22 -131 -13 -256q69 1 190.5 12t176.5 11h5.5t11 -4.5 t11.5 -12.5t2 -26.5t-12 -44.5q-3 -2 -11.5 -15t-24.5 -23t-50 -22t-104.5 -19.5t-171.5 -8.5q2 -12 10 -41q24 -95 57 -154q40 -76 86 -82q43 -6 107 41q41 32 104 99q44 51 89.5 112.5t68.5 95t68 103.5t49 76q3 5 7.5 11.5t18 19t25.5 15.5t25.5 -10.5t21.5 -48.5 q-11 -21 -44 -87t-60 -115q-48 -86 -94 -156q-89 -128 -164 -199q-28 -23 -43.5 -35.5t-49 -30t-69.5 -26.5q-67 -18 -133 8q-56 23 -103 82q-56 73 -98 207q-21 63 -31 117q-28 1 -72 -1.5t-87 1.5q-14 8 -25.5 45.5t-7.5 81.5z" />
<glyph unicode="&#x2122;" horiz-adv-x="1247" d="M50 1356.5q-6 29.5 9 42.5q62 -11 164 -4v12q6 14 35.5 18.5t42.5 -18.5v-2q37 5 97 15t77 12q2 0 5 -1t7.5 -9t-2.5 -27q-4 -1 -29.5 -12.5t-66.5 -22.5t-100 -19q-9 -76 -9 -176.5t4.5 -202.5t4.5 -124v-3t-2 -6.5t-5.5 -6.5t-11.5 -1.5t-18 6.5q-1 3 -7.5 35t-10.5 57 t-10 90t-6 134.5t1 189.5q-76 -7 -153 -10q-10 4 -16 33.5zM645 1393q0 34 27 39q19 -10 26 -11q37 9 50 -14q0 -3 -1.5 -6.5t-1.5 -5.5q29 -15 74 -60q55 -58 88 -161q2 -4 13 -37q11 62 12 67q16 78 41 131q30 49 61 72q24 12 39 14q10 12 33.5 14t38.5 -20v-12l8 -4 q11 -15 -4 -41q-1 -1 -2.5 -3.5t-2.5 -3.5t-3 -1q-4 -79 2.5 -183.5t16.5 -203.5t11 -129q1 -3 0.5 -7t-7.5 -10.5t-27 4.5q0 2 -12 47t-20.5 89t-19 150.5t-14.5 242.5q-12 -6 -39 -41q-24 -41 -51 -158q-6 -46 -10 -92t-6.5 -99t-3.5 -63v-6v-14v-3.5t-2 -6.5t-5.5 -6 t-11.5 -0.5t-18 9.5q0 9 -4 33q-2 9 -13.5 50t-19.5 77q-35 124 -51 164q-23 54 -62 96q-11 11 -35 27q-3 -75 4 -171.5t17 -192.5t12 -119q-1 0 0 -3t-1 -6t-5 -5.5t-11.5 -2t-19.5 5.5q-1 5 -9 33t-14.5 61.5t-15 89.5t-15 145t-9.5 200l-15 4q-12 12 -12 37z" />
<glyph unicode="&#x25fc;" horiz-adv-x="1034" d="M0 0v1034h1034v-1034h-1034z" />
</font>
</defs>
</svg>
